<?xml version="1.0" encoding="UTF-8"?>
<svg width="140px" height="30px" viewBox="0 0 140 30" version="1.1" xmlns="http://www.w3.org/2000/svg" xmlns:xlink="http://www.w3.org/1999/xlink">
    <!-- Generator: Sketch 52.5 (67469) - http://www.bohemiancoding.com/sketch -->
    <title>Group 3 Copy</title>
    <desc>Created with Sketch.</desc>
    <defs>
        <path d="M16.3357944,0 L16.3357944,12.7843434 C16.3357944,14.2790999 17.5475339,15.4908395 19.0422905,15.4908395 C20.537047,15.4908395 21.7487866,14.2790999 21.7487866,12.7843434 L21.7487866,1.86487517 C21.7595773,1.47836414 21.8622021,1.11484827 22.0355728,0.79548319 C26.6076324,2.54109226 29.8550725,6.96800216 29.8550725,12.1533923 L29.8550725,17.7016801 C29.8550725,24.4138134 24.4138134,29.8550725 17.7016801,29.8550725 L12.1533923,29.8550725 C5.44125909,29.8550725 8.21999249e-16,24.4138134 0,17.7016801 L0,12.1533923 C-6.30001088e-16,7.00904305 3.19623838,2.61121524 7.71118994,0.83743413 C8.11577527,1.25345392 8.37058585,1.81738843 8.38793752,2.44098077 L8.38793752,7.43296247 C8.38793752,8.92771899 9.5996771,10.1394586 11.0944336,10.1394586 C12.5891901,10.1394586 13.8009297,8.92771899 13.8009297,7.43296247 L13.8009297,0 L16.3357944,0 Z" id="path-1"></path>
    </defs>
    <g id="2019-Logo" stroke="none" stroke-width="1" fill="none" fill-rule="evenodd">
        <g id="Group-3-Copy">
            <g id="Combined-Shape-Copy-5">
                <mask id="mask-2" fill="white">
                    <use xlink:href="#path-1"></use>
                </mask>
                <use id="Combined-Shape" fill="#5769FF" xlink:href="#path-1"></use>
                <g id="Oval-3-Copy" mask="url(#mask-2)" fill="#3E45D9">
                    <g transform="translate(-1.126607, 11.829368)" id="Combined-Shape">
                        <path d="M4.12534063,18.3073558 C1.55158314,14.4010477 0,9.35072182 0,3.83551343 C0,-8.5530963 1.53197174,13.0332149 11.1893114,13.0332149 C20.846651,13.0332149 34.6431501,-8.5530963 34.6431501,3.83551343 C34.6431501,9.35072182 33.1568048,14.4010477 30.6554373,18.3073558 L4.12534063,18.3073558 Z"></path>
                    </g>
                </g>
                <g id="Group-2" mask="url(#mask-2)">
                    <g transform="translate(5.351381, -1.971561)">
                        <g id="Group" transform="translate(0.000000, 0.563303)"></g>
                        <g id="Combined-Shape-Copy-3" transform="translate(10.984413, 0.000000)"></g>
                    </g>
                </g>
            </g>
            <path d="M38.226087,13.1217391 L36.9478261,13.1217391 L36.9478261,10.7884058 L38.226087,10.7884058 L38.226087,10.2202899 C38.226087,8.82704617 38.614972,7.80918196 39.3927536,7.16666667 C40.1705353,6.52415138 41.3574799,6.2231882 42.9536232,6.26376812 L42.9536232,8.65797101 C42.2637647,8.63091774 41.7835762,8.74251083 41.5130435,8.99275362 C41.2425107,9.24299642 41.1072464,9.68598716 41.1072464,10.3217391 L41.1072464,10.7884058 L43.0753623,10.7884058 L43.0753623,13.1217391 L41.1072464,13.1217391 L41.1072464,22.0289855 L38.226087,22.0289855 L38.226087,13.1217391 Z M49.142029,12.9391304 C48.4521705,12.9391304 47.8637706,13.1487902 47.3768116,13.5681159 C46.8898527,13.9874417 46.5922711,14.5826048 46.484058,15.3536232 L51.8202899,15.3536232 C51.8067632,14.988404 51.7289862,14.6570063 51.5869565,14.3594203 C51.4449269,14.0618343 51.2521752,13.8082136 51.0086957,13.5985507 C50.7652162,13.3888878 50.4845427,13.2265706 50.1666667,13.1115942 C49.8487907,12.9966178 49.5072482,12.9391304 49.142029,12.9391304 Z M54.4782609,18.4985507 C54.3294679,19.012563 54.1029001,19.496133 53.7985508,19.9492754 C53.4942014,20.4024177 53.1188428,20.7946843 52.6724638,21.126087 C52.2260848,21.4574896 51.7120802,21.7212551 51.1304348,21.9173913 C50.5487894,22.1135276 49.913047,22.2115942 49.2231884,22.2115942 C48.4115902,22.2115942 47.660873,22.0763299 46.9710145,21.8057971 C46.281156,21.5352643 45.6859929,21.1463793 45.1855073,20.6391304 C44.6850217,20.1318815 44.2927551,19.5198103 44.0086957,18.8028986 C43.7246363,18.0859868 43.5826087,17.2879271 43.5826087,16.4086957 C43.5826087,15.5159376 43.7212547,14.7144963 43.9985508,14.0043478 C44.2758468,13.2941993 44.6613502,12.6855098 45.1550725,12.1782609 C45.6487948,11.671012 46.2439579,11.282127 46.9405797,11.0115942 C47.6372016,10.7410614 48.3980635,10.6057971 49.2231884,10.6057971 C50.0347867,10.6057971 50.7787406,10.7376798 51.4550725,11.0014493 C52.1314044,11.2652187 52.7164227,11.6405773 53.210145,12.1275362 C53.7038672,12.6144952 54.085989,13.1995135 54.3565218,13.8826087 C54.6270545,14.5657039 54.7623189,15.3265659 54.7623189,16.1652174 C54.7623189,16.3545903 54.7555557,16.5371972 54.742029,16.7130435 C54.7285024,16.8888898 54.7082127,17.0714966 54.6811594,17.2608696 L46.4637681,17.2608696 C46.5314013,18.0995211 46.8188381,18.7420268 47.326087,19.1884058 C47.8333359,19.6347848 48.4454071,19.857971 49.1623189,19.857971 C49.7710176,19.857971 50.251206,19.7260883 50.6028986,19.4623188 C50.9545912,19.1985494 51.2251199,18.8772966 51.4144928,18.4985507 L54.4782609,18.4985507 Z M61.052174,12.9391304 C60.3623154,12.9391304 59.7739155,13.1487902 59.2869566,13.5681159 C58.7999976,13.9874417 58.5024161,14.5826048 58.394203,15.3536232 L63.7304348,15.3536232 C63.7169082,14.988404 63.6391312,14.6570063 63.4971015,14.3594203 C63.3550718,14.0618343 63.1623201,13.8082136 62.9188406,13.5985507 C62.6753612,13.3888878 62.3946876,13.2265706 62.0768116,13.1115942 C61.7589357,12.9966178 61.4173932,12.9391304 61.052174,12.9391304 Z M66.3884059,18.4985507 C66.2396128,19.012563 66.0130451,19.496133 65.7086957,19.9492754 C65.4043464,20.4024177 65.0289878,20.7946843 64.5826088,21.126087 C64.1362297,21.4574896 63.6222252,21.7212551 63.0405798,21.9173913 C62.4589343,22.1135276 61.8231919,22.2115942 61.1333334,22.2115942 C60.3217351,22.2115942 59.571018,22.0763299 58.8811595,21.8057971 C58.191301,21.5352643 57.5961378,21.1463793 57.0956522,20.6391304 C56.5951666,20.1318815 56.2029,19.5198103 55.9188406,18.8028986 C55.6347812,18.0859868 55.4927537,17.2879271 55.4927537,16.4086957 C55.4927537,15.5159376 55.6313996,14.7144963 55.9086957,14.0043478 C56.1859918,13.2941993 56.5714952,12.6855098 57.0652174,12.1782609 C57.5589397,11.671012 58.1541029,11.282127 58.8507247,11.0115942 C59.5473465,10.7410614 60.3082085,10.6057971 61.1333334,10.6057971 C61.9449316,10.6057971 62.6888856,10.7376798 63.3652174,11.0014493 C64.0415493,11.2652187 64.6265676,11.6405773 65.1202899,12.1275362 C65.6140122,12.6144952 65.996134,13.1995135 66.2666667,13.8826087 C66.5371995,14.5657039 66.6724638,15.3265659 66.6724638,16.1652174 C66.6724638,16.3545903 66.6657006,16.5371972 66.652174,16.7130435 C66.6386473,16.8888898 66.6183577,17.0714966 66.5913044,17.2608696 L58.3739131,17.2608696 C58.4415463,18.0995211 58.728983,18.7420268 59.2362319,19.1884058 C59.7434809,19.6347848 60.355552,19.857971 61.0724638,19.857971 C61.6811625,19.857971 62.161351,19.7260883 62.5130435,19.4623188 C62.8647361,19.1985494 63.1352648,18.8772966 63.3246377,18.4985507 L66.3884059,18.4985507 Z M67.4028986,16.3681159 C67.4028986,15.4888845 67.5347814,14.6942064 67.7985508,13.984058 C68.0623202,13.2739095 68.427534,12.6686015 68.894203,12.1681159 C69.360872,11.6676303 69.9086926,11.282127 70.5376812,11.0115942 C71.1666699,10.7410614 71.83961,10.6057971 72.5565218,10.6057971 C73.3004869,10.6057971 74.0004799,10.7647327 74.6565218,11.0826087 C75.3125637,11.4004847 75.8367131,11.8231858 76.2289856,12.3507246 L76.2289856,7.01449275 L79.110145,7.01449275 L79.110145,22.0289855 L76.2289856,22.0289855 L76.2289856,20.3652174 C75.8908196,20.8792296 75.4140128,21.3154571 74.7985508,21.673913 C74.1830888,22.0323689 73.4289901,22.2115942 72.536232,22.2115942 C71.8193202,22.2115942 71.1497616,22.0729482 70.5275363,21.7956522 C69.905311,21.5183561 69.360872,21.1227079 68.894203,20.6086957 C68.427534,20.0946834 68.0623202,19.4792306 67.7985508,18.7623188 C67.5347814,18.045407 67.4028986,17.2473474 67.4028986,16.3681159 Z M76.2492754,16.4086957 C76.2492754,15.8811568 76.1681168,15.4111132 76.0057972,14.9985507 C75.8434775,14.5859883 75.623673,14.2376826 75.3463769,13.9536232 C75.0690808,13.6695638 74.7512096,13.4565224 74.3927537,13.3144928 C74.0342978,13.1724631 73.6589392,13.1014493 73.2666667,13.1014493 C72.8879209,13.1014493 72.5193255,13.1724631 72.1608696,13.3144928 C71.8024137,13.4565224 71.4879241,13.6628006 71.2173914,13.9333333 C70.9468586,14.2038661 70.7270541,14.5454086 70.5579711,14.957971 C70.3888881,15.3705335 70.3043479,15.8405771 70.3043479,16.3681159 C70.3043479,16.8956548 70.3888881,17.36908 70.5579711,17.7884058 C70.7270541,18.2077316 70.9468586,18.5594189 71.2173914,18.8434783 C71.4879241,19.1275377 71.8024137,19.3439606 72.1608696,19.4927536 C72.5193255,19.6415466 72.8879209,19.715942 73.2666667,19.715942 C73.6589392,19.715942 74.0342978,19.6449282 74.3927537,19.5028986 C74.7512096,19.3608689 75.0690808,19.1478275 75.3463769,18.8637681 C75.623673,18.5797087 75.8434775,18.231403 76.0057972,17.8188406 C76.1681168,17.4062781 76.2492754,16.9362345 76.2492754,16.4086957 Z M90.0057972,18.8231884 C90.0057972,19.3101474 89.904349,19.7599013 89.7014494,20.1724638 C89.4985498,20.5850262 89.2043499,20.9434767 88.8188407,21.2478261 C88.4333315,21.5521754 87.9700511,21.788888 87.4289856,21.957971 C86.8879201,22.127054 86.2724673,22.2115942 85.5826088,22.2115942 C84.8792236,22.2115942 84.2333364,22.1135276 83.6449276,21.9173913 C83.0565189,21.7212551 82.545896,21.4574896 82.1130436,21.126087 C81.6801912,20.7946843 81.3386487,20.4024177 81.0884059,19.9492754 C80.8381631,19.496133 80.6995172,19.0057997 80.6724639,18.4782609 L83.5333334,18.4782609 C83.58744,18.9111133 83.7970997,19.2695638 84.162319,19.5536232 C84.5275382,19.8376826 84.9942002,19.9797101 85.562319,19.9797101 C86.1304377,19.9797101 86.559902,19.8681171 86.8507247,19.6449275 C87.1415475,19.421738 87.2869566,19.1478277 87.2869566,18.8231884 C87.2869566,18.4850225 87.1314026,18.2280202 86.82029,18.0521739 C86.5091773,17.8763276 86.1169107,17.7241552 85.6434784,17.5956522 C85.1700461,17.4671491 84.6594231,17.3318848 84.1115943,17.1898551 C83.5637655,17.0478254 83.0531426,16.8550737 82.5797103,16.6115942 C82.1062779,16.3681147 81.7140113,16.0400987 81.4028987,15.6275362 C81.091786,15.2149738 80.936232,14.6637716 80.936232,13.973913 C80.936232,13.5004807 81.0376803,13.0608716 81.2405798,12.6550725 C81.4434794,12.2492733 81.7342977,11.8942044 82.1130436,11.5898551 C82.4917894,11.2855057 82.9584514,11.0454115 83.5130436,10.8695652 C84.0676357,10.6937189 84.6898517,10.6057971 85.3797103,10.6057971 C86.7459007,10.6057971 87.8212522,10.943958 88.6057972,11.6202899 C89.3903422,12.2966217 89.8231881,13.1961297 89.9043479,14.3188406 L87.1855074,14.3188406 C87.1449274,13.8859882 86.9623206,13.5343009 86.6376813,13.2637681 C86.313042,12.9932354 85.8666696,12.857971 85.2985508,12.857971 C84.771012,12.857971 84.3719821,12.9560377 84.1014494,13.1521739 C83.8309166,13.3483102 83.6956523,13.608694 83.6956523,13.9333333 C83.6956523,14.2714993 83.8512063,14.5318831 84.162319,14.7144928 C84.4734316,14.8971024 84.858935,15.056038 85.3188407,15.1913043 C85.7787464,15.3265707 86.2792245,15.4618351 86.82029,15.5971014 C87.3613555,15.7323678 87.8652152,15.9251195 88.3318842,16.1753623 C88.7985532,16.4256051 89.1908198,16.7570028 89.5086958,17.1695652 C89.8265717,17.5821277 89.9922706,18.1333299 90.0057972,18.8231884 Z M91.0000001,16.3681159 C91.0000001,15.4888845 91.1318829,14.6942064 91.3956523,13.984058 C91.6594217,13.2739095 92.0246355,12.6686015 92.4913045,12.1681159 C92.9579735,11.6676303 93.5024125,11.282127 94.1246378,11.0115942 C94.7468632,10.7410614 95.4164217,10.6057971 96.1333335,10.6057971 C97.0396182,10.6057971 97.8004802,10.7850224 98.4159422,11.1434783 C99.0314042,11.5019342 99.508211,11.917872 99.8463769,12.3913043 L99.8463769,10.7884058 L102.707247,10.7884058 L102.707247,22.0289855 L99.8463769,22.0289855 L99.8463769,20.3855072 C99.508211,20.8724662 99.024641,21.2985489 98.3956523,21.6637681 C97.7666637,22.0289873 97.0058017,22.2115942 96.1130436,22.2115942 C95.4096585,22.2115942 94.7468632,22.0729482 94.1246378,21.7956522 C93.5024125,21.5183561 92.9579735,21.1227079 92.4913045,20.6086957 C92.0246355,20.0946834 91.6594217,19.4792306 91.3956523,18.7623188 C91.1318829,18.045407 91.0000001,17.2473474 91.0000001,16.3681159 Z M99.8463769,16.4086957 C99.8463769,15.8811568 99.7652183,15.4111132 99.6028987,14.9985507 C99.440579,14.5859883 99.2207745,14.2376826 98.9434784,13.9536232 C98.6661823,13.6695638 98.3483111,13.4565224 97.9898552,13.3144928 C97.6313993,13.1724631 97.2560407,13.1014493 96.8637683,13.1014493 C96.4850224,13.1014493 96.1164271,13.1724631 95.7579712,13.3144928 C95.3995153,13.4565224 95.0850256,13.6628006 94.8144929,13.9333333 C94.5439601,14.2038661 94.3241556,14.5454086 94.1550726,14.957971 C93.9859896,15.3705335 93.9014494,15.8405771 93.9014494,16.3681159 C93.9014494,16.8956548 93.9859896,17.36908 94.1550726,17.7884058 C94.3241556,18.2077316 94.5439601,18.5594189 94.8144929,18.8434783 C95.0850256,19.1275377 95.3995153,19.3439606 95.7579712,19.4927536 C96.1164271,19.6415466 96.4850224,19.715942 96.8637683,19.715942 C97.2560407,19.715942 97.6313993,19.6449282 97.9898552,19.5028986 C98.3483111,19.3608689 98.6661823,19.1478275 98.9434784,18.8637681 C99.2207745,18.5797087 99.440579,18.231403 99.6028987,17.8188406 C99.7652183,17.4062781 99.8463769,16.9362345 99.8463769,16.4086957 Z M115.489855,22.0289855 L112.628986,22.0289855 L112.628986,20.6086957 C112.277293,21.082128 111.807249,21.4608681 111.218841,21.7449275 C110.630432,22.0289869 109.984545,22.1710145 109.28116,22.1710145 C108.631881,22.1710145 108.029955,22.0661846 107.475362,21.8565217 C106.92077,21.6468589 106.443964,21.3391325 106.044928,20.9333333 C105.645892,20.5275342 105.334784,20.0270561 105.111594,19.4318841 C104.888405,18.836712 104.776812,18.153627 104.776812,17.3826087 L104.776812,10.7884058 L107.617391,10.7884058 L107.617391,16.9768116 C107.617391,17.8830963 107.843959,18.5729445 108.297102,19.0463768 C108.750244,19.5198091 109.355552,19.7565217 110.113044,19.7565217 C110.884062,19.7565217 111.496133,19.5198091 111.949276,19.0463768 C112.402418,18.5729445 112.628986,17.8830963 112.628986,16.9768116 L112.628986,10.7884058 L115.489855,10.7884058 L115.489855,22.0289855 Z M116.950725,16.4086957 C116.950725,15.5294642 117.089371,14.7314046 117.366667,14.0144928 C117.643963,13.297581 118.026085,12.6855098 118.513044,12.1782609 C119.000003,11.671012 119.585021,11.282127 120.268116,11.0115942 C120.951211,10.7410614 121.698547,10.6057971 122.510145,10.6057971 C123.916915,10.6057971 125.073426,10.9507212 125.97971,11.6405797 C126.885995,12.3304382 127.494685,13.3111048 127.805797,14.5826087 L124.742029,14.5826087 C124.57971,14.1091764 124.312562,13.7304362 123.94058,13.4463768 C123.568597,13.1623174 123.085027,13.0202899 122.489855,13.0202899 C121.691784,13.0202899 121.05266,13.3111082 120.572464,13.8927536 C120.092268,14.474399 119.852174,15.313038 119.852174,16.4086957 C119.852174,17.5043533 120.092268,18.3396107 120.572464,18.9144928 C121.05266,19.4893749 121.691784,19.7768116 122.489855,19.7768116 C123.639619,19.7768116 124.390337,19.2628071 124.742029,18.2347826 L127.805797,18.2347826 C127.494685,19.4386534 126.885995,20.4024118 125.97971,21.126087 C125.073426,21.8497621 123.916915,22.2115942 122.510145,22.2115942 C121.698547,22.2115942 120.951211,22.0763299 120.268116,21.8057971 C119.585021,21.5352643 119.000003,21.1463793 118.513044,20.6391304 C118.026085,20.1318815 117.643963,19.5198103 117.366667,18.8028986 C117.089371,18.0859868 116.950725,17.2879271 116.950725,16.4086957 Z M134.115942,12.9391304 C133.426084,12.9391304 132.837684,13.1487902 132.350725,13.5681159 C131.863766,13.9874417 131.566184,14.5826048 131.457971,15.3536232 L136.794203,15.3536232 C136.780676,14.988404 136.702899,14.6570063 136.56087,14.3594203 C136.41884,14.0618343 136.226088,13.8082136 135.982609,13.5985507 C135.739129,13.3888878 135.458456,13.2265706 135.14058,13.1115942 C134.822704,12.9966178 134.481161,12.9391304 134.115942,12.9391304 Z M139.452174,18.4985507 C139.303381,19.012563 139.076813,19.496133 138.772464,19.9492754 C138.468115,20.4024177 138.092756,20.7946843 137.646377,21.126087 C137.199998,21.4574896 136.685993,21.7212551 136.104348,21.9173913 C135.522703,22.1135276 134.88696,22.2115942 134.197102,22.2115942 C133.385503,22.2115942 132.634786,22.0763299 131.944928,21.8057971 C131.255069,21.5352643 130.659906,21.1463793 130.159421,20.6391304 C129.658935,20.1318815 129.266668,19.5198103 128.982609,18.8028986 C128.69855,18.0859868 128.556522,17.2879271 128.556522,16.4086957 C128.556522,15.5159376 128.695168,14.7144963 128.972464,14.0043478 C129.24976,13.2941993 129.635263,12.6855098 130.128986,12.1782609 C130.622708,11.671012 131.217871,11.282127 131.914493,11.0115942 C132.611115,10.7410614 133.371977,10.6057971 134.197102,10.6057971 C135.0087,10.6057971 135.752654,10.7376798 136.428986,11.0014493 C137.105318,11.2652187 137.690336,11.6405773 138.184058,12.1275362 C138.67778,12.6144952 139.059902,13.1995135 139.330435,13.8826087 C139.600968,14.5657039 139.736232,15.3265659 139.736232,16.1652174 C139.736232,16.3545903 139.729469,16.5371972 139.715942,16.7130435 C139.702416,16.8888898 139.682126,17.0714966 139.655073,17.2608696 L131.437681,17.2608696 C131.505315,18.0995211 131.792751,18.7420268 132.3,19.1884058 C132.807249,19.6347848 133.41932,19.857971 134.136232,19.857971 C134.744931,19.857971 135.225119,19.7260883 135.576812,19.4623188 C135.928504,19.1985494 136.199033,18.8772966 136.388406,18.4985507 L139.452174,18.4985507 Z" id="feedsauce" fill="#000000"></path>
        </g>
    </g>
</svg>