<svg width="122" height="22" viewBox="0 0 122 22" xmlns="http://www.w3.org/2000/svg"><title>Group 4</title><path d="M29.05 15.718V8.424c0-.568.448-1.017 1.015-1.017h5.166c.514 0 .923.41.923.925a.918.918 0 0 1-.923.925H31.08v1.968h3.558c.514 0 .923.41.923.925a.918.918 0 0 1-.923.925H31.08v2.643c0 .568-.448 1.017-1.015 1.017s-1.015-.449-1.015-1.017zm10.978.938c-.566 0-1.014-.45-1.014-1.017V8.424c0-.568.448-1.017 1.014-1.017h5.114c.5 0 .91.41.91.912a.901.901 0 0 1-.91.898H41.03v1.876h3.519c.5 0 .909.41.909.912a.901.901 0 0 1-.91.899H41.03v1.942h4.178c.5 0 .909.41.909.911a.901.901 0 0 1-.91.899h-5.179zm10.148 0c-.567 0-1.015-.45-1.015-1.017V8.424c0-.568.448-1.017 1.015-1.017h5.113c.501 0 .91.41.91.912a.901.901 0 0 1-.91.898h-4.111v1.876h3.518c.501 0 .91.41.91.912a.901.901 0 0 1-.91.899h-3.518v1.942h4.177c.501 0 .91.41.91.911a.901.901 0 0 1-.91.899h-5.179zm9.133-1.017V8.424c0-.568.448-1.017 1.015-1.017h2.583c2.9 0 4.902 1.995 4.902 4.598v.026c0 2.603-2.003 4.625-4.902 4.625h-2.583c-.567 0-1.015-.45-1.015-1.017zm2.03-.82h1.568c1.66 0 2.78-1.123 2.78-2.761v-.027c0-1.638-1.12-2.787-2.78-2.787h-1.568v5.575zm12.743 1.97a5.944 5.944 0 0 1-3.466-1.11.951.951 0 0 1-.382-.767c0-.529.422-.938.95-.938a.97.97 0 0 1 .579.185c.698.515 1.463.832 2.359.832.83 0 1.331-.33 1.331-.872v-.026c0-.516-.316-.78-1.858-1.176-1.858-.476-3.058-.991-3.058-2.828v-.026c0-1.678 1.345-2.788 3.23-2.788 1.12 0 2.095.29 2.925.819.224.132.448.41.448.806a.935.935 0 0 1-.949.938.972.972 0 0 1-.514-.145c-.672-.397-1.305-.621-1.937-.621-.778 0-1.186.357-1.186.806v.026c0 .608.395.806 1.99 1.216 1.871.489 2.925 1.163 2.925 2.774v.027c0 1.836-1.397 2.867-3.387 2.867zm5.773-1.005c0-.145.052-.29.118-.436l3.216-7.28c.224-.502.633-.806 1.186-.806h.119c.553 0 .949.304 1.173.806l3.215 7.28a.994.994 0 0 1 .106.41.963.963 0 0 1-.962.977c-.475 0-.791-.277-.976-.7l-.619-1.453h-4.06l-.645 1.519c-.171.396-.514.634-.936.634a.935.935 0 0 1-.935-.951zm3.268-3h2.557L84.4 9.733l-1.278 3.053zm12.428 4.017c-2.478 0-3.993-1.387-3.993-4.109V8.345c0-.568.448-1.017 1.014-1.017.567 0 1.015.449 1.015 1.017v4.294c0 1.507.751 2.286 1.99 2.286 1.239 0 1.99-.753 1.99-2.22v-4.36c0-.568.448-1.017 1.015-1.017s1.015.449 1.015 1.017v4.281c0 2.801-1.569 4.175-4.046 4.175zm11.755.013c-2.715 0-4.73-2.1-4.73-4.756v-.027c0-2.629 1.976-4.783 4.81-4.783 1.383 0 2.319.37 3.083.939.211.158.396.449.396.806a.991.991 0 0 1-1.002.99c-.277 0-.461-.105-.606-.198-.567-.423-1.16-.66-1.885-.66-1.555 0-2.675 1.294-2.675 2.88v.026c0 1.586 1.094 2.907 2.675 2.907.857 0 1.423-.264 2.003-.726a.948.948 0 0 1 .607-.225c.514 0 .948.423.948.938a.958.958 0 0 1-.342.727c-.83.726-1.806 1.162-3.282 1.162zm7.736-.158a1.01 1.01 0 0 1-1.015-1.017V8.424c0-.568.449-1.017 1.015-1.017h5.114c.5 0 .909.41.909.912a.901.901 0 0 1-.91.898h-4.111v1.876h3.519c.5 0 .909.41.909.912a.901.901 0 0 1-.91.899h-3.518v1.942h4.178c.5 0 .909.41.909.911a.901.901 0 0 1-.91.899h-5.179zM6.577 3.541A5.678 5.678 0 0 0 3.1 8.776v3.646C3.92 14 5.387 16.29 7.953 16.29c3.652 0 8.44-4.64 10.796-5.259V8.776a5.679 5.679 0 0 0-3.553-5.266v6.793c0 .823-.762 1.49-1.701 1.49-.94 0-1.701-.667-1.701-1.49V3.1H9.979v3.358c0 .818-.761 1.48-1.7 1.48-.94 0-1.702-.662-1.702-1.48V3.541zM7.98 0h6.04A7.98 7.98 0 0 1 22 7.98v6.04A7.98 7.98 0 0 1 14.02 22H7.98A7.98 7.98 0 0 1 0 14.02V7.98A7.98 7.98 0 0 1 7.98 0z" fill="#FFF" fill-rule="evenodd"/></svg>