<svg xmlns="http://www.w3.org/2000/svg" width="516" height="57" viewBox="0 0 516 57"><g><g><g><g><path fill="#8d98b9" d="M97.09 18.48a4.2 4.2 0 0 1 4.2-4.2h34.074a4.2 4.2 0 0 1 4.2 4.2v34.263a4.2 4.2 0 0 1-4.2 4.2H101.29a4.2 4.2 0 0 1-4.2-4.2z"/></g><g><path fill="#fff" d="M118.8 4.26a4.2 4.2 0 0 1 4.2-4.2h34.074a4.2 4.2 0 0 1 4.2 4.2v34.263a4.2 4.2 0 0 1-4.2 4.2H123a4.2 4.2 0 0 1-4.2-4.2z"/></g></g><g><path fill="#fff" d="M242.378 1.422l14.989 14.988-31.959 31.951-14.987-14.985c-.51-.51-.611-1.413 0-1.997l16.977-16.976c.387-.387.999-.56 1.63-.264l12.187 6.092-6.092-12.186c-.218-.435-.218-1.193.264-1.63l4.993-4.993c.51-.509 1.418-.614 1.998 0zm16.978 16.986l.988.988c2.673 2.674 2.852 7.186-.03 10.041L238.38 51.35a7.053 7.053 0 0 1-9.984 0l-.99-.992zm-12.98 26.955l7.993-7.986 6.983 6.983c2.262 2.179 2.132 5.856 0 7.988-2.133 2.133-5.604 2.271-7.99 0z"/></g><g><path fill="#fff" d="M356 9.333V20h-5.333V9.333H340V4h10.667C353.6 4 356 6.4 356 9.333zM350.667 36H356v10.667C356 49.6 353.6 52 350.667 52H340v-5.333h10.667zm-37.334 10.667H324V52h-10.667C310.4 52 308 49.6 308 46.667V36h5.333zm0-42.667H324v5.333h-10.667V20H308V9.333C308 6.4 310.4 4 313.333 4z"/></g><g><path fill="#fff" d="M428 20.897h-11.131L427.188 4h-13L402 29.345h9.588L402 53z"/></g><g><path fill="#fff" d="M515.196 7.804a2.726 2.726 0 0 0-2.562-.731c-.005 0-.009.002-.013.003l-30.627 7.495A6.536 6.536 0 0 0 477 20.934v4.043a2.746 2.746 0 0 0 2.625 2.74l11.52 1.96a.762.762 0 0 0 .667-.212l13.576-13.577a1.219 1.219 0 0 1 1.724 1.724l-13.577 13.577a.762.762 0 0 0-.212.666l1.96 11.52a2.746 2.746 0 0 0 2.74 2.625h4.042a6.536 6.536 0 0 0 6.364-4.994l7.495-30.627a2.725 2.725 0 0 0-.728-2.575z"/></g><g><path fill="#fff" d="M50.944 14.11v-.113c-.057-.112-.057-.224-.113-.336v-.056c-.056-.112-.169-.224-.225-.28l-.056-.056c-.057-.056-.17-.112-.225-.168l-.057-.056h-.056l-.056-.056-23.924-11.82c-.45-.225-1.013-.225-1.52 0l-8.05 3.977L40.7 17.415l.056.056c.056 0 .056.056.113.056.056.056.056.112.112.168V30.86a.588.588 0 0 1-.281.504l-4.841 2.521c-.282.169-.62.057-.788-.224-.057-.056-.057-.168-.057-.28V20.664L10.695 8.171l-.056-.056-9.738 4.818-.057.056H.788l-.056.056c-.056.056-.17.112-.225.168l-.057.056c-.112.112-.169.224-.281.336v.056c-.056.112-.113.224-.113.336v.112c0 .112-.056.168-.056.28v26.163c0 .616.338 1.233.957 1.513L24.656 53.83c.337.168.731.224 1.125.112l.113-.056c.113 0 .169-.056.282-.112l23.867-11.765c.563-.28.957-.84.957-1.513V14.39c-.056-.112-.056-.168-.056-.28z"/></g></g></g></svg>