<svg xmlns="http://www.w3.org/2000/svg" width="547" height="60"><path fill="#8d98b9" d="M103.1 25.6c0-5.799 4.701-10.5 10.5-10.5h24.048c5.799 0 10.5 4.701 10.5 10.5v23.796c0 5.799-4.701 10.5-10.5 10.5H113.6c-5.799 0-10.5-4.701-10.5-10.5z"/><path fill="#0d0f14" d="M126.12 10.66c0-5.799 4.701-10.5 10.5-10.5h24.048c5.799 0 10.5 4.701 10.5 10.5v23.796c0 5.799-4.701 10.5-10.5 10.5H136.62c-5.799 0-10.5-4.701-10.5-10.5zm131.09-8.222l15.838 15.553-33.768 33.157-15.835-15.55c-.538-.529-.646-1.467 0-2.073l17.938-17.616c.408-.401 1.055-.582 1.722-.274l12.877 6.322-6.437-12.646c-.23-.452-.23-1.239.28-1.692l5.275-5.181c.538-.528 1.498-.637 2.11 0zm17.95 17.627l1.043 1.026c2.826 2.775 3.014 7.459-.03 10.422L252.99 54.26c-2.826 2.776-7.513 2.955-10.552 0l-1.048-1.03zm-13.725 27.972l8.445-8.287 7.378 7.246c2.39 2.261 2.254 6.077 0 8.29-2.253 2.213-5.92 2.357-8.442 0zM377 9.667V21h-5.667V9.667H360V4h11.333C374.45 4 377 6.55 377 9.667zM371.333 38H377v11.333c0 3.117-2.55 5.667-5.667 5.667H360v-5.667h11.333zm-39.666 11.333H343V55h-11.333C328.55 55 326 52.45 326 49.333V38h5.667zm0-45.333H343v5.667h-11.333V21H326V9.667C326 6.55 328.55 4 331.667 4zM454 21.931h-11.988L453.125 4h-14L426 30.897h10.325L426 56zm92.154-13.085a2.866 2.866 0 00-2.693-.77l-.014.004-32.197 7.88a6.87 6.87 0 00-5.25 6.69v4.248a2.886 2.886 0 002.76 2.88l12.11 2.062a.8.8 0 00.701-.223l14.273-14.273a1.281 1.281 0 011.812 1.812l-14.273 14.273a.8.8 0 00-.223.7l2.061 12.112a2.886 2.886 0 002.88 2.759h4.25a6.87 6.87 0 006.69-5.25l7.88-32.197a2.865 2.865 0 00-.766-2.707z"/><path fill="#5769ff" d="M53.94 14.851v-.118c-.06-.118-.06-.237-.119-.355v-.06a1.293 1.293 0 00-.238-.295l-.06-.06c-.06-.059-.179-.118-.238-.177l-.06-.06h-.06l-.059-.058-25.331-12.49c-.477-.237-1.073-.237-1.61 0L17.643 5.38l25.45 12.964.06.06c.06 0 .06.058.12.058.06.06.06.119.119.178v13.91a.62.62 0 01-.298.533l-5.126 2.664c-.298.178-.656.06-.835-.237-.06-.059-.06-.177-.06-.296V21.777l-25.748-13.2-.06-.06-10.31 5.091-.06.06h-.06l-.06.059c-.059.059-.178.118-.238.177l-.06.06c-.118.118-.178.236-.297.355v.059c-.06.118-.12.237-.12.355v.118c0 .119-.059.178-.059.296v27.644c0 .651.358 1.302 1.013 1.598L26.106 56.82c.358.178.775.237 1.192.118l.12-.059c.118 0 .178-.059.297-.118l25.272-12.43c.596-.297 1.013-.889 1.013-1.6V15.148c-.06-.118-.06-.177-.06-.296z"/></svg>