<?xml version="1.0" encoding="UTF-8"?>
<svg id="SVGDoc" width="138" height="30" xmlns="http://www.w3.org/2000/svg" version="1.1" xmlns:xlink="http://www.w3.org/1999/xlink" xmlns:avocode="https://avocode.com/" viewBox="0 0 138 30"><defs></defs><desc>Generated with Avocode.</desc><g><g><title>Mask</title><path d="M16.07636,0.81v0v12.31803c0,1.44024 1.1925,2.60778 2.66352,2.60778c1.47101,0 2.66351,-1.16754 2.66351,-2.60778v-10.52118v0h0.00089c0.01035,-0.37237 0.11114,-0.72259 0.28159,-1.03029c4.49932,1.682 7.69507,5.94738 7.69507,10.94354v5.34591c0,6.46731 -5.35485,11.71009 -11.96038,11.71009h-5.46018c-6.60553,0 -11.96038,-5.24278 -11.96038,-11.71009v-5.34591c0,-4.95668 3.14544,-9.19407 7.58864,-10.90318c0.39803,0.40084 0.64855,0.9442 0.6652,1.54503h0.00089v0v4.80989c0,1.44024 1.19249,2.60778 2.66351,2.60778c1.47102,0 2.66351,-1.16754 2.66351,-2.60778v-7.16184v0z" fill="#5769ff" fill-opacity="1"></path></g><g><title>feedsauce</title><path d="M137.71901,19.07555c-0.14677,0.48659 -0.37026,0.94436 -0.67046,1.37333c-0.30021,0.42897 -0.67046,0.80032 -1.11076,1.11404c-0.4403,0.31372 -0.94731,0.56342 -1.52104,0.74909c-0.57373,0.18568 -1.20081,0.27851 -1.88128,0.27851c-0.80055,0 -1.54105,-0.12805 -2.22152,-0.38415c-0.68047,-0.2561 -1.26753,-0.62424 -1.7612,-1.10443c-0.49367,-0.48019 -0.8806,-1.05961 -1.16079,-1.73828c-0.2802,-0.67867 -0.42029,-1.43416 -0.42029,-2.26648c0,-0.84514 0.13676,-1.60383 0.41028,-2.27609c0.27352,-0.67227 0.65378,-1.24849 1.14078,-1.72868c0.487,-0.48019 1.07406,-0.84833 1.7612,-1.10443c0.68714,-0.2561 1.43764,-0.38415 2.25154,-0.38415c0.80055,0 1.53437,0.12485 2.2015,0.37455c0.66713,0.2497 1.24418,0.60503 1.73118,1.06601c0.487,0.46098 0.86392,1.0148 1.13077,1.66145c0.26685,0.64666 0.40028,1.36693 0.40028,2.16085c0,0.17927 -0.00667,0.35213 -0.02002,0.5186c-0.01334,0.16646 -0.03335,0.33933 -0.06004,0.5186h-8.10553c0.06671,0.79391 0.35024,1.40215 0.85058,1.82471c0.50034,0.42257 1.10408,0.63385 1.81124,0.63385c0.60041,0 1.07406,-0.12485 1.42097,-0.37455c0.3469,-0.24969 0.61375,-0.55381 0.80054,-0.91235zM132.46041,13.81269c-0.68176,0 -1.26326,0.19848 -1.7445,0.59543c-0.48124,0.39696 -0.77533,0.96037 -0.88227,1.69026h5.2736c-0.01337,-0.34573 -0.09023,-0.65945 -0.23059,-0.94116c-0.14037,-0.28172 -0.33086,-0.52181 -0.57147,-0.72029c-0.24063,-0.19847 -0.518,-0.35213 -0.83215,-0.46098c-0.31415,-0.10884 -0.65168,-0.16326 -1.01261,-0.16326zM115.52386,17.09718c0,-0.83233 0.13676,-1.58782 0.41028,-2.26649c0.27352,-0.67867 0.65044,-1.25809 1.13077,-1.73828c0.48033,-0.48019 1.05739,-0.84833 1.73118,-1.10443c0.6738,-0.2561 1.41096,-0.38415 2.21151,-0.38415c1.38762,0 2.52839,0.32652 3.42234,0.97958c0.89395,0.65306 1.49435,1.58141 1.80123,2.78509h-3.02206c-0.16011,-0.44818 -0.42363,-0.80671 -0.79054,-1.07562c-0.36692,-0.26891 -0.84391,-0.40336 -1.43098,-0.40336c-0.78721,0 -1.41763,0.27531 -1.89129,0.82593c-0.47366,0.55061 -0.71049,1.34452 -0.71049,2.38173c0,1.03721 0.23683,1.82791 0.71049,2.37212c0.47366,0.54422 1.10408,0.81632 1.89129,0.81632c1.13411,0 1.87461,-0.48658 2.22152,-1.45977h3.02206c-0.30688,1.13965 -0.90728,2.052 -1.80123,2.73707c-0.89395,0.68507 -2.03472,1.0276 -3.42234,1.0276c-0.80055,0 -1.53771,-0.12805 -2.21151,-0.38415c-0.67379,-0.2561 -1.25085,-0.62424 -1.73118,-1.10443c-0.48033,-0.48019 -0.85725,-1.05961 -1.13077,-1.73828c-0.27352,-0.67867 -0.41028,-1.43416 -0.41028,-2.26648zM114.07288,22.40779h-2.81925v-1.34328c-0.34658,0.44776 -0.80978,0.80596 -1.38963,1.07462c-0.57985,0.26866 -1.21635,0.40299 -1.9095,0.40299c-0.63983,0 -1.233,-0.09915 -1.77952,-0.29744c-0.54653,-0.1983 -1.0164,-0.48934 -1.40964,-0.87313c-0.39323,-0.38379 -0.69981,-0.85713 -0.91975,-1.42003c-0.21995,-0.56291 -0.32992,-1.20895 -0.32992,-1.93816v-6.23665h2.79926v5.85286c0,0.85714 0.22328,1.50959 0.66983,1.95734c0.44655,0.44776 1.04305,0.67165 1.78953,0.67165c0.75981,0 1.36297,-0.22388 1.80953,-0.67165c0.44655,-0.44775 0.66983,-1.1002 0.66983,-1.95734v-5.85286h2.81925zM98.65234,17.09717c0,-0.49939 -0.08005,-0.94436 -0.24016,-1.33492c-0.16011,-0.39055 -0.37692,-0.72028 -0.65045,-0.98918c-0.27352,-0.26891 -0.58706,-0.47059 -0.94064,-0.60504c-0.35357,-0.13445 -0.72382,-0.20168 -1.11076,-0.20168c-0.37359,0 -0.73716,0.06723 -1.09074,0.20168c-0.35358,0.13445 -0.66379,0.32973 -0.93064,0.58583c-0.26685,0.2561 -0.48366,0.57942 -0.65044,0.96998c-0.16678,0.39055 -0.25017,0.83552 -0.25017,1.33492c0,0.4994 0.08339,0.94757 0.25017,1.34452c0.16678,0.39696 0.38359,0.72989 0.65044,0.99879c0.26685,0.26891 0.57706,0.47379 0.93064,0.61464c0.35358,0.14086 0.71715,0.21129 1.09074,0.21129c0.38694,0 0.75719,-0.06723 1.11076,-0.20168c0.35358,-0.13446 0.66712,-0.33613 0.94064,-0.60504c0.27353,-0.26891 0.49034,-0.59863 0.65045,-0.98919c0.16011,-0.39055 0.24016,-0.83552 0.24016,-1.33492zM89.92639,17.05876c0,-0.83233 0.12998,-1.58462 0.38993,-2.25688c0.25995,-0.67227 0.61988,-1.24529 1.07979,-1.71907c0.45992,-0.47379 0.99649,-0.83873 1.60971,-1.09483c0.61323,-0.2561 1.2731,-0.38415 1.97964,-0.38415c0.89317,0 1.64303,0.16966 2.24958,0.509c0.60656,0.33933 1.07647,0.73308 1.40975,1.18126v-1.51739h2.81948v10.64095h-2.81948v-1.5558c-0.33328,0.46098 -0.80985,0.86433 -1.42974,1.21007c-0.61989,0.34573 -1.36974,0.5186 -2.24959,0.5186c-0.69321,0 -1.34641,-0.13125 -1.95964,-0.39375c-0.61322,-0.26251 -1.14978,-0.63705 -1.60971,-1.12364c-0.45991,-0.48659 -0.81984,-1.06922 -1.07979,-1.74788c-0.25995,-0.67867 -0.38993,-1.43416 -0.38993,-2.26649zM88.94572,19.38287c0,0.46098 -0.10006,0.88674 -0.3002,1.2773c-0.20014,0.39055 -0.49033,0.72988 -0.8706,1.01799c-0.38026,0.28812 -0.83723,0.5122 -1.37093,0.67227c-0.5337,0.16006 -1.14078,0.24009 -1.82124,0.24009c-0.69381,0 -1.33091,-0.09283 -1.91131,-0.27851c-0.5804,-0.18567 -1.08407,-0.43537 -1.51103,-0.74909c-0.42696,-0.31372 -0.76385,-0.68507 -1.01069,-1.11404c-0.24684,-0.42897 -0.38359,-0.89314 -0.41028,-1.39254h2.82193c0.05337,0.40976 0.26017,0.74909 0.62042,1.018c0.36025,0.2689 0.82056,0.40336 1.38094,0.40336c0.56039,0 0.98401,-0.10564 1.27087,-0.31693c0.28686,-0.21128 0.43029,-0.47058 0.43029,-0.7779c0,-0.32013 -0.15343,-0.56342 -0.46031,-0.72989c-0.30688,-0.16646 -0.69381,-0.31052 -1.16079,-0.43217c-0.46699,-0.12164 -0.97066,-0.24969 -1.51103,-0.38415c-0.54038,-0.13445 -1.04405,-0.31692 -1.51104,-0.54741c-0.46698,-0.23049 -0.85391,-0.54101 -1.16079,-0.93156c-0.30688,-0.39056 -0.46031,-0.91236 -0.46031,-1.56541c0,-0.44818 0.10006,-0.86434 0.3002,-1.24849c0.20014,-0.38415 0.487,-0.72028 0.86059,-1.0084c0.37359,-0.28811 0.8339,-0.5154 1.38094,-0.68186c0.54705,-0.16647 1.16079,-0.2497 1.84126,-0.2497c1.34759,0 2.40831,0.32012 3.18217,0.96038c0.77387,0.64025 1.20082,1.49177 1.28088,2.55459h-2.68184c-0.04002,-0.40976 -0.22014,-0.74269 -0.54036,-0.99879c-0.32022,-0.2561 -0.76052,-0.38415 -1.32091,-0.38415c-0.52035,0 -0.91395,0.09284 -1.1808,0.27851c-0.26685,0.18567 -0.40027,0.43217 -0.40027,0.73949c0,0.32013 0.15343,0.56662 0.46031,0.73949c0.30688,0.17287 0.68713,0.32332 1.14078,0.45138c0.45364,0.12805 0.94731,0.25609 1.48101,0.38415c0.5337,0.12805 1.0307,0.31052 1.49102,0.54741c0.46031,0.23689 0.84724,0.55061 1.16079,0.94117c0.31355,0.39055 0.47699,0.91235 0.49033,1.56541zM75.38647,17.09717c0,-0.49939 -0.08019,-0.94436 -0.24057,-1.33492c-0.16038,-0.39055 -0.37756,-0.72028 -0.65156,-0.98918c-0.27399,-0.26891 -0.58806,-0.47059 -0.94225,-0.60504c-0.35417,-0.13445 -0.72506,-0.20168 -1.11266,-0.20168c-0.37423,0 -0.73842,0.06723 -1.0926,0.20168c-0.35418,0.13445 -0.66492,0.32973 -0.93223,0.58583c-0.26731,0.2561 -0.48449,0.57942 -0.65155,0.96998c-0.16706,0.39055 -0.2506,0.83552 -0.2506,1.33492c0,0.4994 0.08353,0.94757 0.2506,1.34452c0.16706,0.39696 0.38424,0.72989 0.65155,0.99879c0.26731,0.26891 0.57804,0.47379 0.93223,0.61464c0.35418,0.14086 0.71837,0.21129 1.0926,0.21129c0.3876,0 0.75848,-0.06723 1.11266,-0.20168c0.35418,-0.13446 0.66826,-0.33613 0.94225,-0.60504c0.274,-0.26891 0.49118,-0.59863 0.65156,-0.98919c0.16038,-0.39055 0.24057,-0.83552 0.24057,-1.33492zM66.6505,17.05876c0,-0.83233 0.13009,-1.58462 0.39027,-2.25688c0.26018,-0.67227 0.62042,-1.24529 1.08073,-1.71907c0.46032,-0.47379 1.00068,-0.83873 1.62111,-1.09483c0.62043,-0.2561 1.28421,-0.38415 1.99136,-0.38415c0.73384,0 1.4243,0.15045 2.07141,0.45137c0.64711,0.30092 1.16413,0.70108 1.55106,1.20047v-5.05157h2.84194v14.21355h-2.84194v-1.57501c-0.33356,0.48659 -0.80388,0.89955 -1.41096,1.23888c-0.60709,0.33933 -1.35092,0.509 -2.23152,0.509c-0.70716,0 -1.3676,-0.13125 -1.98136,-0.39376c-0.61375,-0.2625 -1.15078,-0.63704 -1.6111,-1.12363c-0.46031,-0.4866 -0.82055,-1.06922 -1.08073,-1.74789c-0.26018,-0.67867 -0.39027,-1.43415 -0.39027,-2.26648zM65.64982,19.07555c-0.14677,0.48659 -0.37026,0.94436 -0.67046,1.37333c-0.30021,0.42897 -0.67046,0.80032 -1.11076,1.11404c-0.4403,0.31372 -0.94731,0.56342 -1.52104,0.74909c-0.57373,0.18568 -1.20081,0.27851 -1.88128,0.27851c-0.80055,0 -1.54105,-0.12805 -2.22152,-0.38415c-0.68047,-0.2561 -1.26753,-0.62424 -1.7612,-1.10443c-0.49367,-0.48019 -0.8806,-1.05961 -1.16079,-1.73828c-0.2802,-0.67867 -0.42029,-1.43416 -0.42029,-2.26648c0,-0.84514 0.13676,-1.60383 0.41028,-2.27609c0.27352,-0.67227 0.65378,-1.24849 1.14078,-1.72868c0.487,-0.48019 1.07406,-0.84833 1.7612,-1.10443c0.68714,-0.2561 1.43764,-0.38415 2.25154,-0.38415c0.80055,0 1.53437,0.12485 2.2015,0.37455c0.66713,0.2497 1.24418,0.60503 1.73118,1.06601c0.487,0.46098 0.86392,1.0148 1.13077,1.66145c0.26685,0.64666 0.40028,1.36693 0.40028,2.16085c0,0.17927 -0.00667,0.35213 -0.02002,0.5186c-0.01334,0.16646 -0.03335,0.33933 -0.06004,0.5186h-8.10553c0.06671,0.79391 0.35024,1.40215 0.85058,1.82471c0.50034,0.42257 1.10408,0.63385 1.81124,0.63385c0.60041,0 1.07406,-0.12485 1.42097,-0.37455c0.3469,-0.24969 0.61375,-0.55381 0.80054,-0.91235zM60.39122,13.81269c-0.68176,0 -1.26326,0.19848 -1.7445,0.59543c-0.48124,0.39696 -0.77533,0.96037 -0.88227,1.69026h5.2736c-0.01337,-0.34573 -0.09023,-0.65945 -0.23059,-0.94116c-0.14037,-0.28172 -0.33086,-0.52181 -0.57147,-0.72029c-0.24063,-0.19847 -0.518,-0.35213 -0.83215,-0.46098c-0.31415,-0.10884 -0.65168,-0.16326 -1.01261,-0.16326zM53.90181,19.07555c-0.14677,0.48659 -0.37026,0.94436 -0.67046,1.37333c-0.30021,0.42897 -0.67046,0.80032 -1.11076,1.11404c-0.4403,0.31372 -0.94731,0.56342 -1.52104,0.74909c-0.57373,0.18568 -1.20081,0.27851 -1.88128,0.27851c-0.80055,0 -1.54105,-0.12805 -2.22152,-0.38415c-0.68047,-0.2561 -1.26753,-0.62424 -1.7612,-1.10443c-0.49367,-0.48019 -0.8806,-1.05961 -1.16079,-1.73828c-0.2802,-0.67867 -0.42029,-1.43416 -0.42029,-2.26648c0,-0.84514 0.13676,-1.60383 0.41028,-2.27609c0.27352,-0.67227 0.65378,-1.24849 1.14078,-1.72868c0.487,-0.48019 1.07406,-0.84833 1.7612,-1.10443c0.68714,-0.2561 1.43764,-0.38415 2.25154,-0.38415c0.80055,0 1.53437,0.12485 2.2015,0.37455c0.66713,0.2497 1.24418,0.60503 1.73118,1.06601c0.487,0.46098 0.86392,1.0148 1.13077,1.66145c0.26685,0.64666 0.40028,1.36693 0.40028,2.16085c0,0.17927 -0.00667,0.35213 -0.02002,0.5186c-0.01334,0.16646 -0.03335,0.33933 -0.06004,0.5186h-8.10553c0.06671,0.79391 0.35024,1.40215 0.85058,1.82471c0.50034,0.42257 1.10408,0.63385 1.81124,0.63385c0.60041,0 1.07406,-0.12485 1.42097,-0.37455c0.3469,-0.24969 0.61375,-0.55381 0.80054,-0.91235zM48.63821,13.81269c-0.68047,0 -1.26086,0.19848 -1.74119,0.59543c-0.48033,0.39696 -0.77386,0.96037 -0.8806,1.69026h5.26359c-0.01334,-0.34573 -0.09006,-0.65945 -0.23015,-0.94116c-0.1401,-0.28172 -0.33023,-0.52181 -0.57039,-0.72029c-0.24017,-0.19847 -0.51702,-0.35213 -0.83057,-0.46098c-0.31355,-0.10884 -0.65044,-0.16326 -1.01069,-0.16326zM37.87086,13.98556h-1.26086v-2.20886h1.26086v-0.53781c0,-1.31893 0.38359,-2.28249 1.15079,-2.89073c0.76719,-0.60824 1.93798,-0.89315 3.51239,-0.85474v2.26649c-0.68046,-0.02561 -1.15412,0.08003 -1.42097,0.31692c-0.26685,0.2369 -0.40027,0.65626 -0.40027,1.25809v0.44178h1.94133v2.20886h-1.94133v8.43209h-2.84194z" fill="#ffffff" fill-opacity="1"></path></g></g></svg>