<?xml version="1.0" encoding="UTF-8" standalone="no"?>
<svg
   xmlns:dc="http://purl.org/dc/elements/1.1/"
   xmlns:cc="http://creativecommons.org/ns#"
   xmlns:rdf="http://www.w3.org/1999/02/22-rdf-syntax-ns#"
   xmlns:svg="http://www.w3.org/2000/svg"
   xmlns="http://www.w3.org/2000/svg"
   xmlns:sodipodi="http://sodipodi.sourceforge.net/DTD/sodipodi-0.dtd"
   xmlns:inkscape="http://www.inkscape.org/namespaces/inkscape"
   id="SVGDoc"
   width="121"
   height="26"
   version="1.1"
   viewBox="0 0 121 26"
   inkscape:version="0.91 r13725"
   sodipodi:docname="logo-new-white.svg">
  <metadata
     id="metadata23">
    <rdf:RDF>
      <cc:Work
         rdf:about="">
        <dc:format>image/svg+xml</dc:format>
        <dc:type
           rdf:resource="http://purl.org/dc/dcmitype/StillImage" />
        <dc:title></dc:title>
      </cc:Work>
    </rdf:RDF>
  </metadata>
  <sodipodi:namedview
     pagecolor="#ffffff"
     bordercolor="#666666"
     borderopacity="1"
     objecttolerance="10"
     gridtolerance="10"
     guidetolerance="10"
     inkscape:pageopacity="0"
     inkscape:pageshadow="2"
     inkscape:window-width="2560"
     inkscape:window-height="1336"
     id="namedview21"
     showgrid="false"
     inkscape:zoom="4.892562"
     inkscape:cx="153.25516"
     inkscape:cy="10.803659"
     inkscape:window-x="1912"
     inkscape:window-y="-8"
     inkscape:window-maximized="1"
     inkscape:current-layer="g15" />
  <defs
     id="defs3" />
  <desc
     id="desc5">Generated with Avocode.</desc>
  <g
     id="g7">
    <g
       id="g9">
      <title
         id="title11">Mask</title>
      <path
         d="M14.09594,0.71v0v10.80059c0,1.26282 1.0456,2.28653 2.3354,2.28653c1.28981,0 2.3354,-1.02371 2.3354,-2.28653v-9.22509v0h0.00078c0.00907,-0.3265 0.09745,-0.63358 0.2469,-0.90337c3.94506,1.4748 6.74713,5.21473 6.74713,9.59542v4.68736c0,5.67061 -4.69519,10.26754 -10.487,10.26754h-4.78755c-5.79181,0 -10.487,-4.59693 -10.487,-10.26754v-4.68736c0,-4.34607 2.75796,-8.06147 6.65381,-9.56003c0.34899,0.35146 0.56866,0.82788 0.58325,1.35469h0.00078v0v4.21738c0,1.26281 1.04559,2.28653 2.3354,2.28653c1.28981,0 2.3354,-1.02372 2.3354,-2.28653v-6.27959v0z"
         fill="#5769ff"
         fill-opacity="1"
         id="path13" />
    </g>
    <g
       id="g15">
      <title
         id="title17">feedsauce</title>
      <path
         d="M120.75355,16.72834c-0.12869,0.42665 -0.32464,0.82803 -0.58787,1.20416c-0.26322,0.37612 -0.58786,0.70172 -0.97392,0.97679c-0.38607,0.27508 -0.83062,0.49402 -1.33367,0.65682c-0.50305,0.1628 -1.05289,0.2442 -1.64953,0.2442c-0.70193,0 -1.35121,-0.11228 -1.94785,-0.33683c-0.59664,-0.22455 -1.11138,-0.54734 -1.54424,-0.96838c-0.43286,-0.42103 -0.77212,-0.92908 -1.0178,-1.52414c-0.24567,-0.59507 -0.36851,-1.25749 -0.36851,-1.98728c0,-0.74102 0.11991,-1.40625 0.35974,-1.9957c0.23982,-0.58945 0.57324,-1.09469 1.00025,-1.51572c0.427,-0.42104 0.94175,-0.74383 1.54424,-0.96838c0.60249,-0.22456 1.26054,-0.33683 1.97417,-0.33683c0.70193,0 1.34536,0.10947 1.9303,0.32841c0.58495,0.21894 1.09092,0.5305 1.51792,0.93469c0.42701,0.4042 0.7575,0.88978 0.99148,1.45678c0.23398,0.56699 0.35096,1.19854 0.35096,1.89465c0,0.15719 -0.00585,0.30876 -0.01755,0.45472c-0.01169,0.14596 -0.02924,0.29753 -0.05264,0.45472h-7.10702c0.05849,0.69611 0.30709,1.22941 0.74579,1.59993c0.43871,0.37051 0.96808,0.55576 1.58812,0.55576c0.52645,0 0.94175,-0.10947 1.24592,-0.32841c0.30417,-0.21894 0.53814,-0.48559 0.70193,-0.79996zM116.13341,12.11383c-0.59536,0 -1.10315,0.1749 -1.5234,0.52469c-0.42025,0.3498 -0.67706,0.84628 -0.77045,1.48945h4.60519c-0.01167,-0.30466 -0.0788,-0.58111 -0.20137,-0.82935c-0.12256,-0.24825 -0.28891,-0.45982 -0.49904,-0.63472c-0.21012,-0.17489 -0.45235,-0.31029 -0.72667,-0.40621c-0.27432,-0.09591 -0.56909,-0.14387 -0.88426,-0.14387zM101.29259,14.99368c0,-0.7298 0.11991,-1.39222 0.35974,-1.98728c0.23982,-0.59507 0.57031,-1.10311 0.99147,-1.52414c0.42116,-0.42104 0.92713,-0.74383 1.51792,-0.96838c0.59079,-0.22456 1.23715,-0.33683 1.93908,-0.33683c1.21668,0 2.21692,0.2863 3.00074,0.85891c0.78383,0.57261 1.31027,1.3866 1.57934,2.442h-2.64978c-0.14038,-0.39297 -0.37143,-0.70734 -0.69315,-0.94312c-0.32172,-0.23578 -0.73995,-0.35367 -1.2547,-0.35367c-0.69023,0 -1.243,0.24139 -1.6583,0.72418c-0.41531,0.48279 -0.62297,1.17889 -0.62297,2.08833c0,0.90944 0.20766,1.60273 0.62297,2.07991c0.4153,0.47717 0.96807,0.71575 1.6583,0.71575c0.9944,0 1.64368,-0.42664 1.94785,-1.27994h2.64978c-0.26907,0.99926 -0.79551,1.79922 -1.57934,2.39989c-0.78382,0.60068 -1.78406,0.90102 -3.00074,0.90102c-0.70193,0 -1.34829,-0.11228 -1.93908,-0.33683c-0.59079,-0.22455 -1.09676,-0.54734 -1.51792,-0.96838c-0.42116,-0.42103 -0.75165,-0.92908 -0.99147,-1.52414c-0.23983,-0.59507 -0.35974,-1.25749 -0.35974,-1.98728zM100.02911,19.65873h-2.47429v-1.17889c-0.30417,0.39297 -0.7107,0.70733 -1.2196,0.94311c-0.5089,0.23578 -1.06752,0.35367 -1.67586,0.35367c-0.56154,0 -1.08213,-0.08701 -1.56179,-0.26104c-0.47965,-0.17403 -0.89203,-0.42945 -1.23715,-0.76628c-0.34511,-0.33683 -0.61418,-0.75225 -0.80721,-1.24626c-0.19304,-0.49402 -0.28955,-1.061 -0.28955,-1.70098v-5.47344h2.45675v5.13661c0,0.75226 0.19595,1.32486 0.58786,1.71782c0.39192,0.39297 0.91543,0.58945 1.57057,0.58945c0.66683,0 1.1962,-0.19648 1.58811,-0.58945c0.39191,-0.39296 0.58787,-0.96556 0.58787,-1.71782v-5.13661h2.47429zM86.49945,14.99368c0,-0.43788 -0.0702,-0.82803 -0.21058,-1.17047c-0.14039,-0.34245 -0.33049,-0.63155 -0.57032,-0.86733c-0.23983,-0.23578 -0.51475,-0.41262 -0.82477,-0.53051c-0.31002,-0.11789 -0.63465,-0.17683 -0.97392,-0.17683c-0.32757,0 -0.64636,0.05894 -0.95638,0.17683c-0.31002,0.11789 -0.58201,0.28911 -0.81599,0.51367c-0.23398,0.22455 -0.42408,0.50804 -0.57032,0.85048c-0.14623,0.34245 -0.21935,0.7326 -0.21935,1.17048c0,0.43788 0.07312,0.83084 0.21935,1.17889c0.14624,0.34806 0.33634,0.63997 0.57032,0.87575c0.23398,0.23578 0.50597,0.41542 0.81599,0.53893c0.31002,0.1235 0.62881,0.18525 0.95638,0.18525c0.33927,0 0.6639,-0.05894 0.97392,-0.17683c0.31002,-0.11789 0.58494,-0.29472 0.82477,-0.5305c0.23983,-0.23578 0.42993,-0.52489 0.57032,-0.86733c0.14038,-0.34245 0.21058,-0.7326 0.21058,-1.17048zM78.84843,14.96c0,-0.7298 0.11395,-1.38941 0.34185,-1.97886c0.2279,-0.58945 0.54345,-1.09188 0.94666,-1.50731c0.40321,-0.41542 0.87363,-0.7354 1.41124,-0.95995c0.53762,-0.22456 1.11614,-0.33683 1.73557,-0.33683c0.78305,0 1.44045,0.14876 1.97222,0.4463c0.53177,0.29753 0.94375,0.64277 1.23593,1.03574v-1.33047h2.47186v9.33012h-2.47186v-1.36415c-0.29218,0.40419 -0.71,0.75785 -1.25346,1.061c-0.54346,0.30315 -1.20086,0.45472 -1.97222,0.45472c-0.60774,0 -1.18041,-0.11508 -1.71803,-0.34525c-0.53761,-0.23017 -1.00802,-0.55857 -1.41124,-0.98522c-0.40321,-0.42665 -0.71876,-0.9375 -0.94666,-1.53256c-0.2279,-0.59507 -0.34185,-1.25749 -0.34185,-1.98728zM77.98857,16.9978c0,0.4042 -0.08774,0.77751 -0.26323,1.11995c-0.17548,0.34244 -0.42993,0.63997 -0.76334,0.89259c-0.33342,0.25262 -0.7341,0.44911 -1.20206,0.58945c-0.46795,0.14035 -1.00024,0.21052 -1.59688,0.21052c-0.60834,0 -1.16696,-0.0814 -1.67586,-0.2442c-0.5089,-0.1628 -0.95052,-0.38174 -1.32489,-0.65682c-0.37436,-0.27507 -0.66975,-0.60067 -0.88618,-0.97679c-0.21643,-0.37613 -0.33634,-0.78312 -0.35974,-1.221h2.4743c0.04679,0.35928 0.22812,0.65681 0.54399,0.89259c0.31587,0.23578 0.71948,0.35367 1.21083,0.35367c0.49135,0 0.86278,-0.09263 1.11431,-0.27788c0.25153,-0.18526 0.37729,-0.41262 0.37729,-0.68208c0,-0.28069 -0.13454,-0.49401 -0.40361,-0.63997c-0.26908,-0.14596 -0.60834,-0.27227 -1.0178,-0.37893c-0.40946,-0.10666 -0.85108,-0.21894 -1.32489,-0.33683c-0.4738,-0.11789 -0.91543,-0.27788 -1.32489,-0.47998c-0.40946,-0.20209 -0.74872,-0.47436 -1.01779,-0.8168c-0.26908,-0.34245 -0.40361,-0.79997 -0.40361,-1.37257c0,-0.39297 0.08774,-0.75786 0.26322,-1.09469c0.17548,-0.33683 0.427,-0.63155 0.75457,-0.88417c0.32757,-0.25263 0.73118,-0.45191 1.21083,-0.59787c0.47965,-0.14596 1.01779,-0.21894 1.61443,-0.21894c1.18159,0 2.11164,0.28069 2.79017,0.84207c0.67853,0.56138 1.05289,1.30801 1.12308,2.2399h-2.35146c-0.03509,-0.35929 -0.19302,-0.6512 -0.4738,-0.87575c-0.28077,-0.22455 -0.66683,-0.33683 -1.15818,-0.33683c-0.45625,0 -0.80137,0.0814 -1.03534,0.2442c-0.23398,0.1628 -0.35097,0.37893 -0.35097,0.64839c0,0.28069 0.13454,0.49682 0.40361,0.6484c0.26908,0.15157 0.60249,0.28349 1.00025,0.39577c0.39776,0.11227 0.83061,0.22455 1.29857,0.33682c0.46795,0.11228 0.90373,0.27227 1.30734,0.47998c0.40361,0.20771 0.74287,0.48279 1.01779,0.82523c0.27493,0.34244 0.41824,0.79996 0.42994,1.37257zM66.09088,14.99368c0,-0.43788 -0.0702,-0.82803 -0.21058,-1.17047c-0.14039,-0.34245 -0.33049,-0.63155 -0.57032,-0.86733c-0.23983,-0.23578 -0.51475,-0.41262 -0.82477,-0.53051c-0.31002,-0.11789 -0.63465,-0.17683 -0.97392,-0.17683c-0.32757,0 -0.64636,0.05894 -0.95638,0.17683c-0.31002,0.11789 -0.58201,0.28911 -0.81599,0.51367c-0.23398,0.22455 -0.42408,0.50804 -0.57032,0.85048c-0.14623,0.34245 -0.21935,0.7326 -0.21935,1.17048c0,0.43788 0.07312,0.83084 0.21935,1.17889c0.14624,0.34806 0.33634,0.63997 0.57032,0.87575c0.23398,0.23578 0.50597,0.41542 0.81599,0.53893c0.31002,0.1235 0.62881,0.18525 0.95638,0.18525c0.33927,0 0.6639,-0.05894 0.97392,-0.17683c0.31002,-0.11789 0.58494,-0.29472 0.82477,-0.5305c0.23983,-0.23578 0.42993,-0.52489 0.57032,-0.86733c0.14038,-0.34245 0.21058,-0.7326 0.21058,-1.17048zM58.43986,14.96c0,-0.7298 0.11406,-1.38941 0.34219,-1.97886c0.22813,-0.58945 0.54399,-1.09188 0.9476,-1.5073c0.40361,-0.41543 0.87741,-0.73541 1.42141,-0.95996c0.544,-0.22455 1.12601,-0.33683 1.74604,-0.33683c0.64344,0 1.24885,0.13192 1.81624,0.39577c0.5674,0.26385 1.02072,0.61471 1.35999,1.05259v-4.42928h2.49185v12.46261h-2.49185v-1.381c-0.29247,0.42665 -0.70485,0.78874 -1.23715,1.08627c-0.5323,0.29753 -1.1845,0.4463 -1.95662,0.4463c-0.62004,0 -1.19913,-0.11508 -1.73728,-0.34525c-0.53814,-0.23017 -1.00902,-0.55857 -1.41263,-0.98522c-0.40361,-0.42665 -0.71947,-0.9375 -0.9476,-1.53256c-0.22813,-0.59507 -0.34219,-1.25749 -0.34219,-1.98728zM57.56245,16.72834c-0.12869,0.42665 -0.32464,0.82803 -0.58787,1.20416c-0.26322,0.37612 -0.58786,0.70172 -0.97392,0.97679c-0.38607,0.27508 -0.83062,0.49402 -1.33367,0.65682c-0.50305,0.1628 -1.05289,0.2442 -1.64953,0.2442c-0.70193,0 -1.35121,-0.11228 -1.94785,-0.33683c-0.59664,-0.22455 -1.11138,-0.54734 -1.54424,-0.96838c-0.43286,-0.42103 -0.77212,-0.92908 -1.0178,-1.52414c-0.24567,-0.59507 -0.36851,-1.25749 -0.36851,-1.98728c0,-0.74102 0.11991,-1.40625 0.35974,-1.9957c0.23982,-0.58945 0.57324,-1.09469 1.00025,-1.51572c0.427,-0.42104 0.94175,-0.74383 1.54424,-0.96838c0.60249,-0.22456 1.26054,-0.33683 1.97417,-0.33683c0.70193,0 1.34536,0.10947 1.9303,0.32841c0.58495,0.21894 1.09092,0.5305 1.51792,0.93469c0.42701,0.4042 0.7575,0.88978 0.99148,1.45678c0.23398,0.56699 0.35096,1.19854 0.35096,1.89465c0,0.15719 -0.00585,0.30876 -0.01755,0.45472c-0.01169,0.14596 -0.02924,0.29753 -0.05264,0.45472h-7.10702c0.05849,0.69611 0.30709,1.22941 0.74579,1.59993c0.43871,0.37051 0.96808,0.55576 1.58812,0.55576c0.52645,0 0.94175,-0.10947 1.24592,-0.32841c0.30417,-0.21894 0.53814,-0.48559 0.70193,-0.79996zM52.94231,12.11383c-0.59536,0 -1.10315,0.1749 -1.5234,0.52469c-0.42025,0.3498 -0.67706,0.84628 -0.77045,1.48945h4.60519c-0.01167,-0.30466 -0.0788,-0.58111 -0.20137,-0.82935c-0.12256,-0.24825 -0.28891,-0.45982 -0.49904,-0.63472c-0.21012,-0.17489 -0.45235,-0.31029 -0.72667,-0.40621c-0.27432,-0.09591 -0.56909,-0.14387 -0.88426,-0.14387zM47.26165,16.72834c-0.12869,0.42665 -0.32464,0.82803 -0.58787,1.20416c-0.26322,0.37612 -0.58786,0.70172 -0.97392,0.97679c-0.38607,0.27508 -0.83062,0.49402 -1.33367,0.65682c-0.50305,0.1628 -1.05289,0.2442 -1.64953,0.2442c-0.70193,0 -1.35121,-0.11228 -1.94785,-0.33683c-0.59664,-0.22455 -1.11138,-0.54734 -1.54424,-0.96838c-0.43286,-0.42103 -0.77212,-0.92908 -1.0178,-1.52414c-0.24567,-0.59507 -0.36851,-1.25749 -0.36851,-1.98728c0,-0.74102 0.11991,-1.40625 0.35974,-1.9957c0.23982,-0.58945 0.57324,-1.09469 1.00025,-1.51572c0.427,-0.42104 0.94175,-0.74383 1.54424,-0.96838c0.60249,-0.22456 1.26054,-0.33683 1.97417,-0.33683c0.70193,0 1.34536,0.10947 1.9303,0.32841c0.58495,0.21894 1.09092,0.5305 1.51792,0.93469c0.42701,0.4042 0.7575,0.88978 0.99148,1.45678c0.23398,0.56699 0.35096,1.19854 0.35096,1.89465c0,0.15719 -0.00585,0.30876 -0.01755,0.45472c-0.01169,0.14596 -0.02924,0.29753 -0.05264,0.45472h-7.10702c0.05849,0.69611 0.30709,1.22941 0.74579,1.59993c0.43871,0.37051 0.96808,0.55576 1.58812,0.55576c0.52645,0 0.94175,-0.10947 1.24592,-0.32841c0.30417,-0.21894 0.53814,-0.48559 0.70193,-0.79996zM42.64151,12.11383c-0.59536,0 -1.10315,0.1749 -1.5234,0.52469c-0.42025,0.3498 -0.67706,0.84628 -0.77045,1.48945h4.60519c-0.01167,-0.30466 -0.0788,-0.58111 -0.20137,-0.82935c-0.12256,-0.24825 -0.28891,-0.45982 -0.49904,-0.63472c-0.21012,-0.17489 -0.45235,-0.31029 -0.72667,-0.40621c-0.27432,-0.09591 -0.56909,-0.14387 -0.88426,-0.14387zM33.20554,12.26538h-1.10554v-1.93676h1.10554v-0.47155c0,-1.15645 0.33633,-2.00132 1.00902,-2.53463c0.67268,-0.53331 1.69924,-0.78312 3.07971,-0.74944v1.98728c-0.59664,-0.02245 -1.01195,0.07017 -1.24592,0.27788c-0.23398,0.20772 -0.35097,0.57541 -0.35097,1.10311v0.38735h1.70218v1.93676h-1.70218v7.39336h-2.49184z"
         fill="#091017"
         fill-opacity="1"
         id="path19"
         style="stroke:none;fill:#ffffff;fill-opacity:1;stroke-opacity:0" />
      <path
         style="fill:#ffffff;fill-opacity:1;stroke:none;stroke-opacity:0"
         d="m 61.483196,19.48417 c -2.201437,-0.78051 -3.385752,-3.270703 -2.772092,-5.828724 0.294561,-1.227868 1.193268,-2.370074 2.315137,-2.942409 1.184763,-0.604421 3.053686,-0.473989 4.214379,0.294121 l 0.841393,0.556808 0,-2.1490151 0,-2.1490148 1.226352,0 1.226351,0 0,6.1317569 0,6.131757 -1.226351,0 -1.226352,0 0,-0.648804 0,-0.648804 -0.462671,0.434656 c -1.023739,0.961754 -2.761059,1.305204 -4.136146,0.817672 z m 3.038126,-1.871675 c 1.081264,-0.451781 1.560691,-1.22731 1.560691,-2.524597 0,-1.335036 -0.433334,-2.171463 -1.350456,-2.606666 -0.842135,-0.399619 -1.582127,-0.392322 -2.460006,0.02426 -0.898845,0.42653 -1.340266,1.286999 -1.33015,2.592889 0.0093,1.205041 0.434115,1.906616 1.476088,2.437931 0.845985,0.431379 1.221212,0.444966 2.103833,0.07618 z"
         id="path3351"
         inkscape:connector-curvature="0" />
      <path
         style="fill:#ffffff;fill-opacity:1;stroke:none;stroke-opacity:0"
         d="m 72.504296,19.454412 c -1.268114,-0.453349 -2.431277,-1.564581 -2.435294,-2.326567 -0.0021,-0.400389 2.225253,-0.345501 2.380343,0.05866 0.146803,0.382562 1.125946,0.912204 1.686381,0.912204 1.09893,0 1.959843,-0.91923 1.443546,-1.54133 -0.134821,-0.162449 -1.147605,-0.573856 -2.250631,-0.914238 -1.56172,-0.481928 -2.121797,-0.757082 -2.531048,-1.24345 -1.101881,-1.309512 -0.355775,-3.244957 1.485126,-3.852509 1.14779,-0.378805 3.353681,-0.205936 4.055156,0.317791 0.654167,0.488405 1.207403,1.231319 1.391406,1.868449 0.126421,0.43775 0.07805,0.459882 -1.005116,0.459882 -0.625861,0 -1.137929,-0.09198 -1.137929,-0.204392 0,-0.483389 -0.841126,-1.021959 -1.596069,-1.021959 -0.993006,0 -1.530161,0.383439 -1.438122,1.02658 0.08398,0.586819 0.594674,0.871489 2.564245,1.429353 1.950789,0.552545 2.718257,1.283188 2.718257,2.58783 0,0.77318 -0.110284,1.034764 -0.673864,1.598344 -1.060062,1.060063 -3.046858,1.42076 -4.656387,0.845355 z"
         id="path4153"
         inkscape:connector-curvature="0" />
      <path
         style="fill:#ffffff;fill-opacity:1;stroke:none;stroke-opacity:0"
         d="m 81.615797,19.346342 c -3.15995,-1.463008 -3.597179,-6.287564 -0.751096,-8.287867 0.68012,-0.478006 1.134039,-0.622968 2.154085,-0.687919 1.367132,-0.08705 2.2175,0.194919 3.144731,1.042755 l 0.459882,0.420503 0,-0.751 0,-0.751 1.124155,0 1.124155,0 0,4.598818 0,4.598818 -1.124155,0 c -1.1128,0 -1.124155,-0.0062 -1.124155,-0.613176 0,-0.686008 -0.220272,-0.78049 -0.639247,-0.274196 -0.438594,0.530002 -1.833958,1.082786 -2.73322,1.082786 -0.449662,0 -1.185473,-0.170335 -1.635135,-0.378522 z m 3.716621,-1.968827 c 1.641934,-1.075836 1.656606,-3.797894 0.02583,-4.79215 -1.866804,-1.138159 -4.04904,0.180904 -4.04904,2.447463 0,2.226393 2.224853,3.523016 4.023209,2.344687 z"
         id="path4155"
         inkscape:connector-curvature="0" />
      <path
         style="fill:#ffffff;fill-opacity:1;stroke:none;stroke-opacity:0"
         d="m 93.297854,19.435705 c -0.432216,-0.154106 -1.018922,-0.49498 -1.303791,-0.757498 -0.935172,-0.861798 -1.078435,-1.535254 -1.078435,-5.069557 l 0,-3.276836 1.124156,0 1.124155,0 0,3.062654 0,3.062654 0.59641,0.667498 c 0.524655,0.587191 0.720821,0.667499 1.63049,0.667499 0.857235,0 1.130999,-0.09682 1.600803,-0.566158 0.563794,-0.563232 0.567061,-0.582512 0.632209,-3.730152 l 0.06548,-3.163995 1.109768,0 1.109768,0 0,4.598818 0,4.598818 -1.124156,0 c -1.062838,0 -1.124155,-0.02787 -1.124155,-0.51098 0,-0.594825 -0.13748,-0.634891 -0.63465,-0.184958 -0.451578,0.408672 -1.756797,0.882387 -2.431229,0.882387 -0.281038,0 -0.864611,-0.126087 -1.296828,-0.280194 z"
         id="path4157"
         inkscape:connector-curvature="0" />
      <path
         style="fill:#ffffff;fill-opacity:1;stroke:none;stroke-opacity:0"
         d="m 104.30938,19.407968 c -3.02719,-1.108205 -3.90968,-5.479148 -1.57716,-7.81166 1.53176,-1.531763 4.64191,-1.7262962 6.37429,-0.398699 0.4859,0.372371 1.42746,1.720331 1.42969,2.04679 5.8e-4,0.08431 -0.51391,0.153294 -1.1433,0.153294 -1.00795,0 -1.21262,-0.07309 -1.71714,-0.613176 -0.4876,-0.52198 -0.72364,-0.613176 -1.58707,-0.613176 -0.82532,0 -1.11544,0.101159 -1.55727,0.542992 -0.67802,0.678018 -0.81036,1.1951 -0.69919,2.731928 0.1028,1.42129 0.64399,2.161719 1.72876,2.365223 0.92743,0.173987 1.63314,-0.03467 2.15769,-0.637956 0.37382,-0.429932 0.61816,-0.505565 1.63323,-0.505565 l 1.19365,0 -0.41105,0.805727 c -0.96737,1.896189 -3.56918,2.760142 -5.82513,1.934278 z"
         id="path4159"
         inkscape:connector-curvature="0" />
      <path
         style="fill:#ffffff;fill-opacity:1;stroke:none;stroke-opacity:0"
         d="m 114.82816,19.54287 c -2.19519,-0.667747 -3.34066,-2.218409 -3.34852,-4.53302 -0.009,-2.710999 1.61115,-4.471784 4.27101,-4.641151 2.95607,-0.188229 5.01941,1.494294 5.0835,4.14527 l 0.0249,1.029839 -3.52576,0.05592 c -3.81573,0.06052 -3.79351,0.05256 -3.28158,1.176138 0.53443,1.172943 2.53,1.509489 3.60199,0.607465 0.4897,-0.412055 0.82908,-0.51098 1.75301,-0.51098 0.74619,0 1.14575,0.08438 1.14575,0.241967 0,0.465508 -1.93926,2.114675 -2.78441,2.367888 -0.92381,0.276781 -2.14646,0.302008 -2.93988,0.06066 z m 3.68037,-5.708829 c 0,-0.598739 -0.75369,-1.405525 -1.56234,-1.672404 -1.33876,-0.441832 -3.13867,0.517226 -3.13867,1.672404 0,0.349932 0.19291,0.381219 2.35051,0.381219 2.15759,0 2.3505,-0.03129 2.3505,-0.381219 z"
         id="path4161"
         inkscape:connector-curvature="0" />
      <path
         style="fill:#ffffff;fill-opacity:1;stroke:none;stroke-opacity:0"
         d="m 51.412492,19.474855 c -1.974805,-0.645552 -3.09699,-2.292884 -3.106503,-4.560251 -0.0082,-1.958953 0.710922,-3.199399 2.330984,-4.020712 2.969423,-1.5053904 6.371763,-0.04056 6.937329,2.986769 0.340778,1.824094 0.456362,1.765343 -3.473053,1.765343 -3.351169,0 -3.450823,0.01219 -3.450823,0.42222 0,1.602094 2.492333,2.45429 3.846171,1.315111 0.49042,-0.412661 0.82873,-0.51098 1.758262,-0.51098 l 1.150997,0 -0.292417,0.562078 c -0.911694,1.75244 -3.618398,2.721195 -5.700947,2.040422 z m 3.938183,-5.515084 c -0.0018,-0.603833 -0.81896,-1.553047 -1.542565,-1.791858 -1.357418,-0.447989 -3.157684,0.501908 -3.157684,1.666128 0,0.349932 0.192912,0.381219 2.350506,0.381219 1.744552,0 2.35031,-0.06586 2.349743,-0.255489 z"
         id="path4163"
         inkscape:connector-curvature="0" />
      <path
         style="fill:#ffffff;fill-opacity:1;stroke:none;stroke-opacity:0"
         d="m 40.984112,19.433034 c -1.950531,-0.74739 -3.00933,-2.331775 -3.001495,-4.491435 0.01032,-2.844799 1.833182,-4.615461 4.741058,-4.605296 2.736687,0.0096 4.65648,1.816763 4.65648,4.383372 l 0,0.926329 -3.599015,0 -3.599016,0 0.131649,0.562077 c 0.07241,0.309143 0.405746,0.815013 0.740754,1.124156 0.840088,0.775227 2.330702,0.799498 3.138239,0.0511 0.447856,-0.41506 0.760404,-0.51098 1.664981,-0.51098 1.275213,0 1.354868,0.156108 0.590804,1.157847 -1.067434,1.399478 -3.705636,2.076758 -5.464439,1.402832 z m 3.992937,-5.730994 c -0.127636,-0.667684 -1.10497,-1.4801 -1.977465,-1.643781 -0.976208,-0.183137 -2.131497,0.4038 -2.491703,1.265894 -0.154793,0.370472 -0.281442,0.722528 -0.281442,0.782347 0,0.05982 1.090962,0.10876 2.424359,0.10876 l 2.42436,0 -0.09811,-0.51322 z"
         id="path4165"
         inkscape:connector-curvature="0" />
      <path
         style="fill:#ffffff;fill-opacity:1;stroke:none;stroke-opacity:0"
         d="m 33.277115,15.850396 0,-3.679055 -0.51098,0 c -0.469344,0 -0.51098,-0.07494 -0.51098,-0.919763 0,-0.831361 0.04656,-0.919764 0.484398,-0.919764 0.422251,0 0.497657,-0.117625 0.587737,-0.9168141 0.183535,-1.6283202 1.058451,-2.4374716 2.909985,-2.6912526 l 0.923286,-0.1265504 0,0.9219963 c 0,0.8620475 -0.04009,0.9300139 -0.616549,1.0453059 -0.412151,0.08243 -0.683189,0.29859 -0.817567,0.6520306 -0.368222,0.9684963 -0.273623,1.1152843 0.718744,1.1152843 l 0.919764,0 0,0.919764 0,0.919763 -0.919764,0 -0.919763,0 0,3.679055 0,3.679054 -1.124156,0 -1.124155,0 0,-3.679054 z"
         id="path4167"
         inkscape:connector-curvature="0" />
    </g>
  </g>
</svg>
