<?xml version="1.0" encoding="UTF-8"?>
<svg id="SVGDoc" width="121" height="26" xmlns="http://www.w3.org/2000/svg" version="1.1" xmlns:xlink="http://www.w3.org/1999/xlink" xmlns:avocode="https://avocode.com/" viewBox="0 0 121 26"><defs></defs><desc>Generated with Avocode.</desc><g><g><title>Mask</title><path d="M14.09594,0.71v0v10.80059c0,1.26282 1.0456,2.28653 2.3354,2.28653c1.28981,0 2.3354,-1.02371 2.3354,-2.28653v-9.22509v0h0.00078c0.00907,-0.3265 0.09745,-0.63358 0.2469,-0.90337c3.94506,1.4748 6.74713,5.21473 6.74713,9.59542v4.68736c0,5.67061 -4.69519,10.26754 -10.487,10.26754h-4.78755c-5.79181,0 -10.487,-4.59693 -10.487,-10.26754v-4.68736c0,-4.34607 2.75796,-8.06147 6.65381,-9.56003c0.34899,0.35146 0.56866,0.82788 0.58325,1.35469h0.00078v0v4.21738c0,1.26281 1.04559,2.28653 2.3354,2.28653c1.28981,0 2.3354,-1.02372 2.3354,-2.28653v-6.27959v0z" fill="#5769ff" fill-opacity="1"></path></g><g><title>feedsauce</title><path d="M120.75355,16.72834c-0.12869,0.42665 -0.32464,0.82803 -0.58787,1.20416c-0.26322,0.37612 -0.58786,0.70172 -0.97392,0.97679c-0.38607,0.27508 -0.83062,0.49402 -1.33367,0.65682c-0.50305,0.1628 -1.05289,0.2442 -1.64953,0.2442c-0.70193,0 -1.35121,-0.11228 -1.94785,-0.33683c-0.59664,-0.22455 -1.11138,-0.54734 -1.54424,-0.96838c-0.43286,-0.42103 -0.77212,-0.92908 -1.0178,-1.52414c-0.24567,-0.59507 -0.36851,-1.25749 -0.36851,-1.98728c0,-0.74102 0.11991,-1.40625 0.35974,-1.9957c0.23982,-0.58945 0.57324,-1.09469 1.00025,-1.51572c0.427,-0.42104 0.94175,-0.74383 1.54424,-0.96838c0.60249,-0.22456 1.26054,-0.33683 1.97417,-0.33683c0.70193,0 1.34536,0.10947 1.9303,0.32841c0.58495,0.21894 1.09092,0.5305 1.51792,0.93469c0.42701,0.4042 0.7575,0.88978 0.99148,1.45678c0.23398,0.56699 0.35096,1.19854 0.35096,1.89465c0,0.15719 -0.00585,0.30876 -0.01755,0.45472c-0.01169,0.14596 -0.02924,0.29753 -0.05264,0.45472h-7.10702c0.05849,0.69611 0.30709,1.22941 0.74579,1.59993c0.43871,0.37051 0.96808,0.55576 1.58812,0.55576c0.52645,0 0.94175,-0.10947 1.24592,-0.32841c0.30417,-0.21894 0.53814,-0.48559 0.70193,-0.79996zM116.13341,12.11383c-0.59536,0 -1.10315,0.1749 -1.5234,0.52469c-0.42025,0.3498 -0.67706,0.84628 -0.77045,1.48945h4.60519c-0.01167,-0.30466 -0.0788,-0.58111 -0.20137,-0.82935c-0.12256,-0.24825 -0.28891,-0.45982 -0.49904,-0.63472c-0.21012,-0.17489 -0.45235,-0.31029 -0.72667,-0.40621c-0.27432,-0.09591 -0.56909,-0.14387 -0.88426,-0.14387zM101.29259,14.99368c0,-0.7298 0.11991,-1.39222 0.35974,-1.98728c0.23982,-0.59507 0.57031,-1.10311 0.99147,-1.52414c0.42116,-0.42104 0.92713,-0.74383 1.51792,-0.96838c0.59079,-0.22456 1.23715,-0.33683 1.93908,-0.33683c1.21668,0 2.21692,0.2863 3.00074,0.85891c0.78383,0.57261 1.31027,1.3866 1.57934,2.442h-2.64978c-0.14038,-0.39297 -0.37143,-0.70734 -0.69315,-0.94312c-0.32172,-0.23578 -0.73995,-0.35367 -1.2547,-0.35367c-0.69023,0 -1.243,0.24139 -1.6583,0.72418c-0.41531,0.48279 -0.62297,1.17889 -0.62297,2.08833c0,0.90944 0.20766,1.60273 0.62297,2.07991c0.4153,0.47717 0.96807,0.71575 1.6583,0.71575c0.9944,0 1.64368,-0.42664 1.94785,-1.27994h2.64978c-0.26907,0.99926 -0.79551,1.79922 -1.57934,2.39989c-0.78382,0.60068 -1.78406,0.90102 -3.00074,0.90102c-0.70193,0 -1.34829,-0.11228 -1.93908,-0.33683c-0.59079,-0.22455 -1.09676,-0.54734 -1.51792,-0.96838c-0.42116,-0.42103 -0.75165,-0.92908 -0.99147,-1.52414c-0.23983,-0.59507 -0.35974,-1.25749 -0.35974,-1.98728zM100.02911,19.65873h-2.47429v-1.17889c-0.30417,0.39297 -0.7107,0.70733 -1.2196,0.94311c-0.5089,0.23578 -1.06752,0.35367 -1.67586,0.35367c-0.56154,0 -1.08213,-0.08701 -1.56179,-0.26104c-0.47965,-0.17403 -0.89203,-0.42945 -1.23715,-0.76628c-0.34511,-0.33683 -0.61418,-0.75225 -0.80721,-1.24626c-0.19304,-0.49402 -0.28955,-1.061 -0.28955,-1.70098v-5.47344h2.45675v5.13661c0,0.75226 0.19595,1.32486 0.58786,1.71782c0.39192,0.39297 0.91543,0.58945 1.57057,0.58945c0.66683,0 1.1962,-0.19648 1.58811,-0.58945c0.39191,-0.39296 0.58787,-0.96556 0.58787,-1.71782v-5.13661h2.47429zM86.49945,14.99368c0,-0.43788 -0.0702,-0.82803 -0.21058,-1.17047c-0.14039,-0.34245 -0.33049,-0.63155 -0.57032,-0.86733c-0.23983,-0.23578 -0.51475,-0.41262 -0.82477,-0.53051c-0.31002,-0.11789 -0.63465,-0.17683 -0.97392,-0.17683c-0.32757,0 -0.64636,0.05894 -0.95638,0.17683c-0.31002,0.11789 -0.58201,0.28911 -0.81599,0.51367c-0.23398,0.22455 -0.42408,0.50804 -0.57032,0.85048c-0.14623,0.34245 -0.21935,0.7326 -0.21935,1.17048c0,0.43788 0.07312,0.83084 0.21935,1.17889c0.14624,0.34806 0.33634,0.63997 0.57032,0.87575c0.23398,0.23578 0.50597,0.41542 0.81599,0.53893c0.31002,0.1235 0.62881,0.18525 0.95638,0.18525c0.33927,0 0.6639,-0.05894 0.97392,-0.17683c0.31002,-0.11789 0.58494,-0.29472 0.82477,-0.5305c0.23983,-0.23578 0.42993,-0.52489 0.57032,-0.86733c0.14038,-0.34245 0.21058,-0.7326 0.21058,-1.17048zM78.84843,14.96c0,-0.7298 0.11395,-1.38941 0.34185,-1.97886c0.2279,-0.58945 0.54345,-1.09188 0.94666,-1.50731c0.40321,-0.41542 0.87363,-0.7354 1.41124,-0.95995c0.53762,-0.22456 1.11614,-0.33683 1.73557,-0.33683c0.78305,0 1.44045,0.14876 1.97222,0.4463c0.53177,0.29753 0.94375,0.64277 1.23593,1.03574v-1.33047h2.47186v9.33012h-2.47186v-1.36415c-0.29218,0.40419 -0.71,0.75785 -1.25346,1.061c-0.54346,0.30315 -1.20086,0.45472 -1.97222,0.45472c-0.60774,0 -1.18041,-0.11508 -1.71803,-0.34525c-0.53761,-0.23017 -1.00802,-0.55857 -1.41124,-0.98522c-0.40321,-0.42665 -0.71876,-0.9375 -0.94666,-1.53256c-0.2279,-0.59507 -0.34185,-1.25749 -0.34185,-1.98728zM77.98857,16.9978c0,0.4042 -0.08774,0.77751 -0.26323,1.11995c-0.17548,0.34244 -0.42993,0.63997 -0.76334,0.89259c-0.33342,0.25262 -0.7341,0.44911 -1.20206,0.58945c-0.46795,0.14035 -1.00024,0.21052 -1.59688,0.21052c-0.60834,0 -1.16696,-0.0814 -1.67586,-0.2442c-0.5089,-0.1628 -0.95052,-0.38174 -1.32489,-0.65682c-0.37436,-0.27507 -0.66975,-0.60067 -0.88618,-0.97679c-0.21643,-0.37613 -0.33634,-0.78312 -0.35974,-1.221h2.4743c0.04679,0.35928 0.22812,0.65681 0.54399,0.89259c0.31587,0.23578 0.71948,0.35367 1.21083,0.35367c0.49135,0 0.86278,-0.09263 1.11431,-0.27788c0.25153,-0.18526 0.37729,-0.41262 0.37729,-0.68208c0,-0.28069 -0.13454,-0.49401 -0.40361,-0.63997c-0.26908,-0.14596 -0.60834,-0.27227 -1.0178,-0.37893c-0.40946,-0.10666 -0.85108,-0.21894 -1.32489,-0.33683c-0.4738,-0.11789 -0.91543,-0.27788 -1.32489,-0.47998c-0.40946,-0.20209 -0.74872,-0.47436 -1.01779,-0.8168c-0.26908,-0.34245 -0.40361,-0.79997 -0.40361,-1.37257c0,-0.39297 0.08774,-0.75786 0.26322,-1.09469c0.17548,-0.33683 0.427,-0.63155 0.75457,-0.88417c0.32757,-0.25263 0.73118,-0.45191 1.21083,-0.59787c0.47965,-0.14596 1.01779,-0.21894 1.61443,-0.21894c1.18159,0 2.11164,0.28069 2.79017,0.84207c0.67853,0.56138 1.05289,1.30801 1.12308,2.2399h-2.35146c-0.03509,-0.35929 -0.19302,-0.6512 -0.4738,-0.87575c-0.28077,-0.22455 -0.66683,-0.33683 -1.15818,-0.33683c-0.45625,0 -0.80137,0.0814 -1.03534,0.2442c-0.23398,0.1628 -0.35097,0.37893 -0.35097,0.64839c0,0.28069 0.13454,0.49682 0.40361,0.6484c0.26908,0.15157 0.60249,0.28349 1.00025,0.39577c0.39776,0.11227 0.83061,0.22455 1.29857,0.33682c0.46795,0.11228 0.90373,0.27227 1.30734,0.47998c0.40361,0.20771 0.74287,0.48279 1.01779,0.82523c0.27493,0.34244 0.41824,0.79996 0.42994,1.37257zM66.09088,14.99368c0,-0.43788 -0.0702,-0.82803 -0.21058,-1.17047c-0.14039,-0.34245 -0.33049,-0.63155 -0.57032,-0.86733c-0.23983,-0.23578 -0.51475,-0.41262 -0.82477,-0.53051c-0.31002,-0.11789 -0.63465,-0.17683 -0.97392,-0.17683c-0.32757,0 -0.64636,0.05894 -0.95638,0.17683c-0.31002,0.11789 -0.58201,0.28911 -0.81599,0.51367c-0.23398,0.22455 -0.42408,0.50804 -0.57032,0.85048c-0.14623,0.34245 -0.21935,0.7326 -0.21935,1.17048c0,0.43788 0.07312,0.83084 0.21935,1.17889c0.14624,0.34806 0.33634,0.63997 0.57032,0.87575c0.23398,0.23578 0.50597,0.41542 0.81599,0.53893c0.31002,0.1235 0.62881,0.18525 0.95638,0.18525c0.33927,0 0.6639,-0.05894 0.97392,-0.17683c0.31002,-0.11789 0.58494,-0.29472 0.82477,-0.5305c0.23983,-0.23578 0.42993,-0.52489 0.57032,-0.86733c0.14038,-0.34245 0.21058,-0.7326 0.21058,-1.17048zM58.43986,14.96c0,-0.7298 0.11406,-1.38941 0.34219,-1.97886c0.22813,-0.58945 0.54399,-1.09188 0.9476,-1.5073c0.40361,-0.41543 0.87741,-0.73541 1.42141,-0.95996c0.544,-0.22455 1.12601,-0.33683 1.74604,-0.33683c0.64344,0 1.24885,0.13192 1.81624,0.39577c0.5674,0.26385 1.02072,0.61471 1.35999,1.05259v-4.42928h2.49185v12.46261h-2.49185v-1.381c-0.29247,0.42665 -0.70485,0.78874 -1.23715,1.08627c-0.5323,0.29753 -1.1845,0.4463 -1.95662,0.4463c-0.62004,0 -1.19913,-0.11508 -1.73728,-0.34525c-0.53814,-0.23017 -1.00902,-0.55857 -1.41263,-0.98522c-0.40361,-0.42665 -0.71947,-0.9375 -0.9476,-1.53256c-0.22813,-0.59507 -0.34219,-1.25749 -0.34219,-1.98728zM57.56245,16.72834c-0.12869,0.42665 -0.32464,0.82803 -0.58787,1.20416c-0.26322,0.37612 -0.58786,0.70172 -0.97392,0.97679c-0.38607,0.27508 -0.83062,0.49402 -1.33367,0.65682c-0.50305,0.1628 -1.05289,0.2442 -1.64953,0.2442c-0.70193,0 -1.35121,-0.11228 -1.94785,-0.33683c-0.59664,-0.22455 -1.11138,-0.54734 -1.54424,-0.96838c-0.43286,-0.42103 -0.77212,-0.92908 -1.0178,-1.52414c-0.24567,-0.59507 -0.36851,-1.25749 -0.36851,-1.98728c0,-0.74102 0.11991,-1.40625 0.35974,-1.9957c0.23982,-0.58945 0.57324,-1.09469 1.00025,-1.51572c0.427,-0.42104 0.94175,-0.74383 1.54424,-0.96838c0.60249,-0.22456 1.26054,-0.33683 1.97417,-0.33683c0.70193,0 1.34536,0.10947 1.9303,0.32841c0.58495,0.21894 1.09092,0.5305 1.51792,0.93469c0.42701,0.4042 0.7575,0.88978 0.99148,1.45678c0.23398,0.56699 0.35096,1.19854 0.35096,1.89465c0,0.15719 -0.00585,0.30876 -0.01755,0.45472c-0.01169,0.14596 -0.02924,0.29753 -0.05264,0.45472h-7.10702c0.05849,0.69611 0.30709,1.22941 0.74579,1.59993c0.43871,0.37051 0.96808,0.55576 1.58812,0.55576c0.52645,0 0.94175,-0.10947 1.24592,-0.32841c0.30417,-0.21894 0.53814,-0.48559 0.70193,-0.79996zM52.94231,12.11383c-0.59536,0 -1.10315,0.1749 -1.5234,0.52469c-0.42025,0.3498 -0.67706,0.84628 -0.77045,1.48945h4.60519c-0.01167,-0.30466 -0.0788,-0.58111 -0.20137,-0.82935c-0.12256,-0.24825 -0.28891,-0.45982 -0.49904,-0.63472c-0.21012,-0.17489 -0.45235,-0.31029 -0.72667,-0.40621c-0.27432,-0.09591 -0.56909,-0.14387 -0.88426,-0.14387zM47.26165,16.72834c-0.12869,0.42665 -0.32464,0.82803 -0.58787,1.20416c-0.26322,0.37612 -0.58786,0.70172 -0.97392,0.97679c-0.38607,0.27508 -0.83062,0.49402 -1.33367,0.65682c-0.50305,0.1628 -1.05289,0.2442 -1.64953,0.2442c-0.70193,0 -1.35121,-0.11228 -1.94785,-0.33683c-0.59664,-0.22455 -1.11138,-0.54734 -1.54424,-0.96838c-0.43286,-0.42103 -0.77212,-0.92908 -1.0178,-1.52414c-0.24567,-0.59507 -0.36851,-1.25749 -0.36851,-1.98728c0,-0.74102 0.11991,-1.40625 0.35974,-1.9957c0.23982,-0.58945 0.57324,-1.09469 1.00025,-1.51572c0.427,-0.42104 0.94175,-0.74383 1.54424,-0.96838c0.60249,-0.22456 1.26054,-0.33683 1.97417,-0.33683c0.70193,0 1.34536,0.10947 1.9303,0.32841c0.58495,0.21894 1.09092,0.5305 1.51792,0.93469c0.42701,0.4042 0.7575,0.88978 0.99148,1.45678c0.23398,0.56699 0.35096,1.19854 0.35096,1.89465c0,0.15719 -0.00585,0.30876 -0.01755,0.45472c-0.01169,0.14596 -0.02924,0.29753 -0.05264,0.45472h-7.10702c0.05849,0.69611 0.30709,1.22941 0.74579,1.59993c0.43871,0.37051 0.96808,0.55576 1.58812,0.55576c0.52645,0 0.94175,-0.10947 1.24592,-0.32841c0.30417,-0.21894 0.53814,-0.48559 0.70193,-0.79996zM42.64151,12.11383c-0.59536,0 -1.10315,0.1749 -1.5234,0.52469c-0.42025,0.3498 -0.67706,0.84628 -0.77045,1.48945h4.60519c-0.01167,-0.30466 -0.0788,-0.58111 -0.20137,-0.82935c-0.12256,-0.24825 -0.28891,-0.45982 -0.49904,-0.63472c-0.21012,-0.17489 -0.45235,-0.31029 -0.72667,-0.40621c-0.27432,-0.09591 -0.56909,-0.14387 -0.88426,-0.14387zM33.20554,12.26538h-1.10554v-1.93676h1.10554v-0.47155c0,-1.15645 0.33633,-2.00132 1.00902,-2.53463c0.67268,-0.53331 1.69924,-0.78312 3.07971,-0.74944v1.98728c-0.59664,-0.02245 -1.01195,0.07017 -1.24592,0.27788c-0.23398,0.20772 -0.35097,0.57541 -0.35097,1.10311v0.38735h1.70218v1.93676h-1.70218v7.39336h-2.49184z" fill="#091017" fill-opacity="1"></path></g></g></svg>