<svg xmlns="http://www.w3.org/2000/svg" xmlns:xlink="http://www.w3.org/1999/xlink" viewBox="0 0 140.863 30.137" height="32.146" width="150.254"><defs><path d="M16.336 0v12.784a2.706 2.706 0 105.413 0V1.864c.01-.386.113-.75.287-1.069 4.572 1.746 7.82 6.173 7.82 11.358v5.549c0 6.712-5.442 12.153-12.154 12.153h-5.549C5.441 29.855 0 24.414 0 17.702v-5.549C0 7.01 3.196 2.611 7.711.837c.405.416.66.98.677 1.604v4.992a2.706 2.706 0 005.413 0V0h2.535z" id="a"/></defs><g fill="none" fill-rule="evenodd"><g transform="translate(1.127)"><mask id="b" fill="#fff"><use height="100%" width="100%" xlink:href="#a"/></mask><use height="100%" width="100%" xlink:href="#a" fill="#5769ff"/><g mask="url(#b)" fill="#3e45d9"><path d="M2.999 30.137C.425 26.23-1.127 21.18-1.127 15.665c0-12.389 1.532 9.198 11.19 9.198 9.657 0 23.454-21.587 23.454-9.198 0 5.515-1.487 10.565-3.988 14.472H2.999z"/></g></g><path d="M39.353 13.122h-1.279v-2.334h1.279v-.568c0-1.393.389-2.41 1.166-3.053.778-.643 1.965-.944 3.561-.903v2.394c-.69-.027-1.17.085-1.44.335s-.406.693-.406 1.329v.466h1.968v2.334h-1.968v8.907h-2.881v-8.907zm10.916-.183c-.69 0-1.279.21-1.766.63-.487.418-.784 1.014-.892 1.785h5.336a2.498 2.498 0 00-.233-.995 2.297 2.297 0 00-.579-.76 2.667 2.667 0 00-.842-.487 2.99 2.99 0 00-1.024-.173zm5.336 5.56a5.164 5.164 0 01-.68 1.45 4.77 4.77 0 01-1.126 1.177 5.53 5.53 0 01-1.542.791 5.936 5.936 0 01-1.907.295 6.115 6.115 0 01-2.252-.406 5.081 5.081 0 01-1.786-1.167 5.422 5.422 0 01-1.177-1.836c-.284-.717-.426-1.515-.426-2.394 0-.893.139-1.695.416-2.405a5.397 5.397 0 011.157-1.826 4.962 4.962 0 011.785-1.166 6.253 6.253 0 012.283-.406c.811 0 1.555.132 2.232.395.676.264 1.261.64 1.755 1.127a5.034 5.034 0 011.146 1.755c.27.683.406 1.444.406 2.282a7.165 7.165 0 01-.081 1.096H47.59c.068.839.355 1.481.863 1.927.507.447 1.119.67 1.836.67.609 0 1.089-.132 1.44-.396.352-.263.623-.585.812-.963h3.064zm6.574-5.56c-.69 0-1.278.21-1.765.63-.487.418-.785 1.014-.893 1.785h5.336a2.498 2.498 0 00-.233-.995 2.297 2.297 0 00-.579-.76 2.667 2.667 0 00-.842-.487 2.99 2.99 0 00-1.024-.173zm5.336 5.56a5.164 5.164 0 01-.68 1.45 4.77 4.77 0 01-1.126 1.177 5.53 5.53 0 01-1.542.791 5.936 5.936 0 01-1.907.295 6.115 6.115 0 01-2.252-.406 5.081 5.081 0 01-1.786-1.167 5.422 5.422 0 01-1.177-1.836c-.284-.717-.426-1.515-.426-2.394 0-.893.139-1.695.416-2.405a5.397 5.397 0 011.157-1.826 4.962 4.962 0 011.785-1.166 6.253 6.253 0 012.283-.406 6.11 6.11 0 012.232.395c.676.264 1.261.64 1.755 1.127a5.034 5.034 0 011.146 1.755c.27.683.406 1.444.406 2.282a7.165 7.165 0 01-.081 1.096H59.5c.067.839.355 1.481.862 1.927.507.447 1.12.67 1.836.67.609 0 1.089-.132 1.44-.396.352-.263.623-.585.812-.963h3.064zm1.015-2.13c0-.88.131-1.675.395-2.385a5.365 5.365 0 011.096-1.816 4.835 4.835 0 011.643-1.156 5.055 5.055 0 012.02-.406c.743 0 1.443.159 2.1.477.655.317 1.18.74 1.572 1.268V7.014h2.88V22.03h-2.88v-1.664c-.339.514-.815.95-1.43 1.309-.616.358-1.37.538-2.263.538a4.878 4.878 0 01-2.009-.416 4.856 4.856 0 01-1.633-1.187 5.575 5.575 0 01-1.096-1.847c-.264-.717-.395-1.515-.395-2.394zm8.846.04a3.81 3.81 0 00-.244-1.41 3.098 3.098 0 00-.659-1.045 2.723 2.723 0 00-.954-.64 3.03 3.03 0 00-2.232 0 2.755 2.755 0 00-.943.62c-.27.27-.49.611-.66 1.024a3.696 3.696 0 00-.253 1.41c0 .528.084 1.001.254 1.42.169.42.388.771.659 1.055.27.285.585.501.943.65a2.86 2.86 0 001.106.223 3.03 3.03 0 001.126-.213c.359-.142.677-.355.954-.64.277-.283.497-.632.66-1.044.162-.413.243-.883.243-1.41zm13.756 2.414c0 .487-.101.937-.304 1.35a3.113 3.113 0 01-.883 1.075 4.276 4.276 0 01-1.39.71c-.54.17-1.156.254-1.846.254-.703 0-1.35-.098-1.937-.295a5.203 5.203 0 01-1.532-.79 3.769 3.769 0 01-1.025-1.178 3.359 3.359 0 01-.416-1.47h2.86c.055.432.265.79.63 1.075.365.284.832.426 1.4.426s.998-.112 1.288-.335c.291-.223.437-.497.437-.822 0-.338-.156-.595-.467-.77a5.15 5.15 0 00-1.177-.457c-.473-.129-.984-.264-1.532-.406a7.395 7.395 0 01-1.532-.578 3.398 3.398 0 01-1.176-.984c-.312-.413-.467-.964-.467-1.654 0-.474.101-.913.304-1.319.203-.406.494-.76.873-1.065.378-.304.845-.545 1.4-.72a6.162 6.162 0 011.866-.264c1.367 0 2.442.338 3.226 1.014.785.677 1.218 1.576 1.299 2.699h-2.719a1.502 1.502 0 00-.548-1.055c-.324-.27-.77-.406-1.339-.406-.527 0-.926.098-1.197.294a.919.919 0 00-.406.781c0 .338.156.599.467.781.311.183.697.342 1.156.477.46.136.96.27 1.502.406a6.541 6.541 0 011.511.578c.467.25.86.582 1.177.995.318.412.484.963.497 1.653zm.995-2.455c0-.88.131-1.674.395-2.384a5.365 5.365 0 011.096-1.816 4.862 4.862 0 011.633-1.156 4.983 4.983 0 012.009-.406c.906 0 1.667.179 2.283.537.615.359 1.092.775 1.43 1.248v-1.603h2.86V22.03h-2.86v-1.643c-.338.486-.822.913-1.45 1.278-.63.365-1.39.548-2.283.548a4.83 4.83 0 01-3.622-1.603 5.575 5.575 0 01-1.096-1.847c-.264-.717-.395-1.515-.395-2.394zm8.846.04c0-.527-.081-.997-.243-1.41a3.098 3.098 0 00-.66-1.044 2.723 2.723 0 00-.954-.64 3.03 3.03 0 00-2.231 0 2.755 2.755 0 00-.944.62c-.27.27-.49.611-.66 1.024a3.716 3.716 0 00-.253 1.41c0 .528.085 1.001.254 1.42.169.42.389.771.66 1.055.27.285.584.501.943.65.358.149.727.223 1.105.223a3.03 3.03 0 001.126-.213c.359-.142.677-.355.954-.64.277-.283.497-.632.66-1.044.162-.413.243-.883.243-1.41zm15.643 5.621h-2.86v-1.42a3.754 3.754 0 01-1.41 1.136 4.398 4.398 0 01-1.938.426 5.08 5.08 0 01-1.806-.314 3.924 3.924 0 01-1.43-.924 4.222 4.222 0 01-.934-1.501c-.223-.595-.335-1.278-.335-2.05v-6.594h2.841v6.189c0 .906.227 1.596.68 2.07.453.473 1.058.71 1.816.71.77 0 1.383-.237 1.836-.71.453-.474.68-1.164.68-2.07v-6.189h2.86V22.03zm1.461-5.62c0-.88.139-1.678.416-2.395a5.458 5.458 0 011.147-1.836 4.9 4.9 0 011.755-1.166 6.036 6.036 0 012.242-.406c1.407 0 2.563.345 3.47 1.035.906.69 1.514 1.67 1.825 2.942h-3.063a2.35 2.35 0 00-.802-1.137c-.372-.284-.855-.426-1.45-.426-.799 0-1.438.291-1.918.873-.48.581-.72 1.42-.72 2.516 0 1.095.24 1.93.72 2.505s1.12.863 1.917.863c1.15 0 1.9-.514 2.253-1.542h3.063c-.31 1.204-.92 2.167-1.826 2.891-.906.724-2.062 1.086-3.47 1.086a6.036 6.036 0 01-2.241-.406 4.9 4.9 0 01-1.755-1.167 5.458 5.458 0 01-1.147-1.836c-.277-.717-.416-1.515-.416-2.394zm17.166-3.47c-.69 0-1.279.21-1.766.63-.487.418-.784 1.014-.892 1.785h5.336a2.497 2.497 0 00-.234-.995 2.297 2.297 0 00-.578-.76 2.667 2.667 0 00-.842-.487 2.99 2.99 0 00-1.024-.173zm5.336 5.56a5.164 5.164 0 01-.68 1.45 4.77 4.77 0 01-1.126 1.177 5.53 5.53 0 01-1.542.791 5.936 5.936 0 01-1.907.295 6.115 6.115 0 01-2.252-.406 5.081 5.081 0 01-1.786-1.167 5.422 5.422 0 01-1.177-1.836c-.284-.717-.426-1.515-.426-2.394 0-.893.139-1.695.416-2.405a5.397 5.397 0 011.157-1.826 4.962 4.962 0 011.785-1.166 6.253 6.253 0 012.283-.406c.811 0 1.555.132 2.232.395.676.264 1.26.64 1.755 1.127a5.034 5.034 0 011.146 1.755c.27.683.406 1.444.406 2.282a7.264 7.264 0 01-.081 1.096h-8.218c.068.839.355 1.481.863 1.927.507.447 1.119.67 1.836.67.608 0 1.089-.132 1.44-.396.352-.263.623-.585.812-.963h3.064z" fill="#000"/></g></svg>