<?xml version="1.0" encoding="UTF-8"?>
<svg id="SVGDoc" width="30" height="30" xmlns="http://www.w3.org/2000/svg" version="1.1" xmlns:xlink="http://www.w3.org/1999/xlink" xmlns:avocode="https://avocode.com/" viewBox="0 0 30 30"><defs></defs><desc>Generated with Avocode.</desc><g><g><title>Group 7</title><g><title>Mask</title><path d="M16.07636,0.81v0v12.31803c0,1.44024 1.1925,2.60778 2.66352,2.60778c1.47101,0 2.66351,-1.16754 2.66351,-2.60778v-10.52118v0h0.00089c0.01035,-0.37237 0.11114,-0.72259 0.28159,-1.03029c4.49932,1.682 7.69507,5.94738 7.69507,10.94354v5.34591c0,6.46731 -5.35485,11.71009 -11.96038,11.71009h-5.46018c-6.60553,0 -11.96038,-5.24278 -11.96038,-11.71009v-5.34591c0,-4.95668 3.14544,-9.19407 7.58864,-10.90318c0.39803,0.40084 0.64855,0.9442 0.6652,1.54503h0.00089v0v4.80989c0,1.44024 1.19249,2.60778 2.66351,2.60778c1.47102,0 2.66351,-1.16754 2.66351,-2.60778v-7.16184v0z" fill="#5769ff" fill-opacity="1"></path></g></g></g></svg>