<svg xmlns="http://www.w3.org/2000/svg" width="100" height="100"><path fill="#7180ff" d="M89.893 28.56L71.44 10.107A47.777 47.777 0 0048 4C21.49 4 0 25.49 0 52a47.772 47.772 0 007.999 26.535l13.466 13.466A47.773 47.773 0 0048 100c26.51 0 48-21.49 48-48 0-8.513-2.22-16.507-6.107-23.44z"/><path fill="#fcad6d" d="M66.902 68.504L31.496 33.098c-.032-.031-.06-.065-.089-.098l-.341.342a6.735 6.735 0 00-1.63 6.856c1.597 4.899 2.704 11.21.78 17.476C27.73 65.77 22.168 72.001 14 76.034L23.967 86c4.032-8.168 10.263-13.73 18.359-16.216 6.265-1.924 12.578-.817 17.476.78a6.736 6.736 0 006.856-1.63l.342-.341c-.033-.03-.067-.057-.098-.089z"/><path fill="#fd995b" d="M31.424 33.098c-.032-.031-.06-.065-.089-.098l-.34.342a6.755 6.755 0 00-1.623 6.856c1.59 4.899 2.694 11.21.778 17.476-2.476 8.096-8.016 14.327-16.15 18.36L23.926 86c1.255-2.552 2.723-4.85 4.396-6.88l-1.049-1.215c-1.314-1.525-1.222-3.8.187-5.238 7.059-7.2 11.215-17.673 11.215-22.728 0-3.49 2.449-4.757 4.325-5.217z"/><path fill="#ffe98d" d="M56.661 4C49.201 12.032 44.776 18.415 43 21.155c.105.072.206.153.3.247L78.629 56.7c.093.094.175.195.247.3 2.737-1.77 9.106-6.18 17.124-13.608z"/><path fill="#ffdd40" d="M57.373 4A153.01 153.01 0 0050 12.47c1.082.67 2.132 1.726 2.132 3.303v13.78L79.502 56.7a2.1 2.1 0 01.248.3c2.757-1.77 9.174-6.18 17.25-13.608z"/><path fill="#dae2fe" d="M78.396 56.153L43.57 20.616a2.034 2.034 0 00-2.917 0L30.604 30.87a2.136 2.136 0 000 2.977L65.43 69.384a2.034 2.034 0 002.917 0l10.05-10.254a2.136 2.136 0 000-2.977z"/><path fill="#bec8f7" d="M43.454 20.609a2.022 2.022 0 00-2.892 0l-9.963 10.123a2.102 2.102 0 000 2.94L38.795 42c.12-.25.182-.53.165-.822-.253-4.427 2.919-5.616 4.689-5.936a1.575 1.575 0 001.26-1.19c.369-1.618 1.564-2.27 2.459-2.532.547-.16.969-.61 1.095-1.174.255-1.138 1.224-1.588 1.933-1.767.224-.056.428-.162.604-.302z"/><path fill="#e80054" d="M9.438 78.016c-.498.178-.977.387-1.438.622A47.882 47.882 0 0021.362 92c.235-.461.445-.94.622-1.438A42.658 42.658 0 0124 85.81L14.19 76a42.692 42.692 0 01-4.752 2.016z"/><path fill="#e9efff" d="M77.689 59.94l-37.63-37.629a1.063 1.063 0 00-1.502 0l-2.246 2.246a1.063 1.063 0 000 1.503l37.63 37.629a1.063 1.063 0 001.502 0l2.246-2.246a1.063 1.063 0 000-1.503z"/><path fill="#dae2fe" d="M40.1 21.313a1.076 1.076 0 00-1.518 0l-2.268 2.26a1.067 1.067 0 000 1.513L45.257 34a1.55 1.55 0 00.439-.765c.38-1.634 1.612-2.293 2.533-2.558a1.62 1.62 0 00.771-.493z"/><path fill="#ff4155" d="M97.138 85.675a4.266 4.266 0 002.302-5.571 4.253 4.253 0 00-5.562-2.305 4.266 4.266 0 00-2.301 5.57 4.253 4.253 0 005.56 2.306zM100 38.185a3.253 3.253 0 00-.965-2.343L63.919.959a3.305 3.305 0 00-4.696.04c-.77.796-1.51 1.576-2.223 2.343V39.72c0 2.36 1.925 4.271 4.3 4.271s4.3-1.912 4.3-4.271v-9.496c0-2.359 1.925-4.271 4.3-4.271s4.3 1.912 4.3 4.271V81.73c0 2.359 1.925 4.271 4.3 4.271s4.3-1.912 4.3-4.271V60.46c0-2.359 1.925-4.27 4.3-4.27s4.3 1.912 4.3 4.27v6.81c0 2.359 1.925 4.271 4.3 4.271s4.3-1.912 4.3-4.271V38.185z"/><path fill="#5769ff" d="M0 52.691C0 58.42 1.02 63.911 2.886 69c28.45-4.548 15.82-33.498 20.972-42.528 2.956-5.18-.359-9.578-3.904-12.472C7.867 22.666 0 36.766 0 52.691zm75 38.248c-3.87-.955-9.51-3.296-13.16-9.033-5.124-8.053-33.337-4.062-29.479 15.799A47.687 47.687 0 0047.021 100c10.46 0 20.128-3.364 27.979-9.061z"/><path fill="#e80054" d="M82 19.211L63.84.96a3.24 3.24 0 00-4.643.04c-.76.796-1.492 1.577-2.197 2.343v36.386C57 42.088 58.903 44 61.25 44c2.348 0 4.251-1.913 4.251-4.272V30.23c0-2.36 1.904-4.272 4.251-4.272 1.524 0 2.859.806 3.61 2.016C72.72 19.008 82 19.211 82 19.211z"/><path fill="#ff7186" d="M87 33c-2.2 0-4 1.796-4 3.992v11.016C83 50.204 84.8 52 87 52s4-1.796 4-3.992V36.992C91 34.796 89.2 33 87 33z"/></svg>