<svg xmlns="http://www.w3.org/2000/svg" width="197" height="150" viewBox="0 0 197 150"><defs><mask id="q2jxb" width="2" height="2" x="-1" y="-1"><path fill="#fff" d="M57 43h77v77H57z"/><path d="M57.7 72.9c0-16.403 13.297-29.7 29.7-29.7h16.5c16.403 0 29.7 13.297 29.7 29.7v16.5c0 16.403-13.297 29.7-29.7 29.7H87.4c-16.403 0-29.7-13.297-29.7-29.7z"/></mask><filter id="q2jxa" width="165" height="167" x="13" y="-1" filterUnits="userSpaceOnUse"><feOffset dy="2" in="SourceGraphic" result="FeOffset1110Out"/><feGaussianBlur in="FeOffset1110Out" result="FeGaussianBlur1111Out" stdDeviation="13.6 13.6"/></filter></defs><g><g><g transform="rotate(45 27.5 39.5)"><path fill="#d9a842" d="M41.47 39.42c-.314 0-.569-.059-.8-.158-.403-.174-.753-.494-1.095-.928-.515-.647-.971-1.522-1.595-2.286-.313-.381-.676-.738-1.13-1.003a3.131 3.131 0 0 0-1.604-.425c-.464 0-.89.092-1.265.254-.661.287-1.151.77-1.557 1.284-.606.773-1.061 1.642-1.58 2.267-.257.313-.522.563-.81.73-.29.167-.6.263-1.013.265-.313 0-.568-.059-.8-.158-.403-.174-.753-.494-1.095-.928-.515-.647-.971-1.522-1.595-2.286-.313-.381-.676-.738-1.13-1.003a3.131 3.131 0 0 0-1.603-.425c-.465 0-.89.092-1.267.254-.66.287-1.151.77-1.557 1.283-.606.774-1.061 1.643-1.58 2.268-.258.313-.523.563-.81.73-.29.167-.602.263-1.014.265v1.2c.465 0 .89-.092 1.267-.254.66-.287 1.151-.77 1.557-1.283.606-.774 1.06-1.643 1.58-2.268.257-.313.523-.562.81-.73.29-.167.602-.263 1.014-.265.313 0 .568.059.8.158.403.174.753.494 1.095.928.515.647.972 1.522 1.595 2.286.313.381.677.738 1.13 1.003.451.265.994.426 1.603.425.464 0 .89-.092 1.266-.254.661-.287 1.152-.77 1.557-1.284.606-.773 1.061-1.642 1.58-2.267.257-.313.522-.563.81-.73.29-.167.601-.263 1.012-.265.315 0 .569.059.8.158.404.174.754.494 1.096.928.515.647.971 1.522 1.594 2.286.314.381.677.738 1.13 1.003.452.265.995.426 1.604.425v-1.2"/></g><g transform="rotate(-45 142.5 21.5)"><path fill="#d53066" d="M153.37 21.42c-.314 0-.569-.059-.8-.158-.403-.174-.753-.494-1.095-.928-.515-.647-.971-1.522-1.595-2.286-.313-.381-.676-.738-1.13-1.003a3.131 3.131 0 0 0-1.604-.425c-.464 0-.89.092-1.265.254-.661.287-1.151.77-1.557 1.284-.606.773-1.061 1.642-1.58 2.267-.257.313-.522.563-.81.73-.29.167-.6.263-1.013.265-.313 0-.568-.059-.8-.158-.403-.174-.753-.494-1.095-.928-.515-.647-.971-1.522-1.595-2.286-.313-.381-.676-.738-1.13-1.003a3.131 3.131 0 0 0-1.603-.425c-.465 0-.89.092-1.267.254-.66.287-1.151.77-1.557 1.283-.606.774-1.061 1.643-1.58 2.268-.258.313-.523.563-.81.73-.29.167-.602.263-1.014.265v1.2c.465 0 .89-.092 1.267-.254.66-.287 1.151-.77 1.557-1.283.606-.774 1.06-1.643 1.58-2.268.257-.313.523-.562.81-.73.29-.167.602-.263 1.014-.265.313 0 .568.059.8.158.403.174.753.494 1.095.928.515.647.972 1.522 1.595 2.286.313.381.677.738 1.13 1.003.451.265.994.426 1.603.425.464 0 .89-.092 1.266-.254.661-.287 1.152-.77 1.557-1.284.606-.773 1.061-1.642 1.58-2.267.257-.313.522-.563.81-.73.29-.167.601-.263 1.012-.265.315 0 .569.059.8.158.404.174.754.494 1.096.928.515.647.971 1.522 1.594 2.286.314.381.677.738 1.13 1.003.452.265.995.426 1.604.425v-1.2"/></g><g transform="rotate(45 155.5 97.5)"><path fill="#3cbf8a" d="M164.71 97.96c-.204 0-.37-.038-.52-.103-.263-.113-.49-.32-.713-.603-.335-.42-.632-.99-1.038-1.486a2.765 2.765 0 0 0-.735-.652 2.039 2.039 0 0 0-1.043-.276c-.302 0-.579.06-.823.165-.43.186-.75.5-1.013.834-.395.503-.69 1.068-1.028 1.474-.168.204-.34.366-.527.475-.189.108-.391.17-.66.172-.203 0-.37-.038-.52-.103-.262-.113-.49-.32-.712-.603-.335-.42-.632-.99-1.038-1.486a2.77 2.77 0 0 0-.735-.652 2.039 2.039 0 0 0-1.043-.276c-.302 0-.58.06-.824.165-.43.186-.75.5-1.013.834-.395.503-.69 1.068-1.029 1.474-.167.204-.34.366-.527.475a1.269 1.269 0 0 1-.659.172v.78c.302 0 .58-.06.824-.165.43-.186.75-.5 1.013-.834.394-.503.69-1.068 1.028-1.474.168-.204.34-.366.528-.474.188-.11.39-.172.659-.173.204 0 .37.038.52.103.263.113.49.32.713.603.335.42.632.99 1.037 1.486.204.248.44.48.735.652.294.172.647.277 1.044.276.302 0 .58-.06.824-.165.43-.186.749-.5 1.012-.834.395-.503.69-1.068 1.028-1.474.168-.204.34-.366.528-.475.188-.108.39-.17.658-.172.204 0 .37.038.52.103.263.113.49.32.713.603.335.42.632.99 1.038 1.486.204.248.44.48.735.652.294.172.647.277 1.043.276v-.78"/></g><g transform="rotate(-45 19.5 97.5)"><path fill="#d53066" d="M26.71 97.96c-.204 0-.37-.038-.52-.103-.263-.113-.49-.32-.713-.603-.335-.42-.632-.99-1.038-1.486a2.765 2.765 0 0 0-.735-.652 2.039 2.039 0 0 0-1.043-.276c-.302 0-.579.06-.823.165-.43.186-.75.5-1.013.834-.395.503-.69 1.068-1.028 1.474-.168.204-.34.366-.527.475-.189.108-.391.17-.66.172-.203 0-.37-.038-.52-.103-.262-.113-.49-.32-.712-.603-.335-.42-.632-.99-1.038-1.486a2.77 2.77 0 0 0-.735-.652 2.039 2.039 0 0 0-1.043-.276c-.302 0-.58.06-.824.165-.43.186-.75.5-1.013.834-.395.503-.69 1.068-1.029 1.474-.167.204-.34.366-.527.475a1.269 1.269 0 0 1-.659.172v.78c.302 0 .58-.06.824-.165.43-.186.75-.5 1.013-.834.394-.503.69-1.068 1.028-1.474.168-.204.34-.366.528-.474.188-.11.39-.172.659-.173.204 0 .37.038.52.103.263.113.49.32.713.603.335.42.632.99 1.037 1.486.204.248.44.48.735.652.294.172.647.277 1.044.276.302 0 .58-.06.824-.165.43-.186.749-.5 1.012-.834.395-.503.69-1.068 1.028-1.474.168-.204.34-.366.528-.475.188-.108.39-.17.658-.172.204 0 .37.038.52.103.263.113.49.32.713.603.335.42.632.99 1.038 1.486.204.248.44.48.735.652.294.172.647.277 1.043.276v-.78"/></g><g><g filter="url(#q2jxa)"><path fill="none" d="M57.7 72.9c0-16.403 13.297-29.7 29.7-29.7h16.5c16.403 0 29.7 13.297 29.7 29.7v16.5c0 16.403-13.297 29.7-29.7 29.7H87.4c-16.403 0-29.7-13.297-29.7-29.7z" mask="url(&quot;#q2jxb&quot;)"/><path fill-opacity=".5" d="M57.7 72.9c0-16.403 13.297-29.7 29.7-29.7h16.5c16.403 0 29.7 13.297 29.7 29.7v16.5c0 16.403-13.297 29.7-29.7 29.7H87.4c-16.403 0-29.7-13.297-29.7-29.7z"/></g><path fill="#00bb74" d="M57.7 72.9c0-16.403 13.297-29.7 29.7-29.7h16.5c16.403 0 29.7 13.297 29.7 29.7v16.5c0 16.403-13.297 29.7-29.7 29.7H87.4c-16.403 0-29.7-13.297-29.7-29.7z"/></g><g><path fill="#fff" d="M108.326 75.578l-14.33 14.218c-.843.842-2.191.899-3.09.056l-7.587-6.913a2.28 2.28 0 0 1-.168-3.147 2.223 2.223 0 0 1 3.147-.112l6.012 5.507 12.813-12.813c.899-.899 2.304-.899 3.203 0 .899.9.899 2.304 0 3.204z"/></g><g><path fill="#d9a842" d="M145.45 129a3.45 3.45 0 1 0 0-6.9 3.45 3.45 0 0 0 0 6.9z"/><path fill="none" stroke="#979797" stroke-miterlimit="20" stroke-width=".5" d="M145.45 129a3.45 3.45 0 1 0 0-6.9 3.45 3.45 0 0 0 0 6.9z"/></g><g><path fill="#3cbf8a" d="M4.45 46.8a3.45 3.45 0 1 0 0-6.9 3.45 3.45 0 0 0 0 6.9z"/><path fill="none" stroke="#979797" stroke-miterlimit="20" stroke-width=".5" d="M4.45 46.8a3.45 3.45 0 1 0 0-6.9 3.45 3.45 0 0 0 0 6.9z"/></g><g><path fill="#3243c0" d="M128.05 11.1a5.55 5.55 0 1 0 0-11.1 5.55 5.55 0 0 0 0 11.1z"/></g><g><path fill="none" stroke="#d9a842" stroke-miterlimit="20" stroke-width=".9" d="M190.45 81.3a5.55 5.55 0 1 0 0-11.1 5.55 5.55 0 0 0 0 11.1z"/></g><g><path fill="none" stroke="#3cbf8a" stroke-miterlimit="20" stroke-width=".9" d="M37.75 99a3.45 3.45 0 1 0 0-6.9 3.45 3.45 0 0 0 0 6.9z"/></g></g></g></svg>