<svg xmlns="http://www.w3.org/2000/svg" width="123" height="286" viewBox="0 0 123 286"><g><g><g><g><g><g transform="rotate(45 77 114)"><path fill="#d9a842" d="M106.889 114.36a4.21 4.21 0 0 1-1.705-.334c-.859-.368-1.604-1.048-2.333-1.968-1.098-1.374-2.07-3.231-3.398-4.852-.667-.808-1.441-1.566-2.407-2.127a6.693 6.693 0 0 0-3.416-.903c-.99 0-1.896.194-2.696.539-1.408.607-2.452 1.632-3.316 2.722-1.29 1.64-2.259 3.483-3.362 4.809-.55.664-1.114 1.193-1.727 1.548-.617.354-1.28.559-2.157.561a4.21 4.21 0 0 1-1.705-.335c-.859-.368-1.604-1.048-2.333-1.968-1.097-1.374-2.069-3.231-3.398-4.852-.668-.808-1.441-1.565-2.407-2.127a6.693 6.693 0 0 0-3.416-.903c-.989 0-1.897.194-2.697.54-1.408.606-2.453 1.632-3.317 2.72-1.29 1.641-2.26 3.484-3.365 4.81-.548.664-1.114 1.193-1.726 1.548-.617.354-1.28.559-2.158.563v2.545c.99 0 1.897-.194 2.699-.539 1.408-.607 2.452-1.632 3.315-2.72 1.29-1.642 2.26-3.485 3.366-4.81.548-.665 1.113-1.193 1.726-1.548.617-.355 1.28-.56 2.157-.562a4.22 4.22 0 0 1 1.707.335c.857.368 1.604 1.048 2.331 1.968 1.098 1.374 2.07 3.23 3.398 4.851.668.809 1.443 1.566 2.408 2.128a6.693 6.693 0 0 0 3.416.903c.988 0 1.896-.194 2.697-.54 1.408-.606 2.452-1.632 3.315-2.72 1.29-1.641 2.26-3.484 3.364-4.81.548-.664 1.112-1.194 1.726-1.549.616-.353 1.279-.558 2.155-.562.67.002 1.211.125 1.705.337.859.368 1.605 1.048 2.333 1.968 1.098 1.374 2.07 3.23 3.398 4.851.668.809 1.443 1.566 2.407 2.128a6.693 6.693 0 0 0 3.416.903v-2.546"/></g><g transform="rotate(-45 60.5 239)"><path fill="#d53066" d="M75.408 238.916a2.74 2.74 0 0 1-1.11-.217c-.558-.239-1.043-.68-1.517-1.279-.713-.892-1.345-2.099-2.209-3.152-.433-.525-.937-1.017-1.565-1.382a4.355 4.355 0 0 0-2.222-.586c-.644 0-1.234.127-1.755.351-.916.395-1.595 1.062-2.157 1.77-.84 1.067-1.472 2.265-2.19 3.127-.357.432-.725.776-1.124 1.007-.401.23-.832.363-1.403.365a2.74 2.74 0 0 1-1.11-.217c-.558-.239-1.043-.68-1.516-1.279-.714-.892-1.346-2.1-2.21-3.152-.434-.525-.937-1.017-1.565-1.382a4.355 4.355 0 0 0-2.222-.586 4.42 4.42 0 0 0-1.755.35c-.916.396-1.597 1.063-2.159 1.77-.84 1.068-1.471 2.266-2.191 3.128-.357.432-.725.776-1.123 1.007-.402.23-.834.363-1.405.366v1.654c.644 0 1.234-.126 1.756-.35.916-.396 1.596-1.062 2.158-1.77.84-1.067 1.47-2.265 2.19-3.128.357-.432.726-.775 1.124-1.006.402-.23.833-.364 1.404-.366.435 0 .788.08 1.11.218.558.239 1.043.68 1.516 1.278.714.893 1.346 2.1 2.21 3.153.434.525.937 1.017 1.565 1.382a4.355 4.355 0 0 0 2.222.586 4.42 4.42 0 0 0 1.755-.351c.916-.395 1.596-1.062 2.158-1.77.84-1.067 1.471-2.265 2.19-3.127.357-.432.724-.777 1.124-1.007.4-.23.832-.364 1.402-.366.436 0 .788.08 1.11.218.558.239 1.043.68 1.516 1.278.714.893 1.346 2.1 2.21 3.153.434.525.937 1.017 1.565 1.382a4.355 4.355 0 0 0 2.222.586v-1.655"/></g></g><g><path fill="#3cbf8a" d="M32.5 133a7.5 7.5 0 1 0 0-15 7.5 7.5 0 0 0 0 15z"/><path fill="none" stroke="#979797" stroke-miterlimit="20" d="M32.5 133a7.5 7.5 0 1 0 0-15 7.5 7.5 0 0 0 0 15z"/></g><g><path fill="#3243c0" d="M111 24c6.627 0 12-5.373 12-12s-5.373-12-12-12-12 5.373-12 12 5.373 12 12 12z"/></g><g><path fill="none" stroke="#3cbf8a" stroke-miterlimit="20" stroke-width="3" d="M9.5 284a7.5 7.5 0 1 0 0-15 7.5 7.5 0 0 0 0 15z"/></g></g></g></g></g></svg>