<svg xmlns="http://www.w3.org/2000/svg" width="135" height="332" viewBox="0 0 135 332"><g><g><g transform="rotate(-45 20 312)"><path fill="#d53066" d="M42.78 312.07a4.208 4.208 0 0 1-1.705-.335c-.859-.368-1.604-1.047-2.332-1.967-1.097-1.373-2.068-3.23-3.396-4.85-.666-.808-1.44-1.565-2.406-2.126a6.689 6.689 0 0 0-3.415-.902c-.99 0-1.896.195-2.697.54-1.408.608-2.452 1.634-3.316 2.723-1.291 1.641-2.262 3.484-3.366 4.811-.55.664-1.114 1.194-1.727 1.55-.617.353-1.28.558-2.157.561a4.207 4.207 0 0 1-1.705-.334c-.859-.368-1.604-1.047-2.332-1.967-1.097-1.374-2.067-3.23-3.396-4.85-.667-.808-1.44-1.565-2.406-2.127a6.689 6.689 0 0 0-3.415-.901c-.99 0-1.897.195-2.698.54-1.408.607-2.454 1.634-3.318 2.722-1.29 1.642-2.261 3.485-3.368 4.812-.548.664-1.114 1.194-1.726 1.55-.618.353-1.28.558-2.158.562l-.001 2.546c.99 0 1.897-.195 2.699-.54 1.408-.608 2.452-1.634 3.316-2.722 1.291-1.643 2.262-3.486 3.368-4.812.548-.665 1.114-1.193 1.727-1.548.617-.356 1.28-.56 2.158-.563.668 0 1.211.123 1.706.334.857.368 1.603 1.047 2.33 1.967 1.097 1.373 2.07 3.23 3.396 4.85.668.808 1.442 1.565 2.406 2.126a6.689 6.689 0 0 0 3.416.902c.989 0 1.897-.195 2.697-.54 1.408-.608 2.453-1.634 3.317-2.724 1.291-1.64 2.261-3.484 3.367-4.81.548-.665 1.112-1.194 1.726-1.55.617-.353 1.28-.558 2.156-.562.67 0 1.21.124 1.705.335.858.368 1.604 1.047 2.331 1.967 1.097 1.373 2.07 3.23 3.396 4.85.668.808 1.442 1.565 2.406 2.126a6.689 6.689 0 0 0 3.416.902v-2.545"/></g><g transform="rotate(45 115 102.5)"><path fill="#3cbf8a" d="M134.377 102.614a2.74 2.74 0 0 1-1.109-.218c-.559-.239-1.044-.68-1.518-1.28-.714-.892-1.346-2.1-2.21-3.152-.434-.526-.938-1.018-1.567-1.383a4.358 4.358 0 0 0-2.222-.587c-.644 0-1.233.126-1.754.35-.916.395-1.595 1.061-2.157 1.77-.84 1.066-1.47 2.263-2.188 3.125-.357.432-.724.776-1.124 1.007-.4.23-.832.363-1.403.364-.434 0-.788-.08-1.109-.218-.559-.239-1.043-.68-1.518-1.279-.714-.893-1.346-2.1-2.21-3.153-.435-.526-.938-1.018-1.567-1.383a4.358 4.358 0 0 0-2.222-.587c-.643 0-1.234.126-1.755.35-.916.395-1.596 1.061-2.158 1.769-.84 1.067-1.47 2.265-2.19 3.126-.356.432-.724.776-1.122 1.007a2.71 2.71 0 0 1-1.404.365v1.655c.645 0 1.234-.126 1.756-.35.916-.395 1.595-1.062 2.157-1.769.84-1.067 1.47-2.265 2.19-3.126.356-.432.724-.775 1.122-1.006.402-.23.833-.364 1.404-.366.435 0 .788.08 1.11.218.558.24 1.044.681 1.517 1.28.714.892 1.347 2.1 2.21 3.153.436.525.94 1.018 1.567 1.383a4.358 4.358 0 0 0 2.223.587c.643 0 1.234-.127 1.754-.35.916-.395 1.596-1.062 2.157-1.77.84-1.066 1.47-2.264 2.189-3.126.357-.431.724-.776 1.123-1.006.4-.23.832-.363 1.402-.366.436.001.788.082 1.11.219.558.24 1.044.681 1.517 1.28.714.892 1.347 2.1 2.21 3.153.436.525.94 1.017 1.567 1.382a4.358 4.358 0 0 0 2.223.588v-1.655"/></g><g><path fill="#d9a842" d="M98.5 172a7.5 7.5 0 1 0 0-15 7.5 7.5 0 0 0 0 15z"/><path fill="none" stroke="#979797" stroke-miterlimit="20" d="M98.5 172a7.5 7.5 0 1 0 0-15 7.5 7.5 0 0 0 0 15z"/></g><g><path fill="none" stroke="#d9a842" stroke-miterlimit="20" stroke-width="3" d="M121 26c6.627 0 12-5.373 12-12s-5.373-12-12-12-12 5.373-12 12 5.373 12 12 12z"/></g></g></g></svg>