<svg xmlns="http://www.w3.org/2000/svg" width="653" height="431"><g clip-path="url(#clip-A7F7A51D-2E16-42D3-BA73-0BEDA639BBF5)" transform="rotate(45 88.5 131.5)"><path fill="#d9a842" d="M135.92 131.418c-1.045 0-1.895-.194-2.668-.526-1.343-.578-2.51-1.645-3.65-3.091-1.717-2.158-3.236-5.076-5.315-7.621-1.044-1.27-2.255-2.46-3.767-3.342-1.505-.884-3.314-1.422-5.345-1.418-1.547 0-2.966.306-4.219.848-2.203.954-3.838 2.566-5.19 4.277-2.019 2.578-3.536 5.474-5.264 7.558-.86 1.044-1.742 1.876-2.703 2.433-.964.556-2.002.878-3.375.882-1.045 0-1.895-.194-2.668-.526-1.344-.578-2.51-1.645-3.65-3.091-1.717-2.158-3.236-5.076-5.315-7.621-1.046-1.27-2.255-2.46-3.767-3.342-1.506-.884-3.314-1.422-5.345-1.418-1.547 0-2.968.306-4.221.848-2.203.954-3.84 2.566-5.191 4.275-2.02 2.58-3.537 5.476-5.269 7.56-.857 1.044-1.742 1.876-2.7 2.433-.967.556-2.005.878-3.378.884v4c1.55 0 2.968-.306 4.223-.848 2.203-.954 3.837-2.566 5.19-4.275 2.019-2.58 3.536-5.476 5.267-7.56.858-1.044 1.743-1.874 2.702-2.431.966-.558 2.004-.88 3.377-.884 1.045 0 1.895.194 2.67.526 1.341.578 2.51 1.645 3.647 3.091 1.718 2.158 3.24 5.076 5.316 7.621 1.046 1.27 2.257 2.46 3.767 3.342 1.505.884 3.314 1.422 5.345 1.418 1.547 0 2.968-.306 4.22-.848 2.204-.954 3.838-2.566 5.19-4.278 2.02-2.577 3.537-5.473 5.266-7.557.858-1.044 1.741-1.876 2.702-2.433.964-.556 2.002-.878 3.373-.884 1.047.002 1.895.196 2.668.528 1.343.578 2.511 1.645 3.65 3.091 1.717 2.158 3.238 5.076 5.315 7.621 1.046 1.27 2.257 2.46 3.767 3.342 1.505.884 3.314 1.422 5.345 1.418v-4"/></g><g clip-path="url(#clip-A7F7A51D-2E16-42D3-BA73-0BEDA639BBF5)" transform="rotate(-45 473 71)"><path fill="#d53066" d="M508.92 71.418c-1.045 0-1.895-.194-2.668-.526-1.343-.577-2.51-1.645-3.65-3.091-1.717-2.158-3.236-5.076-5.315-7.621-1.044-1.27-2.255-2.46-3.767-3.342-1.505-.884-3.314-1.422-5.345-1.418-1.547 0-2.966.306-4.219.848-2.203.954-3.838 2.566-5.19 4.278-2.019 2.577-3.536 5.473-5.264 7.557-.86 1.044-1.742 1.876-2.703 2.433-.964.556-2.002.878-3.375.882-1.045 0-1.895-.194-2.668-.526-1.344-.577-2.51-1.645-3.65-3.091-1.717-2.158-3.236-5.076-5.315-7.621-1.046-1.27-2.255-2.46-3.767-3.342-1.506-.884-3.314-1.422-5.345-1.418-1.547 0-2.968.306-4.221.848-2.203.954-3.84 2.566-5.191 4.276-2.02 2.58-3.537 5.475-5.269 7.559-.857 1.044-1.742 1.876-2.7 2.433-.967.556-2.005.878-3.378.884v4c1.55 0 2.968-.306 4.223-.848 2.203-.954 3.838-2.566 5.19-4.275 2.019-2.58 3.536-5.476 5.267-7.56.858-1.044 1.743-1.874 2.702-2.431.966-.558 2.004-.88 3.377-.884 1.045 0 1.895.194 2.67.526 1.341.578 2.51 1.645 3.647 3.091 1.718 2.158 3.24 5.076 5.316 7.621 1.046 1.27 2.257 2.46 3.767 3.342 1.505.884 3.314 1.422 5.345 1.418 1.547 0 2.968-.306 4.22-.848 2.204-.954 3.838-2.566 5.19-4.277 2.02-2.578 3.537-5.474 5.266-7.558.858-1.044 1.741-1.876 2.702-2.433.964-.556 2.002-.878 3.373-.884 1.047.002 1.895.196 2.668.528 1.343.578 2.511 1.645 3.65 3.091 1.717 2.158 3.238 5.076 5.315 7.621 1.046 1.27 2.257 2.46 3.767 3.342 1.505.884 3.314 1.422 5.345 1.418v-4"/></g><g clip-path="url(#clip-A7F7A51D-2E16-42D3-BA73-0BEDA639BBF5)" transform="rotate(45 516.5 326.5)"><path fill="#3cbf8a" d="M546.69 326.539c-.68 0-1.233-.126-1.736-.342-.874-.376-1.632-1.07-2.374-2.01-1.117-1.402-2.106-3.299-3.459-4.953-.678-.826-1.467-1.6-2.45-2.172a6.796 6.796 0 00-3.478-.922c-1.006 0-1.93.199-2.745.551-1.433.62-2.496 1.668-3.376 2.78-1.314 1.676-2.301 3.558-3.425 4.913-.559.678-1.134 1.22-1.759 1.582-.627.361-1.302.57-2.195.573-.68 0-1.233-.126-1.736-.342-.874-.376-1.633-1.07-2.375-2.01-1.117-1.402-2.106-3.299-3.458-4.953-.68-.826-1.467-1.6-2.45-2.172a6.796 6.796 0 00-3.478-.922 6.892 6.892 0 00-2.746.551c-1.434.62-2.498 1.668-3.378 2.78-1.314 1.676-2.301 3.558-3.427 4.913-.558.678-1.134 1.22-1.758 1.582-.628.361-1.303.57-2.197.574v2.6a6.898 6.898 0 002.747-.551c1.434-.62 2.497-1.668 3.377-2.78 1.313-1.676 2.3-3.558 3.427-4.913.558-.678 1.134-1.218 1.758-1.58.628-.363 1.303-.572 2.197-.575.68 0 1.233.126 1.737.342.873.376 1.632 1.07 2.373 2.01 1.117 1.402 2.107 3.299 3.458 4.953.68.826 1.469 1.6 2.45 2.172.98.575 2.157.925 3.479.922a6.892 6.892 0 002.746-.551c1.433-.62 2.496-1.668 3.376-2.78 1.314-1.676 2.301-3.558 3.426-4.913.558-.678 1.133-1.22 1.758-1.582.627-.361 1.302-.57 2.194-.574a4.29 4.29 0 011.736.343c.874.376 1.634 1.07 2.374 2.01 1.118 1.402 2.108 3.299 3.459 4.953.68.826 1.468 1.6 2.45 2.172.98.575 2.156.925 3.478.922v-2.6"/></g><g clip-path="url(#clip-A7F7A51D-2E16-42D3-BA73-0BEDA639BBF5)" transform="rotate(-45 63.5 326.5)"><path fill="#d53066" d="M86.69 326.539c-.68 0-1.233-.126-1.736-.342-.874-.376-1.632-1.07-2.374-2.01-1.117-1.402-2.106-3.299-3.459-4.953-.678-.826-1.467-1.6-2.45-2.172a6.796 6.796 0 00-3.478-.922c-1.006 0-1.93.199-2.745.551-1.433.62-2.496 1.668-3.376 2.78-1.314 1.676-2.301 3.558-3.425 4.913-.559.678-1.134 1.22-1.759 1.582-.627.361-1.302.57-2.195.573-.68 0-1.233-.126-1.736-.342-.874-.376-1.633-1.07-2.375-2.01-1.117-1.402-2.106-3.299-3.458-4.953-.68-.826-1.467-1.6-2.45-2.172a6.796 6.796 0 00-3.478-.922 6.892 6.892 0 00-2.746.551c-1.434.62-2.498 1.668-3.378 2.78-1.314 1.676-2.301 3.558-3.427 4.913-.558.678-1.134 1.22-1.758 1.582-.629.361-1.303.57-2.197.574v2.6a6.898 6.898 0 002.747-.551c1.434-.62 2.497-1.668 3.377-2.78 1.313-1.676 2.3-3.558 3.427-4.913.558-.678 1.134-1.218 1.758-1.58.628-.363 1.303-.572 2.197-.575.68 0 1.233.126 1.737.342.873.376 1.632 1.07 2.373 2.01 1.117 1.402 2.107 3.299 3.458 4.953.68.826 1.469 1.6 2.45 2.172.98.575 2.157.925 3.479.922a6.892 6.892 0 002.746-.551c1.433-.62 2.496-1.668 3.376-2.78 1.314-1.676 2.301-3.558 3.426-4.913.558-.678 1.133-1.22 1.758-1.582.627-.361 1.302-.57 2.194-.574a4.29 4.29 0 011.736.343c.874.376 1.634 1.07 2.374 2.01 1.118 1.402 2.108 3.299 3.459 4.953.68.826 1.468 1.6 2.45 2.172.98.575 2.156.925 3.478.922v-2.6"/></g><path fill="#00bb74" d="M190 243c0-54.676 44.324-99 99-99h55c54.676 0 99 44.324 99 99v55c0 54.676-44.324 99-99 99h-55c-54.676 0-99-44.324-99-99z"/><path fill="#fff" d="M358.752 251.925l-47.765 47.393c-2.81 2.81-7.305 2.998-10.302.188l-25.287-23.041c-2.997-2.81-3.185-7.493-.562-10.49 2.81-2.998 7.492-3.185 10.49-.375l20.042 18.358 42.707-42.71c2.997-2.997 7.68-2.997 10.677 0s2.997 7.68 0 10.677z"/><path fill="#d9a842" d="M482.5 430c6.351 0 11.5-5.149 11.5-11.5s-5.149-11.5-11.5-11.5-11.5 5.149-11.5 11.5 5.149 11.5 11.5 11.5z"/><path fill="none" stroke="#979797" stroke-miterlimit="20" d="M482.5 430c6.351 0 11.5-5.149 11.5-11.5s-5.149-11.5-11.5-11.5-11.5 5.149-11.5 11.5 5.149 11.5 11.5 11.5z"/><path fill="#3cbf8a" d="M12.5 156c6.351 0 11.5-5.149 11.5-11.5S18.851 133 12.5 133 1 138.149 1 144.5 6.149 156 12.5 156z"/><path fill="none" stroke="#979797" stroke-miterlimit="20" d="M12.5 156c6.351 0 11.5-5.149 11.5-11.5S18.851 133 12.5 133 1 138.149 1 144.5 6.149 156 12.5 156z"/><path fill="#3243c0" d="M424.5 37c10.217 0 18.5-8.283 18.5-18.5S434.717 0 424.5 0 406 8.283 406 18.5 414.283 37 424.5 37z"/><path fill="none" stroke="#d9a842" stroke-miterlimit="20" stroke-width="3" d="M632.5 271c10.217 0 18.5-8.283 18.5-18.5s-8.283-18.5-18.5-18.5-18.5 8.283-18.5 18.5 8.283 18.5 18.5 18.5z"/><path fill="none" stroke="#3cbf8a" stroke-miterlimit="20" stroke-width="3" d="M123.5 330c6.351 0 11.5-5.149 11.5-11.5s-5.149-11.5-11.5-11.5-11.5 5.149-11.5 11.5 5.149 11.5 11.5 11.5z"/></svg>