<?xml version="1.0" encoding="UTF-8"?>
<svg id="SVGDoc" width="7" height="12" xmlns="http://www.w3.org/2000/svg" version="1.1" xmlns:xlink="http://www.w3.org/1999/xlink" xmlns:avocode="https://avocode.com/" viewBox="0 0 7 12"><defs></defs><desc>Generated with Avocode.</desc><g><g><title>Group 6</title><g transform="rotate(90 3.5 6)"><title>Path</title><path d="M8.05518,3.48741c-0.1526,-0.14321 -0.40017,-0.14321 -0.55277,0l-4.00239,4.10067v0l-4.0028,-4.10067c-0.15259,-0.14321 -0.40018,-0.14321 -0.55278,0c-0.15259,0.1432 -0.15259,0.37547 0,0.51866l4.25934,4.3638c0.08136,0.07633 0.18957,0.10903 0.29585,0.10396c0.10664,0.00507 0.21449,-0.02763 0.29584,-0.10396l4.25972,-4.36418c0.15258,-0.14318 0.15258,-0.37508 -0.00001,-0.51828z" fill="#8d95ad" fill-opacity="1"></path><path d="M8.05518,3.48741c-0.1526,-0.14321 -0.40017,-0.14321 -0.55277,0l-4.00239,4.10067v0l-4.0028,-4.10067c-0.15259,-0.14321 -0.40018,-0.14321 -0.55278,0c-0.15259,0.1432 -0.15259,0.37547 0,0.51866l4.25934,4.3638c0.08136,0.07633 0.18957,0.10903 0.29585,0.10396c0.10664,0.00507 0.21449,-0.02763 0.29584,-0.10396l4.25972,-4.36418c0.15258,-0.14318 0.15258,-0.37508 -0.00001,-0.51828z" fill-opacity="0" fill="#ffffff" stroke-linejoin="miter" stroke-linecap="butt" stroke-opacity="1" stroke="#8d95ad" stroke-miterlimit="20" stroke-width="1.69811320754717"></path></g></g></g></svg>