<?xml version="1.0" encoding="UTF-8"?>
<svg id="SVGDoc" width="24" height="24" xmlns="http://www.w3.org/2000/svg" version="1.1" xmlns:xlink="http://www.w3.org/1999/xlink" xmlns:avocode="https://avocode.com/" viewBox="0 0 24 24"><defs></defs><desc>Generated with Avocode.</desc><g><g><title>color-wheel copy</title><g><title>Shape</title><path d="M4.8241,12.005c0,-3.96589 3.21501,-7.1809 7.1809,-7.1809c3.9659,0 7.18091,3.21501 7.18091,7.1809c0,3.9659 -3.21501,7.18091 -7.18091,7.18091c-3.96589,0 -7.1809,-3.21501 -7.1809,-7.18091zM12,24c6.6275,0 12,-5.3725 12,-12c0,-6.6275 -5.3725,-12 -12,-12c-6.6275,0 -12,5.3725 -12,12c0,6.6275 5.3725,12 12,12z" fill="#83d9ff" fill-opacity="1"></path></g><g><title>Path</title><path d="M12,24.00286v0v-4.67365c0.92432,0 1.80762,-0.16604 2.62035,-0.46921l1.66536,4.39336c-1.33262,0.48429 -2.77665,0.7495 -4.28571,0.7495z" fill="#3fefef" fill-opacity="1"></path></g><g><title>Path</title><path d="M14.57,18.54192c0.79944,-0.32657 1.5272,-0.80502 2.15114,-1.40192l2.99172,3.74868c-1.03602,0.95968 -2.23642,1.72794 -3.5514,2.25132z" fill="#1dd1d9" fill-opacity="1"></path></g><g><title>Path</title><path d="M16.29,17.57627c0.66779,-0.60752 1.2254,-1.33395 1.63921,-2.14627l4.36079,2.51673c-0.70847,1.32078 -1.64819,2.50013 -2.76435,3.48327z" fill="#17b5ba" fill-opacity="1"></path></g><g><title>Path</title><path d="M18.86,10.2931v0l4.87221,-0.8631c0.17762,0.83427 0.27065,1.69943 0.27065,2.58683c0,0.57634 -0.03958,1.14325 -0.11573,1.69886l-4.87221,-0.86253c0.03058,-0.27432 0.04652,-0.55354 0.04652,-0.83634c0,-0.59386 -0.06977,-1.17057 -0.20144,-1.72373z" fill="#9be058" fill-opacity="1"></path></g><g><title>Path</title><path d="M18,8.22241v0l4.38518,-2.22241c0.75403,1.06418 1.30798,2.2487 1.61482,3.51362l-4.9879,0.77209c-0.20296,-0.74496 -0.54935,-1.44053 -1.0121,-2.0633z" fill="#c0ff66" fill-opacity="1"></path></g><g><title>Path</title><path d="M16.29,6.05459v0l3.20645,-3.48459c1.09978,0.80273 2.04648,1.77267 2.79355,2.86753l-4.32156,2.27533c-0.45471,-0.63484 -1.02315,-1.19547 -1.67844,-1.65827z" fill="#ffdf46" fill-opacity="1"></path></g><g><title>Path</title><path d="M7.71,0.66186c1.34201,-0.429 2.78385,-0.66186 4.28571,-0.66186v4.76688c-0.87512,0 -1.71598,0.13226 -2.50079,0.37598z" fill="#fc3e81" fill-opacity="1"></path></g><g><title>Path</title><path d="M4.29,2.93591c1.03984,-0.88959 2.22218,-1.59672 3.50449,-2.07591h0.00054v0l1.63783,4.81251c-0.75212,0.27322 -1.44753,0.6776 -2.06296,1.18749z" fill="#f01054" fill-opacity="1"></path></g><g><title>Path</title><path d="M1.71,5.43753c0.74707,-1.09486 1.69377,-2.06463 2.79355,-2.86753l3.20645,3.48459c-0.65529,0.4628 -1.22373,1.02343 -1.67825,1.65827z" fill="#7884ea" fill-opacity="1"></path></g><g><title>Path</title><path d="M0,13.74859l4.45796,-0.88859c0.09198,0.92081 0.32897,1.79212 0.6849,2.58346l-3.9191,2.5594c-0.61643,-1.29969 -1.03911,-2.73409 -1.22376,-4.25427z" fill="#1685fb" fill-opacity="1"></path></g><g><title>Path</title><path d="M1.71,17.94673l4.36065,-2.51673c0.41399,0.81232 0.97158,1.53875 1.63935,2.14627l-3.23573,3.85373c-1.11595,-0.98314 -2.05564,-2.16249 -2.76427,-3.48327z" fill="#43a3f9" fill-opacity="1"></path></g><g><title>Path</title><path d="M4.29,20.88868v0l2.99172,-3.74868c0.62376,0.5969 1.35152,1.07535 2.15114,1.40192l-1.59164,4.59808c-1.3148,-0.52338 -2.5152,-1.29164 -3.55122,-2.25132z" fill="#64bdff" fill-opacity="1"></path></g><g><title>Path</title><path d="M0,9.51362c0.30684,-1.26492 0.86079,-2.44944 1.61482,-3.51362l4.38518,2.22241c-0.46275,0.62277 -0.80914,1.31834 -1.0121,2.0633z" fill="#4a5be5" fill-opacity="1"></path></g><g><title>Path</title><path d="M18.86,15.44346c0.35576,-0.79153 0.59277,-1.66265 0.68475,-2.58346l4.45811,0.88859c-0.18466,1.52018 -0.60736,2.95458 -1.22381,4.25427z" fill="#1cc939" fill-opacity="1"></path></g><g><title>Path</title><path d="M0,12.01683c0,-0.8874 0.09303,-1.75256 0.27065,-2.58683l4.87221,0.8631c-0.13167,0.55316 -0.20144,1.12987 -0.20144,1.72373c0,0.2828 0.01594,0.56202 0.04651,0.83634l-4.87221,0.86253c-0.07615,-0.55561 -0.11572,-1.12252 -0.11572,-1.69886z" fill="#364ec6" fill-opacity="1"></path></g><g><title>Path</title><path d="M14.57,5.67251v0l1.63837,-4.81251c1.28231,0.47919 2.46483,1.18632 3.50449,2.07611l-3.07972,3.92389c-0.61562,-0.50989 -1.31121,-0.91427 -2.06314,-1.18749z" fill="#f9b200" fill-opacity="1"></path></g><g><title>Path</title><path d="M12,4.76688v-4.76688c1.50165,0 2.94389,0.23286 4.28571,0.66186l-1.78546,4.481c-0.7845,-0.24372 -1.62524,-0.37598 -2.50025,-0.37598z" fill="#fd6096" fill-opacity="1"></path></g></g></g></svg>