<?xml version="1.0" encoding="UTF-8"?>
<svg id="SVGDoc" width="44" height="40" xmlns="http://www.w3.org/2000/svg" version="1.1" xmlns:xlink="http://www.w3.org/1999/xlink" xmlns:avocode="https://avocode.com/" viewBox="0 0 44 40"><defs></defs><desc>Generated with Avocode.</desc><g><g><title>Fill 88</title><path d="M43.62021,3.00062c0.78321,1.19545 0.32068,2.91813 -1.07092,3.40763c-0.4955,0.17375 -1.05394,0.15191 -1.52646,-0.06951c-4.32265,7.12901 -5.68727,15.24992 -4.56241,23.46019c1.12587,0.18269 1.87312,1.19048 1.74624,2.44252c-0.21378,2.10296 -2.85712,3.19416 -4.52843,3.86933c-6.34262,2.56167 -13.94496,4.09272 -20.79606,3.86733c-1.83815,-0.06056 -5.54342,0.07149 -6.77018,-1.7197c-0.97302,-1.42083 0.10989,-2.67585 1.29869,-3.44833c0.06993,-0.17078 0.11888,-0.35446 0.14486,-0.57389c-0.40659,-3.74124 -0.21679,-7.45766 -0.95804,-11.19989c-0.74625,-3.76705 -1.987,-7.38716 -3.63534,-10.85336c-1.67731,0.64141 -3.74523,-1.84977 -2.66132,-3.41557c1.02997,-1.49034 3.88509,-1.15772 4.35761,0.65928c0.16384,0.63049 -0.04495,1.38112 -0.52347,1.84382c4.54642,2.41869 9.26867,6.23936 11.58933,10.97946c1.07791,-6.67029 4.69327,-13.2393 8.74519,-18.51357c-0.7912,-0.42298 -0.92507,-1.63431 -0.71528,-2.46338c0.27972,-1.10212 1.5884,-1.50027 2.5814,-1.14878c1.10189,0.38921 1.67132,1.63133 1.29769,2.72451c-0.23975,0.69999 -1.20278,1.53502 -2.00997,1.397c-0.05794,3.22394 0.06194,6.43895 0.42657,9.64501c0.26973,2.36508 0.76123,4.69045 1.14784,7.03369c2.06992,-6.42703 8.05789,-11.53449 12.90401,-15.82877c-0.001,-0.0288 0.00399,-0.0566 0.00599,-0.08539c-0.05494,-0.14397 -0.09391,-0.29092 -0.11888,-0.40809c-0.13686,-0.63644 -0.06194,-1.34736 0.34166,-1.87657c0.85913,-1.12694 2.56241,-0.83602 3.28968,0.27503zM3.40428,9.48225c-0.26899,-0.43985 -0.95651,-0.56893 -1.42122,-0.43389c-0.7367,0.21545 -0.75678,0.7546 -0.36433,1.33743c0.29307,0.43389 0.67246,0.58978 1.12211,0.65233c0.06324,-0.16978 0.20977,-0.31772 0.34427,-0.44879c0.30311,-0.30085 0.58114,-0.67815 0.31917,-1.10708zM25.21075,3.226c0.01499,0.01192 0.01399,0.03376 0.02597,0.04766c0.42757,-0.26311 0.98901,-0.17673 1.24875,-0.71786c0.22177,-0.46369 0.01598,-1.06439 -0.44456,-1.28978c-0.4885,-0.23829 -1.11987,-0.07248 -1.20778,0.49645c-0.08192,0.53319 -0.04595,1.09517 0.37762,1.46353zM38.04083,8.84879c-1.72726,1.59261 -3.40657,3.23585 -4.93403,5.0191c-1.30868,1.52608 -2.44853,3.18621 -3.44453,4.92973c-0.48351,0.84496 -0.93306,1.70779 -1.36063,2.58253c-0.21279,0.43688 -0.43656,0.87574 -0.62937,1.32155c-0.11588,0.26709 -0.1948,0.68907 -0.40359,0.89261c-0.64235,0.62553 -0.8931,-0.77744 -1.00898,-1.12594c-0.24476,-0.73574 -0.45754,-1.4824 -0.64436,-2.23402c-0.38161,-1.53502 -0.65234,-3.09586 -0.84814,-4.66364c-0.39161,-3.15047 -0.47752,-6.33072 -0.44655,-9.50104c-1.66532,2.33927 -3.14084,4.79967 -4.36461,7.40503c-0.97801,2.0831 -1.71227,4.2645 -2.39159,6.45781c-0.33566,1.08722 -0.62736,2.1943 -1.00299,3.26762c-0.27472,0.7834 -0.73526,1.23417 -1.39859,0.41603c-0.55144,-0.68212 -1.03595,-1.42779 -1.55343,-2.13573c-1.04395,-1.42878 -2.12087,-2.84167 -3.3796,-4.09371c-1.64035,-1.62836 -3.46851,-3.0204 -5.43053,-4.22379c1.38161,3.20905 2.45253,6.53128 3.08589,9.97564c0.55544,3.01643 1.05294,6.40518 0.72727,9.55565c0.13386,0.64042 0.16583,1.31559 0.09291,1.91431c-0.06993,0.58084 -0.79121,1.37615 -1.11388,2.04934c0.07392,0.44184 0.31568,0.93828 0.74924,1.49331c0.74525,0.16383 1.49949,0.27007 2.26272,0.31674c1.21178,0.11021 2.43255,0.14893 3.64933,0.13305c2.3836,-0.03277 4.75921,-0.30681 7.10384,-0.72879c4.15382,-0.74666 8.6413,-1.65417 12.49142,-3.42748c0.48951,-0.2244 0.96603,-0.47362 1.42856,-0.74865c0.44855,-0.2651 0.83017,-0.47262 1.04295,-0.99587c0.13187,-0.3217 0.12688,-0.71688 -0.08691,-0.99389c-0.06393,-0.0844 -0.15085,-0.15688 -0.25474,-0.17972c-0.07193,-0.01589 -0.14685,-0.00596 -0.22078,0.00298c-1.1908,0.15787 -2.01497,0.61659 -3.11786,1.03361c-1.986,0.75063 -4.02395,1.35332 -6.09686,1.81104c-4.22275,0.93233 -8.52142,1.21928 -12.83108,0.84893c-0.50848,-0.04369 -0.52447,-0.79829 0,-0.79829c4.19977,-0.00596 8.37557,-0.38525 12.46545,-1.36722c1.76822,-0.42397 3.51546,-0.9502 5.22274,-1.57176c1.16083,-0.42297 2.37561,-1.16665 3.60437,-1.53105c-1.34565,-7.16971 -0.12288,-14.57673 3.03694,-21.10602zM42.74143,3.83267c-0.21372,-0.63645 -1.02688,-1.05446 -1.59648,-0.55702c-0.26244,0.23135 -0.32606,0.60269 -0.34494,0.93035c-0.00199,0.04567 -0.00994,0.14496 -0.01392,0.26212c0.42546,0.25716 0.66801,0.85588 1.23762,0.7685c0.65112,-0.09929 0.90958,-0.83602 0.71772,-1.40395z" fill="#ffffff" fill-opacity="1"></path></g></g></svg>