<?xml version="1.0" encoding="UTF-8"?>
<svg id="SVGDoc" width="16" height="16" xmlns="http://www.w3.org/2000/svg" version="1.1" xmlns:xlink="http://www.w3.org/1999/xlink" xmlns:avocode="https://avocode.com/" viewBox="0 0 16 16"><defs></defs><desc>Generated with Avocode.</desc><g><g><title>european-union</title><g><title>Oval</title><path d="M8,16c4.41828,0 8,-3.58172 8,-8c0,-4.41828 -3.58172,-8 -8,-8c-4.41828,0 -8,3.58172 -8,8c0,4.41828 3.58172,8 8,8z" fill="#0052b4" fill-opacity="1"></path></g><g><title>Group</title><g><title>Path</title><path d="M7.99717,3.13v0l0.25902,0.79716v0h0.8381v0l-0.67808,0.49265v0l0.25902,0.79716v0l-0.67808,-0.49269v0l-0.67812,0.49269v0l0.25902,-0.79716v0l-0.67808,-0.49265v0h0.83814v0z" fill="#ffda44" fill-opacity="1"></path></g><g><title>Path</title><path d="M4.55209,4.55213v0l0.74688,0.3805v0l0.59266,-0.59263v0l-0.13116,0.82781v0l0.74684,0.38053v0l-0.82784,0.13113v0l-0.13113,0.82787v0l-0.38053,-0.74684v0l-0.82781,0.13116v0l0.59266,-0.59266v0z" fill="#ffda44" fill-opacity="1"></path></g><g><title>Path</title><path d="M3.13,7.99717v0l0.79716,-0.25902v0v-0.83814v0l0.49262,0.67812v0l0.79719,-0.25903v0l-0.49272,0.67809v0l0.49272,0.67808v0l-0.79719,-0.25899v0l-0.49262,0.67808v0v-0.83813v0z" fill="#ffda44" fill-opacity="1"></path></g><g><title>Path</title><path d="M4.55209,11.4452v0l0.38053,-0.74688v0l-0.59262,-0.59265v0l0.82784,0.13118v0l0.38047,-0.74684v0l0.13116,0.82784v0l0.82781,0.13113v0l-0.74675,0.38053v0l0.1311,0.82781v0l-0.59266,-0.59265v0z" fill="#ffda44" fill-opacity="1"></path></g><g><title>Path</title><path d="M7.99717,12.86691v0l-0.25905,-0.79716v0h-0.83811v0l0.67812,-0.49266v0l-0.25906,-0.79709v0l0.67812,0.49262v0l0.67808,-0.49262v0l-0.25902,0.79709v0l0.67808,0.49266v0h-0.83813v0z" fill="#ffda44" fill-opacity="1"></path></g><g><title>Path</title><path d="M11.44516,11.4452v0l-0.74685,-0.3805v0l-0.59269,0.59265v0l0.13116,-0.82787v0l-0.74678,-0.3805v0l0.82781,-0.13113v0l0.13113,-0.82784v0l0.3805,0.74684v0l0.82781,-0.13118v0l-0.59266,0.59272v0z" fill="#ffda44" fill-opacity="1"></path></g><g><title>Path</title><path d="M12.86691,7.99717v0l-0.79716,0.25902v0v0.83813v0l-0.49266,-0.67811v0l-0.79709,0.25902v0l0.49266,-0.67808v0l-0.49266,-0.67809v0l0.79713,0.25903v0l0.49262,-0.67812v0v0.83817v0z" fill="#ffda44" fill-opacity="1"></path></g><g><title>Path</title><path d="M11.44516,4.55209v0l-0.38053,0.74688v0l0.59265,0.59266v0l-0.82787,-0.13119v0l-0.38047,0.74684v0l-0.13113,-0.82784v0l-0.82781,-0.13116v0l0.74678,-0.3805v0l-0.13116,-0.82778v0l0.59272,0.59263v0z" fill="#ffda44" fill-opacity="1"></path></g></g></g></g></svg>