<?xml version="1.0" encoding="UTF-8"?>
<svg id="SVGDoc" width="15" height="15" xmlns="http://www.w3.org/2000/svg" version="1.1" xmlns:xlink="http://www.w3.org/1999/xlink" xmlns:avocode="https://avocode.com/" viewBox="0 0 15 15"><defs></defs><desc>Generated with Avocode.</desc><g><g clip-path="url(#clip-4F538F88-626A-49FE-942D-E76C5887A963)"><title>united-kingdom (1)</title><g><title>Oval</title><path d="M7.5,15c4.14214,0 7.5,-3.35786 7.5,-7.5c0,-4.14214 -3.35786,-7.5 -7.5,-7.5c-4.14214,0 -7.5,3.35786 -7.5,7.5c0,4.14214 3.35786,7.5 7.5,7.5z" fill="#f0f0f0" fill-opacity="1"></path></g><g><title>Group</title><g><title>Path</title><path d="M1.55202,2.93c-0.58913,0.76649 -1.03336,1.64994 -1.29202,2.60968h3.9017v0z" fill="#0052b4" fill-opacity="1"></path></g><g><title>Path</title><path d="M14.74164,5.53965c-0.25866,-0.95971 -0.70292,-1.84316 -1.29202,-2.60965l-2.60962,2.60965v0z" fill="#0052b4" fill-opacity="1"></path></g><g><title>Path</title><path d="M0.26,9.46c0.25869,0.95971 0.70292,1.84315 1.29202,2.60962l2.60959,-2.60962v0h-3.90161v0z" fill="#0052b4" fill-opacity="1"></path></g><g><title>Path</title><path d="M12.06965,1.55205c-0.7665,-0.58913 -1.64991,-1.03336 -2.60965,-1.29205v3.90167v0z" fill="#0052b4" fill-opacity="1"></path></g><g><title>Path</title><path d="M2.93,13.44959c0.76649,0.58913 1.64994,1.03336 2.60965,1.29205v-3.90164v0z" fill="#0052b4" fill-opacity="1"></path></g><g><title>Path</title><path d="M5.53962,0.26c-0.95971,0.25869 -1.84316,0.70292 -2.60962,1.29202l2.60962,2.60962v0z" fill="#0052b4" fill-opacity="1"></path></g><g><title>Path</title><path d="M9.46,14.74164c0.95971,-0.25869 1.84315,-0.70292 2.60962,-1.29202l-2.60962,-2.60962v0z" fill="#0052b4" fill-opacity="1"></path></g><g><title>Path</title><path d="M10.84,9.46v0l2.60962,2.60965c0.5891,-0.76647 1.03336,-1.64994 1.29202,-2.60965z" fill="#0052b4" fill-opacity="1"></path></g></g><g><title>Group</title><g><title>Path</title><path d="M14.93651,6.52175h-6.4582v0h-0.00003v0v-6.45826c-0.32024,-0.04169 -0.64673,-0.06349 -0.97828,-0.06349c-0.33161,0 -0.65804,0.0218 -0.97825,0.06349v6.4582v0v0.00003v0h-6.45826c-0.04169,0.32024 -0.06349,0.64673 -0.06349,0.97828c0,0.33161 0.0218,0.65804 0.06349,0.97825h6.4582v0h0.00003v0v6.45826c0.32024,0.04169 0.64667,0.06349 0.97828,0.06349c0.33155,0 0.65804,-0.02177 0.97825,-0.06349v-6.4582v0v-0.00003v0h6.45826c0.04169,-0.32024 0.06349,-0.64667 0.06349,-0.97828c0,-0.33155 -0.0218,-0.65804 -0.06349,-0.97825z" fill="#d80027" fill-opacity="1"></path></g><g><title>Path</title><path d="M9.46,9.46003v0v0v0l3.34674,3.34673c0.15392,-0.15387 0.30076,-0.31474 0.44086,-0.4815l-2.86528,-2.86526v0h-0.92231v0z" fill="#d80027" fill-opacity="1"></path></g><g><title>Path</title><path d="M5.54676,9.46v0h-0.00006v0l-3.3467,3.34671c0.15387,0.15392 0.31474,0.30076 0.48149,0.44086l2.86527,-2.86533v0z" fill="#d80027" fill-opacity="1"></path></g><g><title>Path</title><path d="M5.54759,5.54682v0v-0.00006v0l-3.34674,-3.34676c-0.15393,0.15387 -0.30076,0.31474 -0.44086,0.48149l2.8653,2.8653v0h0.92229v0z" fill="#d80027" fill-opacity="1"></path></g><g><title>Path</title><path d="M9.46,5.54762v0v0v0l3.34676,-3.3468c-0.15387,-0.15393 -0.31474,-0.30076 -0.4815,-0.44083l-2.86526,2.8653v0v0.92232v0z" fill="#d80027" fill-opacity="1"></path></g></g></g></g></svg>