<?xml version="1.0" encoding="UTF-8"?>
<svg id="SVGDoc" width="24" height="11" xmlns="http://www.w3.org/2000/svg" version="1.1" xmlns:xlink="http://www.w3.org/1999/xlink" xmlns:avocode="https://avocode.com/" viewBox="0 0 24 11"><defs><linearGradient id="LinearGradient1185" gradientUnits="userSpaceOnUse" x1="0" y1="0" x2="24" y2="10.394610323886582"><stop stop-opacity="1" stop-color="#f7648c" offset="0"></stop><stop stop-opacity="1" stop-color="#8659b1" offset="1"></stop></linearGradient></defs><desc>Generated with Avocode.</desc><g><g><title>Combined Shape</title><path d="M9.13081,9.05534h-7.7582v-1.07137h7.7582zM9.67446,6.84903h-8.30185v-1.07114h8.30185zM10.53719,4.80868h-9.16458v-1.07137h9.16458zM22.78058,9.05534h-7.7582v-1.07137h7.7582zM22.78058,6.84903h-8.30185v-1.07114h8.30185zM22.78058,4.80868h-9.25251v-1.07137h9.25251zM20.27136,0.79953c-0.30038,-0.49511 -0.85116,-0.79953 -1.44635,-0.79953h-13.65025c-0.59541,0 -1.14596,0.30442 -1.44634,0.79953l-0.72842,1.20047h0.02646c-1.67152,0 -3.02646,1.59839 -3.02646,3.57009v1.85959c0,1.97193 1.35494,3.57032 3.02646,3.57032h4.35714c1.20696,0 2.29857,-0.846 2.77786,-2.15269l1.08821,-2.96748h1.50066l1.08821,2.96748c0.47929,1.30669 1.5709,2.15269 2.77786,2.15269h4.35714c1.67152,0 3.02646,-1.59839 3.02646,-3.57032v-1.85959c0.00023,-1.9717 -1.35494,-3.57009 -3.02646,-3.57009h0.02646z" fill="url(#LinearGradient1185)"></path></g></g></svg>