<svg xmlns="http://www.w3.org/2000/svg" width="224" height="78" viewBox="0 0 224 78"><g><g transform="rotate(90 112 39)"><path fill="#5769ff" d="M149.925-7.87c2.81 37.356.053 83.023-7.572 113.862-7.302 29.528-19.362 47.082-31.642 44.812-6.054-1.117-11.84-7.59-16.718-17.953-4.57-6.617-8.675-16.791-11.959-29.022-.502-2.48-.969-5.033-1.393-7.664-2.777-17.217-3.445-35.692-2.74-54.62.701-18.787 1.862-39.456 6.149-53.993.16-.537.474.191.332.774-4.24 17.518-5.504 43.307-5.553 64.538-.043 19.213 1.773 37.593 5.455 53.284 2.014 8.58 4.442 15.836 7.144 21.757 3.597 5.489 7.507 8.801 11.696 10.283 6.457 2.28 13.16 1.485 19.155-6.798 4.851-6.704 9.079-17.418 12.288-30.282 7.748-31.068 8.64-71.834 5.754-108.692-.093-1.193.483-1.67.602-.504 4.303 41.786 2.12 89.883-8.14 122.163-7.772 24.459-19.329 33.689-30.286 29.235 4.55 3.31 9.374 3.634 14.146.592 11.895-7.575 21.572-33.397 25.887-67.732 3.966-31.552 5.407-74.944-.437-105.298-6.067-31.515-20.069-40.132-31.21-38.729-8.165 1.03-16.268 8.494-22.904 22.6 9.784-23.494 22.966-31.34 35.216-26.27 6.3 2.609 12.764 8.281 17.868 20.08 4.677 10.813 7.573 26.441 8.862 43.577zM74.198 49.527C72.843 14.006 78.553-22.1 87.645-44.445c.111-.273.222-.543.334-.811-2.7 5.739-5.157 12.578-7.276 20.53-7.198 27.012-9.906 63.74-5.73 96.602 1.853 14.586 4.872 27.73 8.547 38.665a191.613 191.613 0 0 1-1.486-6.712c-4.23-15.756-7.097-34.926-7.836-54.302z"/></g></g></svg>