<?xml version="1.0" encoding="UTF-8"?>
<svg id="SVGDoc" width="10" height="12" xmlns="http://www.w3.org/2000/svg" version="1.1" xmlns:xlink="http://www.w3.org/1999/xlink" xmlns:avocode="https://avocode.com/" viewBox="0 0 10 12"><defs></defs><desc>Generated with Avocode.</desc><g><g><title>Fill 152</title><path d="M9.04855,5.76155c-1.20777,-0.02731 -2.43394,-0.02225 -3.66215,0.01516c0.18086,-1.75941 0.32084,-3.51478 0.17677,-5.21959c-0.0419,-0.49748 -0.77453,-0.81398 -1.04122,-0.27907c-0.82869,1.66335 -1.20573,3.62701 -1.38761,5.61292c-0.79395,0.05663 -1.58278,0.12842 -2.3614,0.22751c-1.01057,0.12842 -1.05042,1.49955 0,1.58853c0.73877,0.06168 1.48673,0.10112 2.23776,0.12538c-0.04292,1.10317 -0.05314,2.18916 -0.06438,3.20335c-0.01226,1.28518 2.00683,1.28619 2.02011,0c0.01124,-1.04857 0.09912,-2.1113 0.20539,-3.17908c1.30076,-0.01112 2.60049,-0.06168 3.87673,-0.14459c1.25682,-0.0809 1.28032,-1.92221 0,-1.95052" fill="#ffffff" fill-opacity="1"></path></g></g></svg>