<svg xmlns="http://www.w3.org/2000/svg" width="326" height="84" viewBox="0 0 326 84"><g><g transform="rotate(90 163 42)"><path fill="#5769ff" d="M203.827-26.213c3.065 54.366.058 120.83-8.26 165.71-7.966 42.975-21.122 68.521-34.519 65.217-6.604-1.626-12.915-11.044-18.237-26.128-5.099-9.849-9.667-25.112-13.29-43.455a304.295 304.295 0 0 0 3.008 13.172 365.014 365.014 0 0 1-3.156-20.96c-3.042-25.102-3.774-52.037-3.002-79.631.768-27.391 2.04-57.527 6.739-78.72.174-.784.519.278.364 1.128-4.647 25.541-6.033 63.14-6.086 94.094-.047 28.01 1.943 54.808 5.978 77.684 2.207 12.51 4.868 23.088 7.83 31.72 3.94 8.003 8.226 12.832 12.816 14.992 7.076 3.325 14.424 2.165 20.993-9.91 5.316-9.774 9.949-25.395 13.465-44.15 8.492-45.296 9.47-104.73 6.306-158.467-.102-1.74.53-2.435.66-.735 4.716 60.921 2.322 131.045-8.92 178.107-8.518 35.66-21.182 49.116-33.19 42.623 4.985 4.825 10.273 5.298 15.502.863 13.036-11.044 23.64-48.691 28.37-98.75 4.346-46 5.925-109.263-.48-153.518-6.648-45.947-21.993-58.51-34.202-56.464C149.927-109.68 137.473-89 129.44-48.91c-5.284 26.382-8.36 59.122-8.44 92.265-.112-47.029 5.858-93.206 14.885-122.799 10.708-35.11 25.265-46.877 38.781-39.414 6.872 3.797 13.925 12.053 19.493 29.225 5.102 15.736 8.261 38.48 9.667 63.419zm-82.61 83.534a533.286 533.286 0 0 1-.215-13.965c-.04 16.331.65 32.76 2.16 48.576 1.499 15.694 3.694 30.243 6.36 43.199-4.482-22.697-7.514-50.109-8.305-77.81z"/></g></g></svg>