<?xml version="1.0" encoding="UTF-8"?>
<svg id="SVGDoc" width="8" height="8" xmlns="http://www.w3.org/2000/svg" version="1.1" xmlns:xlink="http://www.w3.org/1999/xlink" xmlns:avocode="https://avocode.com/" viewBox="0 0 8 8"><defs></defs><desc>Generated with Avocode.</desc><g><g><title>Fill 153</title><path d="M7.40187,2.86764c-0.71289,-0.18443 -1.44258,-0.08914 -2.16912,0.04201c-0.00525,-0.70493 -0.0252,-1.40884 -0.0966,-2.10865c-0.08399,-0.82584 -1.47512,-1.19265 -1.63051,-0.21517c-0.14069,0.88322 -0.20368,1.77156 -0.25513,2.66195c-0.92287,0.15164 -1.84155,0.32787 -2.72662,0.62501c-0.78744,0.26435 -0.65935,1.38733 0.19738,1.42319c0.80213,0.03381 1.60217,-0.02869 2.39905,-0.11681c-0.05249,0.76334 -0.06404,1.53385 0.20158,2.22546c0.22049,0.57174 1.2053,0.89961 1.52238,0.19468c0.38532,-0.8576 0.38217,-1.73774 0.38112,-2.65477c0.82943,-0.07583 1.67146,-0.16497 2.37595,-0.58403c0.60475,-0.36169 0.50816,-1.31048 -0.19948,-1.49287" fill="#ffffff" fill-opacity="1"></path></g></g></svg>