<svg xmlns="http://www.w3.org/2000/svg" width="205" height="79" viewBox="0 0 205 79"><g><g transform="rotate(90 102.5 39.5)"><path fill="#5769ff" d="M140.175-3.395c2.81 34.188.053 75.982-7.572 104.205-7.302 27.023-19.362 43.088-31.642 41.01-6.054-1.022-11.84-6.945-16.718-16.43-3.814-5.054-7.304-12.376-10.264-21.167l.291.8a163.77 163.77 0 0 1-2.88-13.166c-2.776-15.77-3.444-32.69-2.739-50.025.701-17.207 1.862-36.139 6.149-49.453.16-.492.474.176.332.71-4.24 16.044-5.504 39.664-5.553 59.11-.043 17.596 1.773 34.43 5.455 48.801 2.014 7.858 4.442 14.504 7.144 19.927 3.597 5.027 7.507 8.061 11.696 9.418 6.457 2.088 13.16 1.36 19.155-6.226 4.851-6.14 9.079-15.953 12.288-27.735 7.748-28.455 8.64-65.792 5.754-99.55-.093-1.093.483-1.53.602-.462 4.303 38.272 2.12 82.324-8.14 111.888-7.772 22.402-19.329 30.855-30.286 26.776 4.55 3.031 9.374 3.329 14.146.542 11.895-6.938 21.572-30.588 25.887-62.035 3.966-28.897 5.407-68.64-.437-96.441-6.067-28.864-20.069-36.756-31.21-35.47-10.279 1.186-20.46 11.713-27.738 31.96 1.241-3.76 2.58-7.264 4-10.46 9.816-22.078 23.16-29.477 35.55-24.784 6.3 2.387 12.764 7.579 17.868 18.377 4.677 9.895 7.573 24.198 8.862 39.88zm-75.727 52.53c-1.143-27.43 2.743-55.239 9.447-75.543a128.113 128.113 0 0 0-2.442 7.542c-7.198 24.74-9.906 58.379-5.73 88.477 1.804 13.004 4.712 24.757 8.256 34.612-5.154-15.312-8.697-35.08-9.53-55.089z"/></g></g></svg>