<svg xmlns="http://www.w3.org/2000/svg" width="267" height="77" viewBox="0 0 267 77"><g><g transform="rotate(90 133.5 38.5)"><path fill="#5769ff" d="M170.925-17.368c2.81 44.527.053 98.962-7.572 135.72-7.302 35.197-19.362 56.12-31.642 53.414-6.054-1.332-11.84-9.046-16.718-21.4-3.775-6.515-7.233-15.924-10.173-27.218a270.715 270.715 0 0 1-2.18-13.53c-2.776-20.517-3.444-42.531-2.739-65.084.701-22.387 1.862-47.017 6.149-64.339.16-.64.474.228.332.923-4.24 20.874-5.504 51.604-5.553 76.903-.043 22.893 1.773 44.795 5.455 63.492 2.014 10.224 4.442 18.87 7.144 25.925 3.597 6.54 7.507 10.488 11.696 12.253 6.457 2.717 13.16 1.77 19.155-8.1 4.851-7.988 9.079-20.755 12.288-36.084 7.748-37.02 8.64-85.596 5.754-129.516-.093-1.422.483-1.99.602-.6 4.303 49.79 2.12 107.104-8.14 145.568-7.772 29.145-19.329 40.143-30.286 34.835 4.55 3.944 9.374 4.33 14.146.706 11.895-9.027 21.572-39.796 25.887-80.71 3.966-37.595 5.407-89.3-.437-125.471-6.067-37.553-20.069-47.82-31.21-46.148-11.487 1.725-22.851 18.628-30.18 51.394-4.782 21.38-7.582 47.87-7.7 74.725-.17-38.752 5.32-76.874 13.642-101.254 9.816-28.756 23.16-38.393 35.55-32.28 6.3 3.11 12.764 9.87 17.868 23.935 4.677 12.888 7.573 31.516 8.862 51.941zM95.198 51.048a389.727 389.727 0 0 1-.194-10.758c-.06 13.572.567 27.238 1.969 40.385 1.853 17.38 4.872 33.041 8.547 46.073a265.182 265.182 0 0 1-.7-3.6c-5.203-19.99-8.783-45.887-9.622-72.1z"/></g></g></svg>