<svg xmlns="http://www.w3.org/2000/svg" width="191" height="78" viewBox="0 0 191 78"><g><g transform="rotate(90 95.5 39)"><path fill="#5769ff" d="M132.925-.756c2.81 31.686.053 70.422-7.572 96.58-7.302 25.046-19.362 39.935-31.642 38.01-6.054-.948-11.84-6.437-16.718-15.229-4.707-5.781-8.922-14.765-12.253-25.559a126.069 126.069 0 0 0 2.78 7.797 142.77 142.77 0 0 1-2.88-12.226c-2.776-14.643-3.444-30.355-2.739-46.452.701-15.978 1.862-33.557 6.149-45.92.16-.457.474.163.332.659-4.24 14.898-5.504 36.83-5.553 54.887-.043 16.34 1.773 31.972 5.455 45.316 2.014 7.297 4.442 13.468 7.144 18.503 3.597 4.669 7.507 7.486 11.696 8.746 6.457 1.94 13.16 1.263 19.155-5.781 4.851-5.702 9.079-14.814 12.288-25.754 7.748-26.423 8.64-61.093 5.754-92.44-.093-1.014.483-1.42.602-.428 4.303 35.537 2.12 76.443-8.14 103.896-7.772 20.801-19.329 28.651-30.286 24.863 4.55 2.815 9.374 3.09 14.146.504 11.895-6.443 21.572-28.404 25.887-57.605 3.966-26.833 5.407-63.736-.437-89.552-6.067-26.802-20.069-34.13-31.21-32.937-11.487 1.231-22.851 13.295-30.18 36.681C59.874 1.215 57.066 20.345 57 39.707 56.91 12.327 62.38-14.55 70.645-31.78c9.816-20.464 23.16-27.321 35.55-22.972 6.3 2.213 12.764 7.025 17.868 17.033 4.677 9.171 7.573 22.427 8.862 36.962zM57.198 47.929c-.123-2.74-.188-5.483-.197-8.222-.032 9.5.597 19.054 1.972 28.253 1.36 9.11 3.35 17.557 5.767 25.086-4.069-13.183-6.82-29.066-7.542-45.117z"/></g></g></svg>