<svg xmlns="http://www.w3.org/2000/svg" width="156" height="78" viewBox="0 0 156 78"><g><g transform="rotate(90 78 39)"><path fill="#5769ff" d="M115.675 6.358c2.81 26.016.053 57.82-7.572 79.297-7.302 20.565-19.362 32.79-31.642 31.208-6.054-.778-11.84-5.285-16.718-12.503-3.956-3.99-7.565-9.837-10.593-16.863.204.443.411.881.62 1.314a99.457 99.457 0 0 1-2.88-10.009c-2.776-11.988-3.444-24.851-2.739-38.03.701-13.08 1.862-27.472 6.149-37.593.16-.375.474.133.332.539-4.24 12.197-5.504 30.153-5.553 44.935-.043 13.377 1.773 26.175 5.455 37.1 2.014 5.973 4.442 11.026 7.144 15.148 3.597 3.822 7.507 6.128 11.696 7.16 6.457 1.587 13.16 1.033 19.155-4.733 4.851-4.668 9.079-12.128 12.288-21.085 7.748-21.631 8.64-50.015 5.754-75.678-.093-.83.483-1.162.602-.35 4.303 29.093 2.12 62.582-8.14 85.057-7.772 17.03-19.329 23.456-30.286 20.355 4.55 2.304 9.374 2.53 14.146.412 11.895-5.274 21.572-23.253 25.887-47.16 3.966-21.967 5.407-52.18-.437-73.314-6.067-21.943-20.069-27.942-31.21-26.965-10.404.913-20.708 9.101-28.004 24.863 1.316-3.096 2.744-5.97 4.266-8.577 9.816-16.801 23.16-22.432 35.55-18.86 6.3 1.817 12.764 5.767 17.868 13.984 4.677 7.53 7.573 18.414 8.862 30.348zM39.948 46.331c-1.128-20.595 2.64-41.473 9.181-56.868a82.6 82.6 0 0 0-2.176 5.167c-7.198 18.808-9.906 44.38-5.73 67.26 1.748 9.578 4.532 18.263 7.927 25.607-4.976-11.542-8.386-26.266-9.202-41.166z"/></g></g></svg>