<svg xmlns="http://www.w3.org/2000/svg" width="224" height="77" viewBox="0 0 224 77"><g><g transform="rotate(90 112 38.5)"><path fill="#5769ff" d="M149.425-8.37c2.81 37.356.053 83.023-7.572 113.862-7.302 29.528-19.362 47.082-31.642 44.812-6.054-1.117-11.84-7.59-16.718-17.953-3.6-5.215-6.913-12.638-9.763-21.535a193.309 193.309 0 0 1-2.59-13.15c-2.776-17.218-3.444-35.693-2.739-54.62.701-18.788 1.862-39.457 6.149-53.994.16-.537.474.191.332.774-4.24 17.518-5.504 43.307-5.553 64.538-.043 19.213 1.773 37.593 5.455 53.284 2.014 8.58 4.442 15.836 7.144 21.757 3.597 5.489 7.507 8.801 11.696 10.283 6.457 2.28 13.16 1.485 19.155-6.798 4.851-6.704 9.079-17.418 12.288-30.282 7.748-31.068 8.64-71.834 5.754-108.692-.093-1.193.483-1.67.602-.504 4.303 41.786 2.12 89.883-8.14 122.163-7.772 24.459-19.329 33.689-30.286 29.235 4.55 3.31 9.374 3.634 14.146.592 11.895-7.575 21.572-33.397 25.887-67.732 3.966-31.552 5.407-74.944-.437-105.298-6.067-31.515-20.069-40.132-31.21-38.729-11.487 1.448-22.851 15.633-30.18 43.13-4.8 18.013-7.603 40.345-7.7 62.97-.14-32.421 5.342-64.289 13.642-84.688 9.816-24.125 23.16-32.21 35.55-27.083 6.3 2.61 12.764 8.282 17.868 20.081 4.677 10.813 7.573 26.441 8.862 43.577zM73.698 49.027c-.118-3.093-.182-6.19-.195-9.283-.049 11.305.578 22.683 1.97 33.632 1.853 14.586 4.872 27.73 8.547 38.665-.097-.406-.194-.815-.29-1.225-5.425-16.94-9.171-39.225-10.032-61.789z"/></g></g></svg>