<?xml version="1.0" encoding="UTF-8"?>
<svg id="SVGDoc" width="11" height="14" xmlns="http://www.w3.org/2000/svg" version="1.1" xmlns:xlink="http://www.w3.org/1999/xlink" xmlns:avocode="https://avocode.com/" viewBox="0 0 11 14"><defs></defs><desc>Generated with Avocode.</desc><g><g><title>Fill 151</title><path d="M10.32591,4.85384c-1.60427,-0.22656 -3.25084,-0.18965 -4.87883,-0.14762c0.03507,-1.47212 -0.00723,-2.92373 -0.22078,-4.30768c-0.10214,-0.65712 -1.05954,-0.41211 -1.12145,0.09021c-0.47457,1.29989 -0.75519,2.73408 -0.92954,4.21337c-1.15549,-0.03588 -2.36772,0 -3.08164,0.84985c-0.11968,0.14044 -0.13,0.32292 0,0.46439c0.73352,0.80372 1.82505,0.78936 2.89697,0.73401c-0.12484,2.15794 -0.08667,4.3374 -0.09595,6.29236c-0.00825,1.43419 2.2336,1.13382 2.0221,-0.08816c0.08357,-1.99392 0.30951,-4.1088 0.44259,-6.21958c1.57539,0.04305 3.17243,0.10866 4.71893,-0.06459c0.9378,-0.10354 1.38142,-1.65664 0.2476,-1.81656" fill="#ffffff" fill-opacity="1"></path></g></g></svg>