<svg xmlns="http://www.w3.org/2000/svg" width="157" height="77" viewBox="0 0 157 77"><g><g transform="rotate(90 78.5 38.5)"><path fill="#5769ff" d="M115.925 5.649c2.81 26.182.053 58.19-7.572 79.805-7.302 20.696-19.362 33-31.642 31.408-6.054-.783-11.84-5.319-16.718-12.583-10.456-10.612-18.482-34.278-19.795-58.4-1.355-24.897 4.355-50.204 13.447-65.865 9.816-16.91 23.16-22.576 35.55-18.982 6.3 1.829 12.764 5.805 17.868 14.075 4.677 7.578 7.573 18.532 8.862 30.542zm-6.332-13.903c-6.067-22.09-20.069-28.129-31.21-27.146-11.487 1.015-22.851 10.958-30.18 30.232-7.198 18.934-9.906 44.678-5.73 67.712 1.853 10.224 4.872 19.436 8.547 27.102a100.64 100.64 0 0 1-2.88-10.077c-2.776-12.068-3.444-25.018-2.739-38.285.701-13.168 1.862-27.656 6.149-37.846.16-.376.474.134.332.543-4.24 12.28-5.504 30.355-5.553 45.237-.043 13.467 1.773 26.35 5.455 37.348 2.014 6.014 4.442 11.1 7.144 15.25 3.597 3.848 7.507 6.17 11.696 7.208 6.457 1.598 13.16 1.04 19.155-4.765 4.851-4.698 9.079-12.209 12.288-21.225 7.748-21.777 8.64-50.351 5.754-76.187-.093-.836.483-1.17.602-.353 4.303 29.29 2.12 63.003-8.14 85.629-7.772 17.144-19.329 23.613-30.286 20.491 4.55 2.32 9.374 2.548 14.146.415 11.895-5.31 21.572-23.409 25.887-47.476 3.966-22.115 5.407-52.53-.437-73.807z"/></g></g></svg>