<svg xmlns="http://www.w3.org/2000/svg" width="91" height="91" viewBox="0 0 91 91"><g><g><path fill="#464a59" d="M45.5 91C70.629 91 91 70.629 91 45.5S70.629 0 45.5 0 0 20.371 0 45.5 20.371 91 45.5 91z"/></g><g><path fill="#8d95ad" d="M45.5 58c4.259 0 7.946-1.527 10.96-4.541 3.013-3.013 4.54-6.7 4.54-10.96 0-4.257-1.527-7.945-4.541-10.959C53.445 28.527 49.759 27 45.5 27c-4.26 0-7.946 1.527-10.959 4.54C31.528 34.555 30 38.242 30 42.5c0 4.259 1.528 7.946 4.541 10.96C37.556 56.471 41.242 58 45.5 58z"/></g><g><path fill="#8d95ad" d="M72.87 76.25a37.48 37.48 0 0 0-.525-4.033 31.418 31.418 0 0 0-1.006-4.055 19.892 19.892 0 0 0-1.69-3.782c-.73-1.266-1.588-2.369-2.55-3.276-1.005-.95-2.237-1.713-3.661-2.27-1.42-.553-2.992-.834-4.675-.834-.66 0-1.3.268-2.533 1.06-.76.489-1.648 1.054-2.64 1.678-.848.533-1.996 1.032-3.415 1.484-1.384.442-2.79.666-4.176.666-1.388 0-2.792-.224-4.178-.666-1.417-.451-2.566-.95-3.413-1.483a362.604 362.604 0 0 1-2.642-1.68C34.534 58.268 33.894 58 33.234 58c-1.683 0-3.256.281-4.674.835-1.424.556-2.656 1.32-3.662 2.27-.962.907-1.82 2.01-2.548 3.275a19.93 19.93 0 0 0-1.69 3.783 31.492 31.492 0 0 0-1.006 4.054 37.347 37.347 0 0 0-.525 4.035 53.962 53.962 0 0 0-.129 3.77c0 3.332 1.074 6.03 3.192 8.019C24.284 90.004 27.052 91 30.417 91h31.166c3.365 0 6.132-.995 8.225-2.96C71.926 86.054 73 83.356 73 80.022c0-1.286-.044-2.555-.13-3.77z"/></g></g></svg>