<?xml version="1.0" encoding="UTF-8" standalone="no"?>
<!-- Created with Inkscape (http://www.inkscape.org/) -->

<svg
   xmlns:dc="http://purl.org/dc/elements/1.1/"
   xmlns:cc="http://creativecommons.org/ns#"
   xmlns:rdf="http://www.w3.org/1999/02/22-rdf-syntax-ns#"
   xmlns:svg="http://www.w3.org/2000/svg"
   xmlns="http://www.w3.org/2000/svg"
   xmlns:sodipodi="http://sodipodi.sourceforge.net/DTD/sodipodi-0.dtd"
   xmlns:inkscape="http://www.inkscape.org/namespaces/inkscape"
   width="1.6105796mm"
   height="2.5406659mm"
   viewBox="0 0 5.7067781 9.0023593"
   id="svg2"
   version="1.1"
   inkscape:version="0.91 r13725"
   sodipodi:docname="next.svg">
  <defs
     id="defs4" />
  <sodipodi:namedview
     id="base"
     pagecolor="#ffffff"
     bordercolor="#666666"
     borderopacity="1.0"
     inkscape:pageopacity="0.0"
     inkscape:pageshadow="2"
     inkscape:zoom="1.979899"
     inkscape:cx="134.16815"
     inkscape:cy="-186.78513"
     inkscape:document-units="px"
     inkscape:current-layer="layer1"
     showgrid="false"
     fit-margin-top="0"
     fit-margin-left="0"
     fit-margin-right="0"
     fit-margin-bottom="0"
     inkscape:window-width="1920"
     inkscape:window-height="976"
     inkscape:window-x="-8"
     inkscape:window-y="1432"
     inkscape:window-maximized="1" />
  <metadata
     id="metadata7">
    <rdf:RDF>
      <cc:Work
         rdf:about="">
        <dc:format>image/svg+xml</dc:format>
        <dc:type
           rdf:resource="http://purl.org/dc/dcmitype/StillImage" />
        <dc:title></dc:title>
      </cc:Work>
    </rdf:RDF>
  </metadata>
  <g
     inkscape:label="Layer 1"
     inkscape:groupmode="layer"
     id="layer1"
     transform="translate(-491.43233,-359.28959)">
    <g
       id="g4141"
       transform="translate(474.40666,342.79077)">
      <g
         id="g4143"
         transform="matrix(0,-1,1,0,-1.5,40.5)">
        <title
           id="title4145">Path</title>
        <path
           id="path4147"
           d="m 15.91994,19.46441 c 0.11991,-0.11255 0.31447,-0.11255 0.43439,0 l 3.14531,3.22255 0,0 3.14564,-3.22255 c 0.11991,-0.11255 0.31449,-0.11255 0.4344,0 0.11992,0.11254 0.11992,0.29507 0,0.4076 l -3.34723,3.42932 c -0.06394,0.05999 -0.14898,0.08569 -0.2325,0.0817 -0.0838,0.004 -0.16856,-0.02171 -0.23249,-0.0817 L 15.91992,19.8717 c -0.1199,-0.11251 -0.1199,-0.29475 2e-5,-0.40729 z"
           inkscape:connector-curvature="0"
           style="fill:#8d95ad;fill-opacity:1" />
        <path
           id="path4149"
           stroke-miterlimit="20"
           d="m 15.91994,19.46441 c 0.11991,-0.11255 0.31447,-0.11255 0.43439,0 l 3.14531,3.22255 0,0 3.14564,-3.22255 c 0.11991,-0.11255 0.31449,-0.11255 0.4344,0 0.11992,0.11254 0.11992,0.29507 0,0.4076 l -3.34723,3.42932 c -0.06394,0.05999 -0.14898,0.08569 -0.2325,0.0817 -0.0838,0.004 -0.16856,-0.02171 -0.23249,-0.0817 L 15.91992,19.8717 c -0.1199,-0.11251 -0.1199,-0.29475 2e-5,-0.40729 z"
           inkscape:connector-curvature="0"
           style="fill:#ffffff;fill-opacity:0;stroke:#8d95ad;stroke-width:1.6981132;stroke-linecap:butt;stroke-linejoin:miter;stroke-miterlimit:20;stroke-opacity:1" />
      </g>
    </g>
  </g>
</svg>
