<svg xmlns="http://www.w3.org/2000/svg" width="23" height="23" viewBox="0 0 23 23"><g><g><path fill="#00bb74" d="M14.474 9.555a.163.163 0 0 0-.245 0l-4.322 4.51-2.1-2.191a.163.163 0 0 0-.246 0 .235.235 0 0 0 0 .317l2.223 2.318a.168.168 0 0 0 .123.055.168.168 0 0 0 .122-.055l4.445-4.637a.235.235 0 0 0 0-.317zm-.967-.692a1.163 1.163 0 0 1 1.69 0 1.235 1.235 0 0 1 0 1.7l-4.446 4.638a1.168 1.168 0 0 1-.844.363c-.316 0-.62-.129-.845-.363L6.84 12.883a1.234 1.234 0 0 1 0-1.701 1.163 1.163 0 0 1 1.689 0l1.378 1.437zM11.5 23C17.851 23 23 17.851 23 11.5S17.851 0 11.5 0 0 5.149 0 11.5 5.149 23 11.5 23z"/></g></g></svg>