<?xml version="1.0" encoding="UTF-8"?>
<svg id="SVGDoc" width="24" height="24" xmlns="http://www.w3.org/2000/svg" version="1.1" xmlns:xlink="http://www.w3.org/1999/xlink" xmlns:avocode="https://avocode.com/" viewBox="0 0 24 24"><defs></defs><desc>Generated with Avocode.</desc><g><g><title>paint-brush copy</title><g><title>Path</title></g><g><title>Path</title><path d="M16.4077,15.65902v0l-8.01638,-7.96695c-0.00714,-0.00709 -0.01348,-0.01463 -0.02008,-0.02207l-0.07735,0.07687c-0.40635,0.40384 -0.54717,0.99992 -0.36902,1.54288c0.36157,1.10221 0.61237,2.52258 0.17677,3.93233c-0.56291,1.82169 -1.82237,3.22377 -3.67164,4.13118l2.25659,2.24264c0.91305,-1.8378 2.32384,-3.08956 4.15685,-3.64895c1.4185,-0.43291 2.84773,-0.18366 3.95676,0.17568c0.5463,0.17701 1.1461,0.03705 1.5524,-0.36674l0.0774,-0.07687c-0.0075,-0.00661 -0.0152,-0.01291 -0.0223,-0.02z" fill="#fcad6d" fill-opacity="1"></path></g><g><title>Path</title><path d="M8.54986,7.69207c-0.00742,-0.00709 -0.01401,-0.01467 -0.02083,-0.02207l-0.08045,0.07687c-0.42261,0.40384 -0.56908,0.99992 -0.3838,1.54288c0.37605,1.10221 0.6369,2.52258 0.18386,3.93233c-0.58545,1.82164 -1.89533,3.22373 -3.81864,4.13118l2.34694,2.24264c0.29675,-0.5743 0.64399,-1.0914 1.03945,-1.5479l-0.24784,-0.2736c-0.31091,-0.34316 -0.28906,-0.85515 0.04421,-1.17863c1.66897,-1.61998 2.65171,-3.97665 2.65171,-5.11424c0,-0.78507 0.57904,-1.07027 1.02267,-1.1738z" fill="#fd995b" fill-opacity="1"></path></g><g><title>Path</title><path d="M14.38316,0.85c-1.68898,1.80734 -2.69115,3.24365 -3.09316,3.86011c0.02384,0.0162 0.04671,0.03452 0.06789,0.0556l7.99897,7.94279c0.02119,0.021 0.03963,0.0438 0.05595,0.0674c0.61967,-0.3984 2.06189,-1.3905 3.87719,-3.06197z" fill="#ffe98d" fill-opacity="1"></path></g><g><title>Path</title><path d="M13.8881,0.85c-0.68968,0.69964 -1.27028,1.34333 -1.7481,1.90572c0.25645,0.15091 0.5054,0.38856 0.5054,0.74352v3.1006v0l6.48887,6.10866c0.02235,0.021 0.0418,0.0438 0.05902,0.0674c0.65361,-0.3984 2.17483,-1.3905 4.08962,-3.06197z" fill="#ffdd40" fill-opacity="1"></path></g><g><title>Path</title><path d="M18.8655,12.88323v0l-7.91967,-8.47619c-0.18318,-0.19605 -0.48021,-0.19605 -0.66339,0l-2.28505,2.44563c-0.18318,0.19606 -0.18318,0.51397 0,0.71002l7.91964,8.47621c0.18318,0.196 0.48022,0.196 0.6634,0l2.28508,-2.44565c0.1832,-0.1961 0.1832,-0.51396 0,-0.71002z" fill="#dae2fe" fill-opacity="1"></path></g><g><title>Path</title><path d="M11.15485,4.40141c-0.19559,-0.18855 -0.51275,-0.18855 -0.70834,0l-2.43982,2.35199c-0.19559,0.18855 -0.19559,0.49429 0,0.68284l2.00713,1.93487c0.02936,-0.05805 0.04456,-0.12328 0.04049,-0.19089c-0.06205,-1.02847 0.71474,-1.30482 1.14823,-1.37906c0.15037,-0.02574 0.27386,-0.13324 0.30842,-0.27667c0.09052,-0.37583 0.38332,-0.52723 0.60238,-0.58822c0.13396,-0.03728 0.23725,-0.14153 0.26825,-0.27257c0.06251,-0.26436 0.29971,-0.36911 0.47328,-0.41058c0.05485,-0.01312 0.10483,-0.03759 0.14799,-0.07023z" fill="#bec8f7" fill-opacity="1"></path></g><g><title>Path</title><path d="M3.01805,18.31931c-0.10672,0.03784 -0.2092,0.08255 -0.30804,0.13252c0.75401,1.12741 1.7288,2.09619 2.86326,2.84559c0.05028,-0.09828 0.09531,-0.20008 0.13334,-0.30615c0.12759,-0.3559 0.2718,-0.69338 0.43197,-1.01199l-2.1022,-2.08927c-0.32063,0.15918 -0.66025,0.3025 -1.01832,0.42931z" fill="#e80054" fill-opacity="1"></path></g><g><title>Path</title><path d="M18.9287,13.57463v0l-8.44734,-8.39518c-0.09317,-0.09259 -0.24422,-0.09259 -0.33739,0l-0.5041,0.50099c-0.09317,0.09259 -0.09317,0.24272 0,0.33531l8.44729,8.39519c0.09317,0.09259 0.24422,0.09259 0.33739,0l0.5041,-0.50099c0.09321,-0.09259 0.09321,-0.24272 0.00004,-0.33531z" fill="#e9efff" fill-opacity="1"></path></g><g><title>Path</title><path d="M10.38096,4.34212c-0.0829,-0.1095 -0.21732,-0.1095 -0.30022,0l-0.44856,0.59245c-0.0829,0.1095 -0.0829,0.28703 0,0.39652l1.76891,2.33631c0.04198,-0.05375 0.07298,-0.12219 0.08672,-0.2004c0.07531,-0.42843 0.31893,-0.60103 0.50119,-0.67055c0.06023,-0.02297 0.11255,-0.06875 0.15243,-0.12913z" fill="#dae2fe" fill-opacity="1"></path></g><g transform="rotate(157.49 22.86500000000001 18.799999999999955)"><title>Oval</title><path d="M21.89,18.79971c0,-0.54108 0.43695,-0.97971 0.97595,-0.97971c0.539,0 0.97595,0.43863 0.97595,0.97971c0,0.54108 -0.43695,0.97971 -0.97595,0.97971c-0.539,0 -0.97595,-0.43863 -0.97595,-0.97971z" fill="#ff4155" fill-opacity="1"></path></g><g><title>Path</title><path d="M23.28844,8.6993c0.00164,-0.19286 -0.06882,-0.38652 -0.21156,-0.53384l-7.69982,-7.94703c-0.28535,-0.29456 -0.74997,-0.29096 -1.02967,0.0093c-0.16875,0.18111 -0.33102,0.35901 -0.48739,0.53357v8.28796c0,0.53745 0.42214,0.97313 0.94287,0.97313c0.52072,0 0.94282,-0.43573 0.94282,-0.97313v-2.1634c0.00008,-0.5374 0.42214,-0.97301 0.94286,-0.97301c0.52073,0 0.94287,0.4357 0.94287,0.9731v11.73354c0,0.5374 0.42214,0.9731 0.94287,0.9731c0.52072,0 0.94282,-0.4357 0.94282,-0.9731v-4.8456c0,-0.5374 0.42214,-0.9731 0.94286,-0.9731c0.52073,0 0.94287,0.4357 0.94287,0.9731v1.5513c0,0.5375 0.42214,0.9731 0.94287,0.9731c0.52072,0 0.94286,-0.4357 0.94286,-0.9731v-6.6259v0z" fill="#ff4155" fill-opacity="1"></path></g><g><title>Path</title><path d="M19.86,4.46319v0l-4.35847,-4.24042c-0.3088,-0.30039 -0.81148,-0.29676 -1.11417,0.00949c-0.18259,0.18477 -0.35817,0.36617 -0.52736,0.54417v8.45328c0,0.54812 0.45677,0.99249 1.0202,0.99249c0.56343,0 1.02015,-0.44437 1.02015,-0.99249v-2.20655c0.00009,-0.54812 0.45676,-0.99242 1.02019,-0.99242c0.36559,0 0.68606,0.18722 0.86622,0.46831c-0.15403,-2.08303 2.07315,-2.03586 2.07324,-2.03586z" fill="#e80054" fill-opacity="1"></path></g></g></g></svg>