<?xml version="1.0" encoding="UTF-8"?>
<svg id="SVGDoc" width="128" height="44" xmlns="http://www.w3.org/2000/svg" version="1.1" xmlns:xlink="http://www.w3.org/1999/xlink" xmlns:avocode="https://avocode.com/" viewBox="0 0 128 44"><defs></defs><desc>Generated with Avocode.</desc><g><g><title>Fill 77</title><path d="M127.30466,19.31634c-7.57744,-4.33398 -16.63198,-4.19938 -25.31269,-3.62152c-10.73572,0.71605 -21.36637,2.41555 -31.82121,4.67316c-10.70743,2.31505 -21.23907,5.22591 -31.702,8.28571c-5.39716,1.57567 -10.77411,3.20518 -16.1652,4.7952c-4.61921,1.36031 -12.06733,4.79519 -17.20989,3.41334c1.87315,-3.83328 7.12078,-5.94553 11.0469,-7.79398c4.60304,-2.16789 9.37986,-4.01275 14.27792,-5.5938c9.73145,-3.14236 19.82865,-5.31922 29.96019,-7.1551c21.65128,-3.92661 43.65212,-6.0245 65.60852,-8.06318c1.77615,-0.16331 2.95419,-2.4317 1.00628,-3.29849c-17.9939,-8.0237 -40.47566,-4.61035 -59.45967,-1.52542c-22.68989,3.68792 -45.00394,9.64064 -66.70775,16.52296c-1.42658,0.45225 -0.86888,2.40119 0.63246,2.04227c20.45505,-4.8939 40.62519,-10.67433 61.43789,-14.32457c16.86233,-2.95572 37.61846,-6.74234 54.89503,-2.1643c-21.49569,2.09252 -43.0035,4.35911 -64.12738,8.54414c-10.71147,2.12302 -21.31383,4.75212 -31.409,8.61591c-7.04399,2.6973 -19.66295,6.72081 -20.85918,14.62427c-0.09295,0.61017 0.04648,1.36211 0.76179,1.6636c3.23304,1.36032 6.23168,1.07497 9.63244,0.23151c5.30825,-1.31545 10.51951,-3.11724 15.74289,-4.68214c10.75795,-3.22132 21.52397,-6.43905 32.44761,-9.19737c10.78422,-2.71883 21.7321,-4.9908 32.85781,-6.28651c9.58799,-1.11625 21.02083,-2.61834 30.14811,1.09471c-7.63604,1.931 -15.70046,2.20198 -23.56685,3.00597c-7.55724,0.77168 -15.09629,1.71026 -22.55855,3.02033c-15.79745,2.77446 -31.14833,7.32021 -44.80389,15.01549c-1.02043,0.57607 -1.03862,2.33478 0.3718,2.53399c10.17195,1.42312 19.79227,-2.44067 29.52979,-4.49729c3.28154,-0.69452 34.77944,-5.87376 34.24801,-2.37607c-0.21014,1.36929 2.1136,2.00279 2.38841,0.58684c1.51549,-7.79937 -17.63826,-3.7956 -21.4876,-3.32182c-6.59338,0.81116 -13.13423,1.94177 -19.58819,3.39002c-6.4479,1.44825 -12.88367,3.60178 -19.53363,3.76509c12.78668,-6.48572 26.87466,-10.41053 41.33645,-12.90324c8.34327,-1.43748 16.77949,-2.43708 25.22783,-3.23927c7.59159,-0.71964 15.17711,-1.13599 22.41508,-3.47616c1.14975,-0.37148 1.40839,-1.69411 0.33947,-2.30428" fill="#ffffff" fill-opacity="1"></path></g></g></svg>