<?xml version="1.0" encoding="UTF-8"?>
<svg id="SVGDoc" width="19" height="19" xmlns="http://www.w3.org/2000/svg" version="1.1" xmlns:xlink="http://www.w3.org/1999/xlink" xmlns:avocode="https://avocode.com/" viewBox="0 0 19 19"><defs><linearGradient id="LinearGradient1197" gradientUnits="userSpaceOnUse" x1="0.24150508039633678" y1="9.45250004529953" x2="19.23898446559906" y2="9.45250004529953"><stop stop-opacity="1" stop-color="#3c89bc" offset="0"></stop><stop stop-opacity="1" stop-color="#53a0fd" offset="0.48"></stop><stop stop-opacity="1" stop-color="#b4ec51" offset="1"></stop></linearGradient></defs><desc>Generated with Avocode.</desc><g><g><title>Shape</title><path d="M19,2.11111v4.22222h-2.11111v-4.22222h-4.22222v-2.11111h4.22222c1.16111,0 2.11111,0.95 2.11111,2.11111zM16.88889,12.66667h2.11111v4.22222c0,1.16111 -0.95,2.11111 -2.11111,2.11111h-4.22222v-2.11111h4.22222zM2.11111,16.88889h4.22222v2.11111h-4.22222c-1.16111,0 -2.11111,-0.95 -2.11111,-2.11111v-4.22222h2.11111zM2.11111,0h4.22222v2.11111h-4.22222v4.22222h-2.11111v-4.22222c0,-1.16111 0.95,-2.11111 2.11111,-2.11111z" fill="url(#LinearGradient1197)"></path></g></g></svg>