<?xml version="1.0" encoding="UTF-8"?>
<svg id="SVGDoc" width="16" height="16" xmlns="http://www.w3.org/2000/svg" version="1.1" xmlns:xlink="http://www.w3.org/1999/xlink" xmlns:avocode="https://avocode.com/" viewBox="0 0 16 16"><defs></defs><desc>Generated with Avocode.</desc><g><g><title>united-states</title><g><title>Oval</title><path d="M7.52941,15.05882c4.15838,0 7.52941,-3.37103 7.52941,-7.52941c0,-4.15838 -3.37103,-7.52941 -7.52941,-7.52941c-4.15838,0 -7.52941,3.37103 -7.52941,7.52941c0,4.15838 3.37103,7.52941 7.52941,7.52941z" fill="#f0f0f0" fill-opacity="1"></path></g><g><title>Group</title><g><title>Path</title><path d="M7.2,7.53421v0h7.85676c0,-0.67959 -0.09058,-1.33795 -0.25938,-1.96421h-7.59738v0z" fill="#d80027" fill-opacity="1"></path></g><g><title>Path</title><path d="M7.2,3.60421v0h6.75165c-0.46091,-0.75212 -1.05024,-1.41692 -1.73736,-1.96421h-5.01429v0z" fill="#d80027" fill-opacity="1"></path></g><g><title>Path</title><path d="M7.52693,15.05682c1.77203,0 3.40077,-0.61247 4.68693,-1.63682h-9.37387c1.28618,1.02435 2.91491,1.63682 4.68693,1.63682z" fill="#d80027" fill-opacity="1"></path></g><g><title>Path</title><path d="M1.10574,11.45416h12.84858c0.37003,-0.60378 0.657,-1.26377 0.84574,-1.96416h-14.54006c0.18874,0.70039 0.47571,1.36037 0.84574,1.96416z" fill="#d80027" fill-opacity="1"></path></g></g><g><title>Shape</title><path d="M6.22955,1.6395l0.24261,0.75027l-0.63512,-0.46368l-0.63513,0.46368l0.24262,-0.75027l-0.63516,-0.46368h0.78507l0.24259,-0.75026l0.24258,0.75026h0.78507zM6.22955,3.83285l0.24261,0.75027l-0.63512,-0.46368l-0.63513,0.46368l0.24262,-0.75027l-0.63516,-0.46368h0.78507l0.24259,-0.75026l0.24258,0.75026h0.78507zM6.47216,6.7865l-0.63512,-0.46605l-0.63513,0.46605l0.24262,-0.7541l-0.63516,-0.46605h0.78507l0.24259,-0.75409l0.24258,0.75409h0.78507l-0.63515,0.46605zM3.52879,3.83285l0.24261,0.75027l-0.63512,-0.46368l-0.63513,0.46368l0.24262,-0.75027l-0.63516,-0.46368h0.78507l0.24259,-0.75026l0.24258,0.75026h0.78507zM3.7714,6.7865l-0.63512,-0.46605l-0.63513,0.46605l0.24262,-0.7541l-0.63516,-0.46605h0.78507l0.24259,-0.75409l0.24258,0.75409h0.78507l-0.63515,0.46605zM3.48776,1.17582h0.68615l-0.63823,0.46368l0.24379,0.75026l-0.63821,-0.46367l-0.6382,0.46367l0.21059,-0.64814c-0.56194,0.46809 -1.05447,1.0165 -1.46036,1.62756h0.21986l-0.40627,0.29514c-0.06329,0.10559 -0.124,0.21286 -0.18217,0.32171l0.194,0.59709l-0.36195,-0.26297c-0.08997,0.19061 -0.17226,0.38553 -0.24623,0.5845l0.21373,0.65788h0.78889l-0.63824,0.46368l0.2438,0.75026l-0.63821,-0.46368l-0.38229,0.27777c-0.03827,0.30759 -0.05821,0.62088 -0.05821,0.93885h7.52941c0,-4.15835 0,-4.64859 0,-7.52941c-1.48741,0 -2.87397,0.43147 -4.04165,1.17582z" fill="#0052b4" fill-opacity="1"></path></g></g></g></svg>