<svg xmlns="http://www.w3.org/2000/svg" width="43" height="17" viewBox="0 0 43 17"><g><g><path fill="#5769ff" d="M42.766 7.463c-2.545-1.674-5.587-1.622-8.503-1.4-3.607.278-7.178.934-10.69 1.806-3.597.895-7.135 2.02-10.65 3.202-1.813.609-3.62 1.238-5.43 1.852-1.552.526-4.054 1.853-5.782 1.32.63-1.482 2.392-2.298 3.711-3.012A37.335 37.335 0 0 1 10.22 9.07c3.269-1.214 6.66-2.055 10.064-2.765 7.274-1.517 14.665-2.327 22.04-3.115.597-.063.993-.94.339-1.275-6.045-3.1-13.597-1.78-19.975-.589C15.065 2.751 7.57 5.051.277 7.71c-.479.175-.291.928.213.789 6.872-1.89 13.647-4.124 20.64-5.534C26.793 1.823 33.766.36 39.57 2.128c-7.22.809-14.446 1.685-21.542 3.301-3.599.82-7.16 1.837-10.552 3.33C5.11 9.8.871 11.354.47 14.408c-.031.235.016.526.256.642 1.086.526 2.093.416 3.236.09 1.783-.508 3.534-1.205 5.288-1.81 3.614-1.244 7.231-2.487 10.9-3.553 3.624-1.05 7.301-1.928 11.039-2.429 3.22-.43 7.062-1.011 10.128.423-2.565.746-5.275.851-7.917 1.162-2.539.298-5.072.66-7.578 1.167-5.307 1.072-10.464 2.828-15.052 5.801-.343.223-.349.902.125.98 3.417.549 6.65-.944 9.92-1.738 1.103-.269 11.684-2.27 11.505-.918-.07.529.71.773.803.226.509-3.013-5.926-1.466-7.219-1.283-2.215.313-4.412.75-6.58 1.31-2.166.56-4.328 1.391-6.562 1.454 4.295-2.505 9.028-4.022 13.886-4.985 2.803-.555 5.637-.942 8.475-1.252 2.55-.278 5.099-.438 7.53-1.343.387-.143.473-.654.114-.89"/></g></g></svg>