<svg xmlns="http://www.w3.org/2000/svg" width="14" height="13" viewBox="0 0 14 13"><g><g><g><path fill="#3b4145" d="M8.83 1.088l4.888 8.465a2.113 2.113 0 0 1-1.83 3.167H7L5.31 6.375 7 .03c.783 0 1.465.426 1.83 1.058z"/></g><g><path fill="#525a61" d="M5.17 1.088L.282 9.553a2.113 2.113 0 0 0 1.83 3.167H7V.03c-.783 0-1.465.426-1.83 1.058z"/></g><g><path fill="#ffb751" d="M12.99 9.97L8.102 1.505A1.272 1.272 0 0 0 7.04.87l4.18 11h.671a1.27 1.27 0 0 0 1.099-1.9z"/></g><g><path fill="#ffd764" d="M12.169 9.97c.095.192.146.411.146.633 0 .699-.49 1.268-1.094 1.268H2.118a1.27 1.27 0 0 1-1.099-1.9l4.887-8.465A1.273 1.273 0 0 1 7.041.87c.376.015.723.255.912.635z"/></g><g><path fill="#3b4145" d="M7 9.05v1.408A.704.704 0 1 0 7 9.05z"/></g><g><path fill="#525a61" d="M7.004 9.05c.078 0 .141.315.141.704 0 .39-.063.704-.14.704a.704.704 0 1 1 0-1.408z"/></g><g><path fill="#3b4145" d="M7 3v5.211a.704.704 0 0 0 .704-.704V3.704A.704.704 0 0 0 7 3z"/></g><g><path fill="#525a61" d="M7.004 3c.078 0 .141.315.141.704v3.803c0 .389-.063.704-.14.704a.704.704 0 0 1-.705-.704V3.704c0-.389.315-.704.704-.704z"/></g></g></g></svg>