<?xml version="1.0" encoding="UTF-8"?>
<svg id="SVGDoc" width="57" height="65" xmlns="http://www.w3.org/2000/svg" version="1.1" xmlns:xlink="http://www.w3.org/1999/xlink" xmlns:avocode="https://avocode.com/" viewBox="0 0 57 65"><defs><linearGradient id="LinearGradient1050" gradientUnits="userSpaceOnUse" x1="20.5" y1="45" x2="20.5" y2="65"><stop stop-opacity="1" stop-color="#eff7ff" offset="0"></stop><stop stop-opacity="1" stop-color="#a4ceff" offset="1"></stop></linearGradient><linearGradient id="LinearGradient1058" gradientUnits="userSpaceOnUse" x1="27.951562500000023" y1="65" x2="49.03359375000002" y2="34"><stop stop-opacity="1" stop-color="#2990ff" offset="0"></stop><stop stop-opacity="1" stop-color="#3b9bff" offset="1"></stop></linearGradient><linearGradient id="LinearGradient1071" gradientUnits="userSpaceOnUse" x1="20.5" y1="45" x2="20.5" y2="65"><stop stop-opacity="1" stop-color="#eff7ff" offset="0"></stop><stop stop-opacity="1" stop-color="#a4ceff" offset="1"></stop></linearGradient><linearGradient id="LinearGradient1079" gradientUnits="userSpaceOnUse" x1="27.951562500000023" y1="65" x2="49.03359375000002" y2="34"><stop stop-opacity="1" stop-color="#2990ff" offset="0"></stop><stop stop-opacity="1" stop-color="#3b9bff" offset="1"></stop></linearGradient></defs><desc>Generated with Avocode.</desc><g><g><title>image</title><g><title>Path</title><path d="M57,9.14056v46.71888c0,5.03743 -2.87852,9.14056 -6.41248,9.14056h-44.17504c-0.28493,0 -0.56986,-0.04091 -0.82661,-0.08182c-2.99228,-0.5274 -5.32912,-4.02131 -5.55717,-8.32752c-0.0287,-0.24399 -0.0287,-0.48797 -0.0287,-0.73122v-46.71888c0,-5.03743 2.87852,-9.14056 6.41248,-9.14056h44.17504c3.53396,0 6.41248,4.10313 6.41248,9.14056z" fill="#191c22" fill-opacity="1"></path></g><g><title>Group 13</title><g><title>Path</title><path d="M21,33.5c0,3.03726 -2.6862,5.5 -5.99973,5.5c-3.31407,0 -6.00027,-2.46274 -6.00027,-5.5c0,-3.03726 2.6862,-5.5 6.00027,-5.5c3.31353,0 5.99973,2.46274 5.99973,5.5z" fill="#2f94ff" fill-opacity="1"></path></g><g><title>Path</title><path d="M40,65v0h-32.78234c-0.27752,0 -0.55503,-0.02748 -0.8051,-0.05496c-2.91442,-0.35422 -5.19045,-2.70085 -5.41256,-5.59306l13.18501,-12.96071c1.88771,-1.85503 4.99629,-1.85503 6.884,0z" fill="url(#LinearGradient1050)"></path></g><g><title>Path</title><path d="M57,50.51588v0v8.04371c0,3.54935 -2.35145,6.44041 -5.23833,6.44041h-36.08642c-0.23275,0 -0.46551,-0.02883 -0.67525,-0.05765l23.98003,-29.48241c1.58326,-1.94659 4.19049,-1.94659 5.77375,0z" fill="url(#LinearGradient1058)"></path></g></g><g><title>Path</title><path d="M21,33.5c0,3.03726 -2.6862,5.5 -5.99973,5.5c-3.31407,0 -6.00027,-2.46274 -6.00027,-5.5c0,-3.03726 2.6862,-5.5 6.00027,-5.5c3.31353,0 5.99973,2.46274 5.99973,5.5z" fill="#2f94ff" fill-opacity="1"></path></g><g><title>Path</title><path d="M40,65v0h-32.78234c-0.27752,0 -0.55503,-0.02748 -0.8051,-0.05496c-2.91442,-0.35422 -5.19045,-2.70085 -5.41256,-5.59306l13.18501,-12.96071c1.88771,-1.85503 4.99629,-1.85503 6.884,0z" fill="url(#LinearGradient1071)"></path></g><g><title>Path</title><path d="M57,50.51588v0v8.04371c0,3.54935 -2.35145,6.44041 -5.23833,6.44041h-36.08642c-0.23275,0 -0.46551,-0.02883 -0.67525,-0.05765l23.98003,-29.48241c1.58326,-1.94659 4.19049,-1.94659 5.77375,0z" fill="url(#LinearGradient1079)"></path></g></g></g></svg>