<svg xmlns="http://www.w3.org/2000/svg" width="26" height="26" viewBox="0 0 26 26"><g><g><g><g><path fill="#e3e9f0" d="M26 3.656v18.688C26 24.359 24.687 26 23.075 26H2.925c-.13 0-.26-.016-.377-.033-1.365-.21-2.43-1.608-2.535-3.33C0 22.538 0 22.44 0 22.343V3.656C0 1.641 1.313 0 2.925 0h20.15C24.687 0 26 1.641 26 3.656z"/></g><g><path fill="#cdd6e1" d="M9 9.5a2.5 2.5 0 1 1-5 0 2.5 2.5 0 0 1 5 0z"/></g><g><path fill="#cdd6e1" d="M18 25H2.87a3.51 3.51 0 0 1-.372-.025C1.153 24.815.103 23.76 0 22.458l6.085-5.832c.872-.835 2.306-.835 3.178 0z"/></g><g><path fill="#a9bcd2" d="M26 18.459v3.632C26 23.694 24.936 25 23.63 25H7.305c-.105 0-.21-.013-.305-.026l10.848-13.315c.716-.879 1.896-.879 2.612 0z"/></g></g></g></g></svg>