<svg xmlns="http://www.w3.org/2000/svg" width="70" height="70" viewBox="0 0 70 70"><g><g><g><path fill="#ffd508" d="M70 35c0 19.33-15.718 35-35.107 35C15.503 70 4 54.33 4 35 4 22.423 6.44 11.395 16.43 5.225A35.022 35.022 0 0 1 34.894 0C54.283 0 70 15.67 70 35z"/></g><g><path fill="#fcb54c" d="M38.123 69.873c2.637-.25 3.434-3.904.463-5.03-2.679-1.016-1.933-4.954.936-4.954h20.37c.144-.157 1.755-1.668 3.528-4.05 4.242-5.7 5.58-10.497 5.58-15.005V26.706c0-.454-.07-.905-.2-1.34l-.005-.018a4.683 4.683 0 0 0-4.492-3.319h-.315a1.52 1.52 0 0 1-1.528-1.511v-.425a.708.708 0 0 0-.712-.704H54.74a.708.708 0 0 0-.711.704v.425a1.52 1.52 0 0 1-1.528 1.511h-2.61c-.74 0-1.373-.524-1.504-1.244l-.711-3.915a2.093 2.093 0 0 0-2.066-1.71H30.688c-1.016 0-1.886.72-2.066 1.71l-.937 5.16h-2.373a.669.669 0 0 1-.672-.666c0-.367.3-.665.672-.665h.471l-.226-2.282c-3.117-.164-4.836-3.669-3.023-6.182l.11-.152c2.874-3.945-1.812-8.943-5.99-6.383C6.68 11.81 0 22.73 0 35.256 0 54.479 15.765 70 35.123 70c.966 0 1.993-.043 3-.127z"/></g><g><g><path fill="#67b5ec" d="M58.443 25.515H50.09v-2.051c0-.643.52-1.164 1.161-1.164h6.03c.642 0 1.162.521 1.162 1.164v2.051z"/></g><g><path fill="#67b5ec" d="M13.47 23.19h7.507v2.992H13.47z"/></g><g><path fill="#a2dffd" d="M12.44 20.99h9.667v2.63H12.44z"/></g><g><path fill="#fff" d="M16.83 24.95h48.095v9.808H16.83z"/></g><g><path fill="#fff" d="M16.83 52.87h48.095v4.371H16.83z"/></g><g><path fill="#67b5ec" d="M41.137 34.756A13.91 13.91 0 0 0 34.56 33a13.98 13.98 0 0 0-7.001 1.755z"/></g><g><path fill="#d5f1fe" d="M46.973 55.88a2.418 2.418 0 0 1-.091-2.359c.11-.213.212-.431.31-.651H21.515c.101.224.205.44.311.648.383.748.35 1.642-.087 2.36a2.406 2.406 0 0 1-2.054 1.156h-.01a2.416 2.416 0 0 1-2.413-2.42V52.87H4.08v10.093h60.84v-5.93H49.027a2.407 2.407 0 0 1-2.054-1.153z"/></g><g><path fill="#d5f1fe" d="M4.08 24.95h13.182v9.808H4.08z"/></g><g><path fill="#5769ff" d="M14.13 34.55h50.79v16.225H14.13z"/></g><g><path fill="#3243c0" d="M51.282 50.419a2.9 2.9 0 0 1-2.887-3.066 14.139 14.139 0 0 0-.442-4.45 4.903 4.903 0 0 1 1.083-4.513 4.14 4.14 0 0 0 1.042-3.046c-.134-2.024-1.751-3.678-3.768-3.849a4.14 4.14 0 0 0-4.38 3.141 13.995 13.995 0 0 0-8.295-2.2c-7.259.363-13.09 6.31-13.337 13.59-.016.467-.008.91.016 1.324a2.901 2.901 0 0 1-.782 2.157 2.887 2.887 0 0 1-2.102.911h-.009c-1.6 0-2.899-1.3-2.899-2.905V34.545H4.08V53.36h60.84V50.42z"/></g><g><path fill="#82abca" d="M50.09 33.878a4.143 4.143 0 0 0-4.138-4.148 4.141 4.141 0 0 0-4.018 3.156 13.976 13.976 0 0 0-7.576-2.218L20.69 48.105c1.496 6.174 7.048 10.758 13.668 10.758 7.768 0 14.065-6.312 14.065-14.098 0-2.467-.633-4.786-1.745-6.804a4.146 4.146 0 0 0 3.413-4.083z"/></g><g><path fill="#4a82ae" d="M25.209 47.423c0-6.418 4.202-11.601 9.725-13.413 1.84-.604 1.389-3.336-.547-3.34l-.202.001c-7.619.09-13.834 6.345-13.895 13.982a14.17 14.17 0 0 0 .397 3.454c.647 2.668 4.547 2.193 4.522-.553v-.13z"/></g><g><path fill="#323b49" d="M34.36 33.32c-.884 0-1.744.1-2.57.291l2.57 22.591c6.304 0 11.415-5.122 11.415-11.44 0-6.32-5.11-11.442-11.415-11.442z"/></g><g><path fill="#1b1e21" d="M43.483 45.616c-.125-4.782-3.978-8.704-8.746-8.9a9.196 9.196 0 0 0-1.771.098c-.914.14-1.395-1.049-.626-1.564l.096-.063c.808-.53.289-1.79-.651-1.572-5.001 1.159-8.845 5.652-8.845 11.153 0 6.601 5.538 11.755 11.97 11.428.338-.017.398-.49.077-.6l-.03-.011c-.316-.11-.248-.573.086-.598 4.802-.353 8.569-4.446 8.44-9.371z"/></g><g><path fill="#fff" d="M34.36 35.61c-4.58 0-8.373 3.38-9.03 7.787l15.005 8.285a9.14 9.14 0 0 0 3.156-6.92c0-5.055-4.088-9.152-9.13-9.152z"/></g><g><path fill="#a2dffd" d="M40.336 51.68c.755-.654.008-1.85-.91-1.457l-.073.031c-.814.34-1.54-.615-1.019-1.328.64-.878.999-1.975.94-3.159-.132-2.627-2.353-4.71-4.977-4.677a4.907 4.907 0 0 0-4.275 2.608c-.528.987-2.009.782-2.265-.309a6.838 6.838 0 0 1-.021-.092c-.295-1.313-2.206-1.233-2.405.098a9.245 9.245 0 0 0-.1 1.552c.1 5.002 4.274 9.037 9.265 8.964a9.082 9.082 0 0 0 5.84-2.23z"/></g><g><path fill="#fff" d="M44.946 26.188H23.77l1.457-8.128h18.262z"/></g><g><path fill="#e04955" d="M45.953 35.614c.957 0 1.733-.777 1.733-1.737 0-.96-.776-1.737-1.733-1.737-.957 0-1.733.778-1.733 1.737 0 .96.776 1.737 1.733 1.737z"/></g><g><path fill="#a2dffd" d="M52.35 27.8h8.662v4.282H52.35z"/></g><g><path fill="#e04955" d="M21.852 31.611c.863 0 1.562-.7 1.562-1.565s-.7-1.566-1.562-1.566c-.863 0-1.562.7-1.562 1.566 0 .864.7 1.565 1.562 1.565z"/></g><g><path fill="#323b49" d="M35.344 39.931c-.317-.064-3.878 3.036-4.214 3.036v5.512a4.893 4.893 0 0 0 3.232 1.214 4.924 4.924 0 0 0 4.919-4.93 4.929 4.929 0 0 0-3.937-4.832z"/></g><g><path fill="#1b1e21" d="M31.977 46.03a4.934 4.934 0 0 1 3.43-4.702c.707-.225.66-1.242-.066-1.39-.44-.09-.903-.12-1.377-.082a4.935 4.935 0 0 0-4.495 4.37 4.928 4.928 0 0 0 1.658 4.26c.557.486 1.384-.102 1.136-.799a4.93 4.93 0 0 1-.286-1.657z"/></g><g><path fill="#d5f1fe" d="M28.2 21.43h12.445v3.519H28.2z"/></g><g><path fill="#fff" d="M35.171 45.213a2.244 2.244 0 0 0 2.241-2.247 2.244 2.244 0 0 0-2.24-2.246 2.244 2.244 0 0 0-2.242 2.246 2.244 2.244 0 0 0 2.241 2.247z"/></g><g><path fill="#fff" d="M36.102 48.74c.724 0 1.311-.59 1.311-1.315 0-.726-.587-1.315-1.311-1.315-.725 0-1.312.589-1.312 1.315s.587 1.314 1.312 1.314z"/></g></g></g></g></svg>