<?xml version="1.0" encoding="UTF-8"?>
<svg width="116px" height="26px" viewBox="0 0 116 26" version="1.1" xmlns="http://www.w3.org/2000/svg" xmlns:xlink="http://www.w3.org/1999/xlink">
    <!-- Generator: Sketch 52.6 (67491) - http://www.bohemiancoding.com/sketch -->
    <title>Group 6 Copy</title>
    <desc>Created with Sketch.</desc>
    <defs>
        <path d="M13.5074068,0 L13.5074068,10.3496465 C13.5074068,11.5597362 14.5093452,12.5407077 15.7452989,12.5407077 C16.9812525,12.5407077 17.9831909,11.5597362 17.9831909,10.3496465 L17.9831909,1.50972155 L17.9839343,1.50972155 C17.9926321,1.19685083 18.0773158,0.902592209 18.2205332,0.644067147 C22.0008734,2.05729041 24.6859504,5.64106837 24.6859504,9.83885608 L24.6859504,14.3305078 C24.6859504,19.7643579 20.1867936,24.1693638 14.6368025,24.1693638 L10.049148,24.1693638 C4.49915679,24.1693638 6.79677892e-16,19.7643579 0,14.3305078 L0,9.83885608 C-5.20919015e-16,5.67424235 2.64280587,2.11397201 6.37599819,0.677978015 C6.71041963,1.01476717 6.92091511,1.4712925 6.93490239,1.97611151 L6.93564586,1.97611151 L6.93564586,6.01740205 C6.93564586,7.22749171 7.93758424,8.20846319 9.17353788,8.20846319 C10.4094915,8.20846319 11.4114299,7.22749171 11.4114299,6.01740205 L11.4114299,0 L13.5074068,0 Z" id="path-1"></path>
    </defs>
    <g id="Page-1" stroke="none" stroke-width="1" fill="none" fill-rule="evenodd">
        <g id="Group-6-Copy" transform="translate(0.000000, -1.000000)">
            <path d="M38.897,9.718 L40.938,9.718 L40.938,13.28 L44.695,13.28 L44.695,9.718 L46.736,9.718 L46.736,19 L44.695,19 L44.695,14.996 L40.938,14.996 L40.938,19 L38.897,19 L38.897,9.718 Z M58.172286,15.49 C58.172286,16.746673 57.8212895,17.6804969 57.119286,18.2915 C56.4172825,18.9025031 55.4466255,19.208 54.207286,19.208 C52.9506131,19.208 51.9777894,18.9046697 51.288786,18.298 C50.5997826,17.6913303 50.255286,16.7553397 50.255286,15.49 L50.255286,9.718 L52.296286,9.718 L52.296286,15.49 C52.296286,15.7413346 52.3179524,15.9883321 52.361286,16.231 C52.4046195,16.4736679 52.4956186,16.6881657 52.634286,16.8745 C52.7729534,17.0608343 52.9657848,17.2124994 53.212786,17.3295 C53.4597872,17.4465006 53.7912839,17.505 54.207286,17.505 C54.9352896,17.505 55.4379513,17.3425016 55.715286,17.0175 C55.9926207,16.6924984 56.131286,16.1833368 56.131286,15.49 L56.131286,9.718 L58.172286,9.718 L58.172286,15.49 Z M63.732572,13.475 L65.799572,13.475 C66.1635738,13.475 66.4625708,13.3883342 66.696572,13.215 C66.9305732,13.0416658 67.047572,12.7600019 67.047572,12.37 C67.047572,12.1533322 67.0085724,11.9756674 66.930572,11.837 C66.8525716,11.6983326 66.7485726,11.5900004 66.618572,11.512 C66.4885714,11.4339996 66.3390728,11.3798335 66.170072,11.3495 C66.0010712,11.3191665 65.8255729,11.304 65.643572,11.304 L63.732572,11.304 L63.732572,13.475 Z M61.691572,9.718 L66.059572,9.718 C66.5015742,9.718 66.9045702,9.75699961 67.268572,9.835 C67.6325738,9.91300039 67.9445707,10.0408324 68.204572,10.2185 C68.4645733,10.3961676 68.6660713,10.6323319 68.809072,10.927 C68.9520727,11.2216681 69.023572,11.5856645 69.023572,12.019 C69.023572,12.4870023 68.9174064,12.8769984 68.705072,13.189 C68.4927376,13.5010016 68.1785741,13.7566657 67.762572,13.956 C68.3345749,14.1206675 68.7614039,14.4088313 69.043072,14.8205 C69.3247401,15.2321687 69.465572,15.7283304 69.465572,16.309 C69.465572,16.7770023 69.3745729,17.182165 69.192572,17.5245 C69.0105711,17.866835 68.7657402,18.1463323 68.458072,18.363 C68.1504038,18.5796677 67.7994073,18.7399995 67.405072,18.844 C67.0107367,18.9480005 66.6055741,19 66.189572,19 L61.691572,19 L61.691572,9.718 Z M63.732572,17.414 L65.916572,17.414 C66.1159063,17.414 66.3065711,17.3945002 66.488572,17.3555 C66.6705729,17.3164998 66.8309046,17.2515005 66.969572,17.1605 C67.1082394,17.0694995 67.2187383,16.9460008 67.301072,16.79 C67.3834057,16.6339992 67.424572,16.4346679 67.424572,16.192 C67.424572,15.715331 67.29024,15.3751677 67.021572,15.1715 C66.752904,14.9678323 66.3975742,14.866 65.955572,14.866 L63.732572,14.866 L63.732572,17.414 Z" id="HUB" fill="#6F7892"></path>
            <g id="Group-5" transform="translate(78.000000, 4.000000)">
                <rect id="Rectangle" fill="#E0E8F9" x="0" y="0" width="37.8" height="22.5" rx="2.7"></rect>
                <path d="M8.00727539,14.4 L8.00727539,7.80161133 L10.8158203,7.80161133 C11.9904785,7.80161133 12.7929199,8.39619141 12.7929199,9.42099609 C12.7929199,10.2717773 12.2660156,10.7310059 11.6472656,10.8663574 L11.6472656,10.9291992 C12.4400391,11.001709 13.1216309,11.5334473 13.1216309,12.534082 C13.1216309,13.7474121 12.1113281,14.4 10.8254883,14.4 L8.00727539,14.4 Z M9.39462891,8.86025391 L9.39462891,10.5134766 L10.2260742,10.5134766 C11.0285156,10.5134766 11.4200684,10.2089355 11.4200684,9.67236328 C11.4200684,9.140625 11.0333496,8.86025391 10.4822754,8.86025391 L9.39462891,8.86025391 Z M9.39462891,11.4851074 L9.39462891,13.3413574 L10.3275879,13.3413574 C11.1687012,13.3413574 11.7004395,13.0803223 11.7004395,12.4277344 C11.7004395,11.8234863 11.2750488,11.4851074 10.5596191,11.4851074 L9.39462891,11.4851074 Z M18.6855469,13.2253418 L18.6855469,14.4 L14.3784668,14.4 L14.3784668,7.80161133 L18.6855469,7.80161133 L18.6855469,8.97626953 L15.7658203,8.97626953 L15.7658203,10.5279785 L18.5115234,10.5279785 L18.5115234,11.615625 L15.7658203,11.615625 L15.7658203,13.2253418 L18.6855469,13.2253418 Z M22.7412598,14.4 L21.3442383,14.4 L21.3442383,9.01010742 L19.4928223,9.01010742 L19.4928223,7.80161133 L24.5926758,7.80161133 L24.5926758,9.01010742 L22.7412598,9.01010742 L22.7412598,14.4 Z M26.371582,14.4 L24.9745605,14.4 L27.1595215,7.80161133 L28.8224121,7.80161133 L30.9977051,14.4 L29.4991699,14.4 L29.0157715,12.7999512 L26.8646484,12.7999512 L26.371582,14.4 Z M27.9812988,9.15029297 L27.913623,9.15029297 L27.1401855,11.7316406 L28.7450684,11.7316406 L27.9812988,9.15029297 Z" id="BETA" fill="#9DAAD0"></path>
            </g>
            <g id="Logo">
                <g id="Group-3-Copy-2">
                    <g id="Combined-Shape-Copy-5">
                        <g id="Combined-Shape" transform="translate(0.958678, 1.642578)">
                            <mask id="mask-2" fill="white">
                                <use xlink:href="#path-1"></use>
                            </mask>
                            <use id="Mask" fill="#5769FF" xlink:href="#path-1"></use>
                        </g>
                        <g id="Oval-3-Copy" transform="translate(0.027132, 11.219119)"></g>
                        <g id="Group-2" transform="translate(5.383518, 0.046488)">
                            <g id="Group" transform="translate(0.000000, 0.456026)"></g>
                            <g id="Combined-Shape-Copy-3" transform="translate(9.082567, 0.000000)"></g>
                        </g>
                    </g>
                </g>
            </g>
        </g>
    </g>
</svg>