<svg xmlns="http://www.w3.org/2000/svg" width="70" height="26" viewBox="0 0 70 26"><g><g><path fill="#5769ff" d="M14.096.71v10.8c0 1.263 1.046 2.287 2.335 2.287 1.29 0 2.336-1.024 2.336-2.286V2.286c.01-.327.098-.634.247-.904 3.945 1.475 6.748 5.215 6.748 9.596v4.687c0 5.67-4.696 10.267-10.487 10.267h-4.788C4.695 25.932 0 21.336 0 15.665v-4.687c0-4.347 2.758-8.062 6.654-9.56.349.351.568.827.583 1.354V6.99c0 1.262 1.046 2.286 2.336 2.286 1.29 0 2.336-1.024 2.336-2.286V.71z"/></g><g><g><text dominant-baseline="text-before-edge" style="font-kerning:normal" fill="#fff" font-family="HelveticaNeue-Bold" font-size="13" letter-spacing="1.76" transform="translate(36 6)"><tspan style="font-kerning:normal">HUB</tspan></text></g></g></g></svg>