<?xml version="1.0" encoding="UTF-8"?>
<svg width="114px" height="27px" viewBox="0 0 114 27" version="1.1" xmlns="http://www.w3.org/2000/svg" xmlns:xlink="http://www.w3.org/1999/xlink">
    <!-- Generator: Sketch 52.6 (67491) - http://www.bohemiancoding.com/sketch -->
    <title>Group 5</title>
    <desc>Created with Sketch.</desc>
    <defs>
        <path d="M14.0959413,0 L14.0959413,10.8005934 C14.0959413,12.0634082 15.1415353,13.0871218 16.431341,13.0871218 C17.7211467,13.0871218 18.7667408,12.0634082 18.7667408,10.8005934 L18.7667408,1.57550199 L18.7675166,1.57550199 C18.7765934,1.2489991 18.8649668,0.941919269 19.0144244,0.67212995 C22.9594786,2.1469291 25.7615478,5.8868567 25.7615478,10.2675472 L25.7615478,14.9549057 C25.7615478,20.6255155 21.0663572,25.2224529 15.2745461,25.2224529 L10.4870018,25.2224529 C4.69519062,25.2224529 7.09292298e-16,20.6255155 0,14.9549057 L0,10.2675472 C-5.43616101e-16,5.92147611 2.75795619,2.20608038 6.65380832,0.707518356 C7.00280092,1.05898183 7.22246795,1.53539854 7.23706467,2.06221313 L7.23784053,2.06221313 L7.23784053,6.27958771 C7.23784053,7.54240246 8.28343461,8.56611609 9.57324028,8.56611609 C10.8630459,8.56611609 11.90864,7.54240246 11.90864,6.27958771 L11.90864,0 L14.0959413,0 Z" id="path-1"></path>
    </defs>
    <g id="Hub---Studio" stroke="none" stroke-width="1" fill="none" fill-rule="evenodd">
        <g id="Studio---Start-Shoot" transform="translate(-49.000000, -28.000000)">
            <g id="Group-5" transform="translate(48.000000, 27.000000)">
                <g id="Group-3-Copy">
                    <g id="Combined-Shape-Copy-5">
                        <g id="Combined-Shape" transform="translate(1.000448, 1.714147)">
                            <mask id="mask-2" fill="white">
                                <use xlink:href="#path-1"></use>
                            </mask>
                            <use id="Mask" fill="#5769FF" xlink:href="#path-1"></use>
                        </g>
                        <g id="Oval-3-Copy" transform="translate(0.028315, 11.707949)"></g>
                        <g id="Group-2" transform="translate(5.618084, 0.048514)">
                            <g id="Group" transform="translate(0.000000, 0.475895)"></g>
                            <g id="Combined-Shape-Copy-3" transform="translate(9.478305, 0.000000)"></g>
                        </g>
                        <path d="M37.897,10.718 L39.938,10.718 L39.938,14.28 L43.695,14.28 L43.695,10.718 L45.736,10.718 L45.736,20 L43.695,20 L43.695,15.996 L39.938,15.996 L39.938,20 L37.897,20 L37.897,10.718 Z M57.172286,16.49 C57.172286,17.746673 56.8212895,18.6804969 56.119286,19.2915 C55.4172825,19.9025031 54.4466255,20.208 53.207286,20.208 C51.9506131,20.208 50.9777894,19.9046697 50.288786,19.298 C49.5997826,18.6913303 49.255286,17.7553397 49.255286,16.49 L49.255286,10.718 L51.296286,10.718 L51.296286,16.49 C51.296286,16.7413346 51.3179524,16.9883321 51.361286,17.231 C51.4046195,17.4736679 51.4956186,17.6881657 51.634286,17.8745 C51.7729534,18.0608343 51.9657848,18.2124994 52.212786,18.3295 C52.4597872,18.4465006 52.7912839,18.505 53.207286,18.505 C53.9352896,18.505 54.4379513,18.3425016 54.715286,18.0175 C54.9926207,17.6924984 55.131286,17.1833368 55.131286,16.49 L55.131286,10.718 L57.172286,10.718 L57.172286,16.49 Z M62.732572,14.475 L64.799572,14.475 C65.1635738,14.475 65.4625708,14.3883342 65.696572,14.215 C65.9305732,14.0416658 66.047572,13.7600019 66.047572,13.37 C66.047572,13.1533322 66.0085724,12.9756674 65.930572,12.837 C65.8525716,12.6983326 65.7485726,12.5900004 65.618572,12.512 C65.4885714,12.4339996 65.3390728,12.3798335 65.170072,12.3495 C65.0010712,12.3191665 64.8255729,12.304 64.643572,12.304 L62.732572,12.304 L62.732572,14.475 Z M60.691572,10.718 L65.059572,10.718 C65.5015742,10.718 65.9045702,10.7569996 66.268572,10.835 C66.6325738,10.9130004 66.9445707,11.0408324 67.204572,11.2185 C67.4645733,11.3961676 67.6660713,11.6323319 67.809072,11.927 C67.9520727,12.2216681 68.023572,12.5856645 68.023572,13.019 C68.023572,13.4870023 67.9174064,13.8769984 67.705072,14.189 C67.4927376,14.5010016 67.1785741,14.7566657 66.762572,14.956 C67.3345749,15.1206675 67.7614039,15.4088313 68.043072,15.8205 C68.3247401,16.2321687 68.465572,16.7283304 68.465572,17.309 C68.465572,17.7770023 68.3745729,18.182165 68.192572,18.5245 C68.0105711,18.866835 67.7657402,19.1463323 67.458072,19.363 C67.1504038,19.5796677 66.7994073,19.7399995 66.405072,19.844 C66.0107367,19.9480005 65.6055741,20 65.189572,20 L60.691572,20 L60.691572,10.718 Z M62.732572,18.414 L64.916572,18.414 C65.1159063,18.414 65.3065711,18.3945002 65.488572,18.3555 C65.6705729,18.3164998 65.8309046,18.2515005 65.969572,18.1605 C66.1082394,18.0694995 66.2187383,17.9460008 66.301072,17.79 C66.3834057,17.6339992 66.424572,17.4346679 66.424572,17.192 C66.424572,16.715331 66.29024,16.3751677 66.021572,16.1715 C65.752904,15.9678323 65.3975742,15.866 64.955572,15.866 L62.732572,15.866 L62.732572,18.414 Z" id="HUB" fill="#FFFFFF"></path>
                        <g id="Group-5" transform="translate(77.000000, 5.000000)">
                            <rect id="Rectangle" fill="#2A2F3B" x="0" y="0" width="37.8" height="22.5" rx="2.7"></rect>
                            <path d="M8.00727539,14.4 L8.00727539,7.80161133 L10.8158203,7.80161133 C11.9904785,7.80161133 12.7929199,8.39619141 12.7929199,9.42099609 C12.7929199,10.2717773 12.2660156,10.7310059 11.6472656,10.8663574 L11.6472656,10.9291992 C12.4400391,11.001709 13.1216309,11.5334473 13.1216309,12.534082 C13.1216309,13.7474121 12.1113281,14.4 10.8254883,14.4 L8.00727539,14.4 Z M9.39462891,8.86025391 L9.39462891,10.5134766 L10.2260742,10.5134766 C11.0285156,10.5134766 11.4200684,10.2089355 11.4200684,9.67236328 C11.4200684,9.140625 11.0333496,8.86025391 10.4822754,8.86025391 L9.39462891,8.86025391 Z M9.39462891,11.4851074 L9.39462891,13.3413574 L10.3275879,13.3413574 C11.1687012,13.3413574 11.7004395,13.0803223 11.7004395,12.4277344 C11.7004395,11.8234863 11.2750488,11.4851074 10.5596191,11.4851074 L9.39462891,11.4851074 Z M18.6855469,13.2253418 L18.6855469,14.4 L14.3784668,14.4 L14.3784668,7.80161133 L18.6855469,7.80161133 L18.6855469,8.97626953 L15.7658203,8.97626953 L15.7658203,10.5279785 L18.5115234,10.5279785 L18.5115234,11.615625 L15.7658203,11.615625 L15.7658203,13.2253418 L18.6855469,13.2253418 Z M22.7412598,14.4 L21.3442383,14.4 L21.3442383,9.01010742 L19.4928223,9.01010742 L19.4928223,7.80161133 L24.5926758,7.80161133 L24.5926758,9.01010742 L22.7412598,9.01010742 L22.7412598,14.4 Z M26.371582,14.4 L24.9745605,14.4 L27.1595215,7.80161133 L28.8224121,7.80161133 L30.9977051,14.4 L29.4991699,14.4 L29.0157715,12.7999512 L26.8646484,12.7999512 L26.371582,14.4 Z M27.9812988,9.15029297 L27.913623,9.15029297 L27.1401855,11.7316406 L28.7450684,11.7316406 L27.9812988,9.15029297 Z" id="BETA" fill="#5E6884"></path>
                        </g>
                        <g id="Logo" transform="translate(32.000000, 2.000000)">
                            <g id="Group-3-Copy">
                                <g id="Combined-Shape-Copy-5">
                                    <g id="Oval-3-Copy" transform="translate(0.027132, 11.219119)"></g>
                                    <g id="Group-2" transform="translate(5.383518, 0.046488)">
                                        <g id="Group" transform="translate(0.000000, 0.456026)"></g>
                                        <g id="Combined-Shape-Copy-3" transform="translate(9.082567, 0.000000)"></g>
                                    </g>
                                </g>
                            </g>
                        </g>
                    </g>
                </g>
            </g>
        </g>
    </g>
</svg>