<?xml version="1.0" encoding="UTF-8"?>
<svg id="SVGDoc" width="114" height="27" xmlns="http://www.w3.org/2000/svg" version="1.1" xmlns:xlink="http://www.w3.org/1999/xlink" xmlns:avocode="https://avocode.com/" viewBox="0 0 114 27"><defs></defs><desc>Generated with Avocode.</desc><g><g><title>Group 5</title><g><title>Group 3 Copy</title><g><title>Combined Shape Copy 5</title><g><title>Combined Shape</title><g><title>Mask</title><path d="M14.09594,0.71v0v10.80059c0,1.26282 1.0456,2.28653 2.3354,2.28653c1.28981,0 2.3354,-1.02371 2.3354,-2.28653v-9.22509v0h0.00078c0.00907,-0.3265 0.09745,-0.63358 0.2469,-0.90337c3.94506,1.4748 6.74713,5.21473 6.74713,9.59542v4.68736c0,5.67061 -4.69519,10.26754 -10.487,10.26754h-4.78755c-5.79181,0 -10.487,-4.59693 -10.487,-10.26754v-4.68736c0,-4.34607 2.75796,-8.06147 6.65381,-9.56003c0.34899,0.35146 0.56866,0.82788 0.58325,1.35469h0.00078v0v4.21738c0,1.26281 1.04559,2.28653 2.3354,2.28653c1.28981,0 2.3354,-1.02372 2.3354,-2.28653v-6.27959v0z" fill="#5769ff" fill-opacity="1"></path></g></g><g><title>Oval 3 Copy</title></g><g><title>Group 2</title><g><title>Group</title></g><g><title>Combined Shape Copy 3</title></g></g><g><title>HUB</title><g transform="matrix(1,0,0,1,36,6)"><text dominant-baseline="text-before-edge" style="fill: #ffffff; fill-opacity: 1; font-size: 13px; font-family: 'HelveticaNeue-Bold'; letter-spacing: 1.76px; font-kerning: normal" ><tspan style="fill: #ffffff; fill-opacity: 1; font-size: 13px; font-family: 'HelveticaNeue-Bold'; letter-spacing: 1.76px; font-kerning: normal">HUB</tspan></text></g></g><g><title>Group 5</title><g><title>Rectangle</title><path d="M76,6.7c0,-1.49117 1.20883,-2.7 2.7,-2.7h32.4c1.49117,0 2.7,1.20883 2.7,2.7v17.1c0,1.49117 -1.20883,2.7 -2.7,2.7h-32.4c-1.49117,0 -2.7,-1.20883 -2.7,-2.7z" fill="#2a2f3b" fill-opacity="1"></path></g><g><title>BETA</title><g transform="matrix(1,0,0,1,83,9)"><text dominant-baseline="text-before-edge" style="fill: #5e6884; fill-opacity: 1; font-size: 9.9px; font-family: 'SanFranciscoText-Bold'; font-kerning: normal" ><tspan style="fill: #5e6884; fill-opacity: 1; font-size: 9.9px; font-family: 'SanFranciscoText-Bold'; font-kerning: normal">BETA</tspan></text></g></g></g><g><title>Logo</title><g><title>Group 3 Copy</title><g><title>Combined Shape Copy 5</title><g><title>Oval 3 Copy</title></g><g><title>Group 2</title><g><title>Group</title></g><g><title>Combined Shape Copy 3</title></g></g></g></g></g></g></g></g></g></svg>