<svg xmlns="http://www.w3.org/2000/svg" width="70" height="70" viewBox="0 0 70 70"><g><g><g><path fill="#3243c0" d="M35 70c19.33 0 35-15.67 35-35S54.33 0 35 0 0 15.67 0 35s15.67 35 35 35z"/></g><g><path fill="#5769ff" d="M34.998 65.275c16.722 0 30.277-13.555 30.277-30.277S51.72 4.72 34.998 4.72 4.72 18.276 4.72 34.998s13.556 30.277 30.278 30.277z"/></g><g><g><path fill="#382b73" d="M44.394 22.49H25.61l-10.57 9.014 19.962 24.79 19.963-24.79z"/></g><g><path fill="#382b73" d="M50.585 49.873h-.923v-.923c0-.361-.299-.66-.66-.66-.36 0-.66.299-.66.66v.923h-.922c-.361 0-.66.299-.66.66 0 .36.299.659.66.659h.923v.923c0 .361.299.66.66.66.36 0 .659-.3.659-.66v-.923h.923c.361 0 .66-.299.66-.66 0-.36-.299-.66-.66-.66z"/></g><g><path fill="#382b73" d="M23.375 47.633h-.923v-.923c0-.361-.299-.66-.66-.66-.36 0-.66.299-.66.66v.923h-.922c-.361 0-.66.299-.66.66 0 .36.299.659.66.659h.923v.923c0 .361.299.66.66.66.36 0 .659-.3.659-.66v-.923h.923a.659.659 0 1 0 0-1.32z"/></g><g><path fill="#382b73" d="M45.305 15.943h-.923v-.923c0-.361-.299-.66-.66-.66-.36 0-.66.299-.66.66v.923h-.922c-.361 0-.66.299-.66.66 0 .36.299.659.66.659h.923v.923c0 .361.299.66.66.66.36 0 .659-.3.659-.66v-.923h.923c.361 0 .66-.299.66-.66 0-.36-.299-.66-.66-.66z"/></g></g><g><g><path fill="#ffc733" d="M54.96 29.754L44.39 20.74h-4.23l5.804 9.014z"/></g><g><path fill="#ffc733" d="M29.84 20.74h-4.23l-10.57 9.014h8.996z"/></g></g><g><g><path fill="#e7ad27" d="M24.036 29.75H15.04l19.962 24.79z"/></g><g><path fill="#e7ad27" d="M35 54.54l19.962-24.79h-8.996z"/></g></g><g><path fill="#2dbba5" d="M34.996 20.74h-5.162l-5.804 9.014h10.966z"/></g><g><g><path fill="#fede3a" d="M24.03 29.75l10.966 24.79V29.75z"/></g><g><path fill="#fede3a" d="M45.966 29.754l-5.804-9.014H35v9.014z"/></g></g><g><path fill="#ef5a9d" d="M35 29.75v24.79l10.966-24.79z"/></g><g><path fill="#00a58c" d="M32.095 24.213h-.923v-.923c0-.361-.299-.66-.66-.66-.36 0-.66.299-.66.66v.923h-.922c-.361 0-.66.299-.66.66 0 .36.299.659.66.659h.923v.923c0 .361.299.66.66.66.36 0 .659-.3.659-.66v-.923h.923a.659.659 0 1 0 0-1.32z"/></g><g><g><path fill="#fff" d="M32.095 23.333h-.923v-.923c0-.361-.299-.66-.66-.66-.36 0-.66.299-.66.66v.923h-.922c-.361 0-.66.299-.66.66 0 .36.299.659.66.659h.923v.923c0 .361.299.66.66.66.36 0 .659-.3.659-.66v-.923h.923a.659.659 0 1 0 0-1.32z"/></g><g><path fill="#fff" d="M50.585 48.113h-.923v-.923c0-.361-.299-.66-.66-.66-.36 0-.66.299-.66.66v.923h-.922c-.361 0-.66.299-.66.66 0 .36.299.659.66.659h.923v.923c0 .361.299.66.66.66.36 0 .659-.3.659-.66v-.923h.923c.361 0 .66-.299.66-.66 0-.36-.299-.66-.66-.66z"/></g><g><path fill="#fff" d="M23.375 45.873h-.923v-.923c0-.361-.299-.66-.66-.66-.36 0-.66.299-.66.66v.923h-.922c-.361 0-.66.299-.66.66 0 .36.299.659.66.659h.923v.923c0 .361.299.66.66.66.36 0 .659-.3.659-.66v-.923h.923a.659.659 0 1 0 0-1.32z"/></g></g><g><path fill="#a72973" d="M41.395 33.353h-.923v-.923c0-.361-.299-.66-.66-.66-.36 0-.66.299-.66.66v.923h-.922c-.361 0-.66.299-.66.66 0 .36.299.659.66.659h.923v.923c0 .361.299.66.66.66.36 0 .659-.3.659-.66v-.923h.923c.361 0 .66-.299.66-.66 0-.36-.299-.66-.66-.66z"/></g><g><g><path fill="#fff" d="M41.395 32.473h-.923v-.923c0-.361-.299-.66-.66-.66-.36 0-.66.299-.66.66v.923h-.922c-.361 0-.66.299-.66.66 0 .36.299.659.66.659h.923v.923c0 .361.299.66.66.66.36 0 .659-.3.659-.66v-.923h.923c.361 0 .66-.299.66-.66 0-.36-.299-.66-.66-.66z"/></g><g><path fill="#fff" d="M45.305 14.183h-.923v-.923c0-.361-.299-.66-.66-.66-.36 0-.66.299-.66.66v.923h-.922c-.361 0-.66.299-.66.66 0 .36.299.659.66.659h.923v.923c0 .361.299.66.66.66.36 0 .659-.3.659-.66v-.923h.923c.361 0 .66-.299.66-.66 0-.36-.299-.66-.66-.66z"/></g></g></g></g></svg>